<mxfile host="app.diagrams.net" modified="2020-12-18T15:31:57.895Z" agent="5.0 (X11; Linux x86_64) AppleWebKit/537.36 (KHTML, like Gecko) Chrome/87.0.4280.88 Safari/537.36" etag="oJMOGdVqNr_JYn2BPA_K" version="14.0.5" type="github">
  <diagram id="iv6x3hcIPhZBm4bd5Vtm" name="Page-1">
    <mxGraphModel dx="1350" dy="1975" grid="1" gridSize="10" guides="1" tooltips="1" connect="1" arrows="1" fold="1" page="1" pageScale="1" pageWidth="827" pageHeight="1169" math="0" shadow="0">
      <root>
        <mxCell id="0" />
        <mxCell id="1" parent="0" />
        <mxCell id="WFGwZHM4DOjRg_3Tu2fw-56" value="" style="rounded=0;whiteSpace=wrap;html=1;" parent="1" vertex="1">
          <mxGeometry x="28" y="630" width="740" height="510" as="geometry" />
        </mxCell>
        <mxCell id="0ypiinrUx9c20DkoJLy9-18" value="" style="rounded=1;whiteSpace=wrap;html=1;" parent="1" vertex="1">
          <mxGeometry x="122.5" y="902.5" width="583" height="60" as="geometry" />
        </mxCell>
        <mxCell id="WFGwZHM4DOjRg_3Tu2fw-1" value="" style="rounded=0;whiteSpace=wrap;html=1;" parent="1" vertex="1">
          <mxGeometry x="40" y="-1120" width="740" height="420" as="geometry" />
        </mxCell>
        <mxCell id="WFGwZHM4DOjRg_3Tu2fw-3" value="" style="endArrow=none;html=1;" parent="1" edge="1">
          <mxGeometry width="50" height="50" relative="1" as="geometry">
            <mxPoint x="40" y="-1060" as="sourcePoint" />
            <mxPoint x="780" y="-1060" as="targetPoint" />
          </mxGeometry>
        </mxCell>
        <mxCell id="WFGwZHM4DOjRg_3Tu2fw-5" value="" style="shape=image;html=1;verticalAlign=top;verticalLabelPosition=bottom;labelBackgroundColor=#ffffff;imageAspect=0;aspect=fixed;image=https://cdn4.iconfinder.com/data/icons/fugue/icon_shadowless/ui-button-navigation-back.png" parent="1" vertex="1">
          <mxGeometry x="60" y="-1110" width="50" height="50" as="geometry" />
        </mxCell>
        <mxCell id="WFGwZHM4DOjRg_3Tu2fw-7" value="" style="shape=image;html=1;verticalAlign=top;verticalLabelPosition=bottom;labelBackgroundColor=#ffffff;imageAspect=0;aspect=fixed;image=https://cdn4.iconfinder.com/data/icons/fugue/icon_shadowless/cross-button.png" parent="1" vertex="1">
          <mxGeometry x="730" y="-1105" width="30" height="30" as="geometry" />
        </mxCell>
        <mxCell id="WFGwZHM4DOjRg_3Tu2fw-9" value="" style="ellipse;whiteSpace=wrap;html=1;aspect=fixed;fillColor=#CCCC00;" parent="1" vertex="1">
          <mxGeometry x="75" y="-1050" width="20" height="20" as="geometry" />
        </mxCell>
        <mxCell id="WFGwZHM4DOjRg_3Tu2fw-10" value="" style="ellipse;whiteSpace=wrap;html=1;aspect=fixed;" parent="1" vertex="1">
          <mxGeometry x="75" y="-1010" width="20" height="20" as="geometry" />
        </mxCell>
        <mxCell id="WFGwZHM4DOjRg_3Tu2fw-11" value="" style="ellipse;whiteSpace=wrap;html=1;aspect=fixed;" parent="1" vertex="1">
          <mxGeometry x="75" y="-970" width="20" height="20" as="geometry" />
        </mxCell>
        <mxCell id="WFGwZHM4DOjRg_3Tu2fw-12" value="" style="rounded=0;whiteSpace=wrap;html=1;" parent="1" vertex="1">
          <mxGeometry x="34" y="-630" width="740" height="590" as="geometry" />
        </mxCell>
        <mxCell id="WFGwZHM4DOjRg_3Tu2fw-14" value="" style="endArrow=none;html=1;" parent="1" edge="1">
          <mxGeometry width="50" height="50" relative="1" as="geometry">
            <mxPoint x="34" y="-570" as="sourcePoint" />
            <mxPoint x="774" y="-570" as="targetPoint" />
          </mxGeometry>
        </mxCell>
        <mxCell id="WFGwZHM4DOjRg_3Tu2fw-15" value="" style="shape=image;html=1;verticalAlign=top;verticalLabelPosition=bottom;labelBackgroundColor=#ffffff;imageAspect=0;aspect=fixed;image=https://cdn4.iconfinder.com/data/icons/fugue/icon_shadowless/ui-button-navigation-back.png" parent="1" vertex="1">
          <mxGeometry x="54" y="-620" width="50" height="50" as="geometry" />
        </mxCell>
        <mxCell id="WFGwZHM4DOjRg_3Tu2fw-16" value="&lt;span style=&quot;color: rgba(0 , 0 , 0 , 0.85) ; font-family: &amp;#34;lato&amp;#34; , &amp;#34;helvetica neue&amp;#34; , &amp;#34;arial&amp;#34; , &amp;#34;helvetica&amp;#34; , sans-serif ; font-size: 20px ; font-weight: 700 ; text-align: left ; background-color: rgb(255 , 255 , 255)&quot;&gt;Confirm Purchase&lt;/span&gt;" style="text;html=1;strokeColor=none;fillColor=none;align=center;verticalAlign=middle;whiteSpace=wrap;rounded=0;" parent="1" vertex="1">
          <mxGeometry x="130" y="-605" width="180" height="20" as="geometry" />
        </mxCell>
        <mxCell id="WFGwZHM4DOjRg_3Tu2fw-17" value="" style="shape=image;html=1;verticalAlign=top;verticalLabelPosition=bottom;labelBackgroundColor=#ffffff;imageAspect=0;aspect=fixed;image=https://cdn4.iconfinder.com/data/icons/fugue/icon_shadowless/cross-button.png" parent="1" vertex="1">
          <mxGeometry x="724" y="-615" width="30" height="30" as="geometry" />
        </mxCell>
        <mxCell id="WFGwZHM4DOjRg_3Tu2fw-18" value="" style="ellipse;whiteSpace=wrap;html=1;aspect=fixed;fillColor=#CCCC00;" parent="1" vertex="1">
          <mxGeometry x="69" y="-520" width="20" height="20" as="geometry" />
        </mxCell>
        <mxCell id="WFGwZHM4DOjRg_3Tu2fw-19" value="" style="ellipse;whiteSpace=wrap;html=1;aspect=fixed;" parent="1" vertex="1">
          <mxGeometry x="69" y="-560" width="20" height="20" as="geometry" />
        </mxCell>
        <mxCell id="WFGwZHM4DOjRg_3Tu2fw-20" value="" style="ellipse;whiteSpace=wrap;html=1;aspect=fixed;" parent="1" vertex="1">
          <mxGeometry x="69" y="-480" width="20" height="20" as="geometry" />
        </mxCell>
        <mxCell id="WFGwZHM4DOjRg_3Tu2fw-23" value="&lt;span style=&quot;color: rgba(0 , 0 , 0 , 0.87) ; font-family: &amp;quot;lato&amp;quot; , &amp;quot;helvetica neue&amp;quot; , &amp;quot;arial&amp;quot; , &amp;quot;helvetica&amp;quot; , sans-serif ; font-size: 14px ; text-align: left ; background-color: rgb(255 , 255 , 255)&quot;&gt;Are you sure you want to buy &quot;&lt;/span&gt;&lt;span style=&quot;color: rgba(0 , 0 , 0 , 0.87) ; font-family: &amp;quot;lato&amp;quot; , &amp;quot;helvetica neue&amp;quot; , &amp;quot;arial&amp;quot; , &amp;quot;helvetica&amp;quot; , sans-serif ; font-size: 14px ; text-align: left ; background-color: rgb(255 , 255 , 255)&quot;&gt;i&lt;/span&gt;&lt;span style=&quot;color: rgba(0 , 0 , 0 , 0.87) ; font-family: &amp;quot;lato&amp;quot; , &amp;quot;helvetica neue&amp;quot; , &amp;quot;arial&amp;quot; , &amp;quot;helvetica&amp;quot; , sans-serif ; font-size: 14px ; text-align: left ; background-color: rgb(255 , 255 , 255)&quot;&gt;&quot;&lt;/span&gt;&lt;span style=&quot;color: rgba(0 , 0 , 0 , 0.87) ; font-family: &amp;quot;lato&amp;quot; , &amp;quot;helvetica neue&amp;quot; , &amp;quot;arial&amp;quot; , &amp;quot;helvetica&amp;quot; , sans-serif ; font-size: 14px ; text-align: left ; background-color: rgb(255 , 255 , 255)&quot;&gt;&amp;nbsp;&lt;/span&gt;&lt;span style=&quot;color: rgba(0 , 0 , 0 , 0.87) ; font-family: &amp;quot;lato&amp;quot; , &amp;quot;helvetica neue&amp;quot; , &amp;quot;arial&amp;quot; , &amp;quot;helvetica&amp;quot; , sans-serif ; font-size: 14px ; text-align: left ; background-color: rgb(255 , 255 , 255)&quot;&gt;without &#39;Reseller Rights&#39; ?&lt;/span&gt;" style="text;html=1;strokeColor=none;fillColor=none;align=center;verticalAlign=middle;whiteSpace=wrap;rounded=0;fontStyle=1" parent="1" vertex="1">
          <mxGeometry x="199" y="-910" width="430" height="20" as="geometry" />
        </mxCell>
        <mxCell id="WFGwZHM4DOjRg_3Tu2fw-24" value="Close" style="rounded=1;whiteSpace=wrap;html=1;fillColor=#FFFFFF;fontStyle=1" parent="1" vertex="1">
          <mxGeometry x="460" y="-780" width="120" height="30" as="geometry" />
        </mxCell>
        <mxCell id="WFGwZHM4DOjRg_3Tu2fw-25" value="Proceed" style="rounded=1;whiteSpace=wrap;html=1;fillColor=#FFFF00;fontStyle=1" parent="1" vertex="1">
          <mxGeometry x="610" y="-780" width="120" height="30" as="geometry" />
        </mxCell>
        <mxCell id="WFGwZHM4DOjRg_3Tu2fw-26" value="&lt;span style=&quot;color: rgba(0 , 0 , 0 , 0.87) ; font-family: &amp;#34;lato&amp;#34; , &amp;#34;helvetica neue&amp;#34; , &amp;#34;arial&amp;#34; , &amp;#34;helvetica&amp;#34; , sans-serif ; font-size: 14px ; background-color: rgb(255 , 255 , 255)&quot;&gt;Total fees (cost of name +&amp;nbsp;&lt;/span&gt;&lt;span style=&quot;font-family: &amp;#34;roboto&amp;#34; ; font-size: 16px&quot;&gt;reseller fees&lt;/span&gt;&lt;span style=&quot;color: rgba(0 , 0 , 0 , 0.87) ; font-family: &amp;#34;lato&amp;#34; , &amp;#34;helvetica neue&amp;#34; , &amp;#34;arial&amp;#34; , &amp;#34;helvetica&amp;#34; , sans-serif ; font-size: 14px ; background-color: rgb(255 , 255 , 255)&quot;&gt;):&lt;/span&gt;&lt;span style=&quot;color: rgba(0 , 0 , 0 , 0.87) ; font-family: &amp;#34;lato&amp;#34; , &amp;#34;helvetica neue&amp;#34; , &amp;#34;arial&amp;#34; , &amp;#34;helvetica&amp;#34; , sans-serif ; font-size: 14px ; background-color: rgb(255 , 255 , 255)&quot;&gt;&lt;br&gt;&lt;br&gt;Name you are purchasing: &quot;i&quot; (&lt;/span&gt;&lt;span style=&quot;font-family: &amp;#34;roboto&amp;#34; ; font-size: 12pt ; letter-spacing: 0pt ; font-weight: 400 ; vertical-align: baseline ; background-color: rgba(0 , 0 , 0 , 0)&quot;&gt;snv verified name check&lt;/span&gt;&lt;span style=&quot;color: rgba(0 , 0 , 0 , 0.87) ; font-family: &amp;#34;lato&amp;#34; , &amp;#34;helvetica neue&amp;#34; , &amp;#34;arial&amp;#34; , &amp;#34;helvetica&amp;#34; , sans-serif ; font-size: 14px ; background-color: rgb(255 , 255 , 255)&quot;&gt;)&lt;br&gt;&lt;br&gt;Reseller details:&amp;nbsp;&lt;br&gt;&lt;/span&gt;" style="text;html=1;strokeColor=none;fillColor=none;align=left;verticalAlign=middle;whiteSpace=wrap;rounded=0;fontStyle=1" parent="1" vertex="1">
          <mxGeometry x="140" y="-555" width="550" height="170" as="geometry" />
        </mxCell>
        <mxCell id="WFGwZHM4DOjRg_3Tu2fw-28" value="Back" style="rounded=1;whiteSpace=wrap;html=1;fillColor=#FFFFFF;fontStyle=1" parent="1" vertex="1">
          <mxGeometry x="446" y="-100" width="120" height="30" as="geometry" />
        </mxCell>
        <mxCell id="WFGwZHM4DOjRg_3Tu2fw-29" value="Complete Purchase" style="rounded=1;whiteSpace=wrap;html=1;fillColor=#FFFF00;fontStyle=1" parent="1" vertex="1">
          <mxGeometry x="596" y="-100" width="120" height="30" as="geometry" />
        </mxCell>
        <mxCell id="WFGwZHM4DOjRg_3Tu2fw-30" value="" style="rounded=0;whiteSpace=wrap;html=1;" parent="1" vertex="1">
          <mxGeometry x="20" y="150" width="740" height="420" as="geometry" />
        </mxCell>
        <mxCell id="WFGwZHM4DOjRg_3Tu2fw-31" value="" style="endArrow=none;html=1;" parent="1" edge="1">
          <mxGeometry width="50" height="50" relative="1" as="geometry">
            <mxPoint x="20" y="210" as="sourcePoint" />
            <mxPoint x="760" y="210" as="targetPoint" />
          </mxGeometry>
        </mxCell>
        <mxCell id="WFGwZHM4DOjRg_3Tu2fw-32" value="" style="shape=image;html=1;verticalAlign=top;verticalLabelPosition=bottom;labelBackgroundColor=#ffffff;imageAspect=0;aspect=fixed;image=https://cdn4.iconfinder.com/data/icons/fugue/icon_shadowless/ui-button-navigation-back.png" parent="1" vertex="1">
          <mxGeometry x="40" y="160" width="50" height="50" as="geometry" />
        </mxCell>
        <mxCell id="WFGwZHM4DOjRg_3Tu2fw-33" value="&lt;span style=&quot;color: rgba(0 , 0 , 0 , 0.85) ; font-family: &amp;#34;lato&amp;#34; , &amp;#34;helvetica neue&amp;#34; , &amp;#34;arial&amp;#34; , &amp;#34;helvetica&amp;#34; , sans-serif ; font-size: 20px ; font-weight: 700 ; text-align: left ; background-color: rgb(255 , 255 , 255)&quot;&gt;Purchase Successful!&lt;/span&gt;" style="text;html=1;strokeColor=none;fillColor=none;align=center;verticalAlign=middle;whiteSpace=wrap;rounded=0;" parent="1" vertex="1">
          <mxGeometry x="110" y="175" width="220" height="20" as="geometry" />
        </mxCell>
        <mxCell id="WFGwZHM4DOjRg_3Tu2fw-34" value="" style="shape=image;html=1;verticalAlign=top;verticalLabelPosition=bottom;labelBackgroundColor=#ffffff;imageAspect=0;aspect=fixed;image=https://cdn4.iconfinder.com/data/icons/fugue/icon_shadowless/cross-button.png" parent="1" vertex="1">
          <mxGeometry x="710" y="165" width="30" height="30" as="geometry" />
        </mxCell>
        <mxCell id="WFGwZHM4DOjRg_3Tu2fw-35" value="" style="ellipse;whiteSpace=wrap;html=1;aspect=fixed;fillColor=#CCCC00;" parent="1" vertex="1">
          <mxGeometry x="55" y="300" width="20" height="20" as="geometry" />
        </mxCell>
        <mxCell id="WFGwZHM4DOjRg_3Tu2fw-36" value="" style="ellipse;whiteSpace=wrap;html=1;aspect=fixed;" parent="1" vertex="1">
          <mxGeometry x="55" y="220" width="20" height="20" as="geometry" />
        </mxCell>
        <mxCell id="WFGwZHM4DOjRg_3Tu2fw-37" value="" style="ellipse;whiteSpace=wrap;html=1;aspect=fixed;" parent="1" vertex="1">
          <mxGeometry x="55" y="260" width="20" height="20" as="geometry" />
        </mxCell>
        <mxCell id="WFGwZHM4DOjRg_3Tu2fw-38" value="&lt;span style=&quot;color: rgba(0 , 0 , 0 , 0.87) ; font-family: &amp;#34;lato&amp;#34; , &amp;#34;helvetica neue&amp;#34; , &amp;#34;arial&amp;#34; , &amp;#34;helvetica&amp;#34; , sans-serif ; font-size: 14px ; background-color: rgb(255 , 255 , 255)&quot;&gt;I would like to register the name with Proxy Provider&lt;br&gt;&lt;/span&gt;" style="text;html=1;strokeColor=none;fillColor=none;align=left;verticalAlign=middle;whiteSpace=wrap;rounded=0;fontStyle=1" parent="1" vertex="1">
          <mxGeometry x="148" y="297.5" width="550" height="25" as="geometry" />
        </mxCell>
        <mxCell id="WFGwZHM4DOjRg_3Tu2fw-39" value="&lt;span style=&quot;color: rgba(0 , 0 , 0 , 0.87) ; font-family: &amp;#34;lato&amp;#34; , &amp;#34;helvetica neue&amp;#34; , &amp;#34;arial&amp;#34; , &amp;#34;helvetica&amp;#34; , sans-serif ; font-size: 14px ; font-weight: 700 ; text-align: left ; background-color: rgb(255 , 255 , 255)&quot;&gt;Note: This is not reversible.&lt;/span&gt;" style="text;html=1;strokeColor=none;fillColor=none;align=center;verticalAlign=middle;whiteSpace=wrap;rounded=0;" parent="1" vertex="1">
          <mxGeometry x="95" y="-95" width="251" height="20" as="geometry" />
        </mxCell>
        <mxCell id="WFGwZHM4DOjRg_3Tu2fw-41" value="Next" style="rounded=1;whiteSpace=wrap;html=1;fillColor=#FFFF00;fontStyle=1" parent="1" vertex="1">
          <mxGeometry x="596" y="510" width="120" height="30" as="geometry" />
        </mxCell>
        <mxCell id="WFGwZHM4DOjRg_3Tu2fw-44" value="&lt;b&gt;&lt;font style=&quot;font-size: 18px&quot;&gt;ScreenTitle&lt;/font&gt;&lt;/b&gt;" style="text;html=1;strokeColor=none;fillColor=none;align=center;verticalAlign=middle;whiteSpace=wrap;rounded=0;" parent="1" vertex="1">
          <mxGeometry x="90" y="-1095" width="180" height="20" as="geometry" />
        </mxCell>
        <mxCell id="WFGwZHM4DOjRg_3Tu2fw-45" value="" style="triangle;whiteSpace=wrap;html=1;rotation=90;fillColor=#000000;" parent="1" vertex="1">
          <mxGeometry x="140" y="-405" width="8" height="11" as="geometry" />
        </mxCell>
        <mxCell id="WFGwZHM4DOjRg_3Tu2fw-46" value="More Info" style="text;html=1;strokeColor=none;fillColor=none;align=center;verticalAlign=middle;whiteSpace=wrap;rounded=0;" parent="1" vertex="1">
          <mxGeometry x="148" y="-409.5" width="71" height="20" as="geometry" />
        </mxCell>
        <mxCell id="WFGwZHM4DOjRg_3Tu2fw-47" value="" style="shape=image;verticalLabelPosition=bottom;labelBackgroundColor=#ffffff;verticalAlign=top;aspect=fixed;imageAspect=0;image=data:image/png,iVBORw0KGgoAAAANSUhEUgAABHwAAAGUCAYAAABHpzVnAAAgAElEQVR4XuydCdhWw/vH7/Z9U1qIyhah7EqFspM1siRKISRCyRYh2clWZMlOyRpZQ6JUCKW0aJFK+74v/+s7/uf9nZ6eM8/yPr09b33mulx458z2mTln7vnOPfMU2LRp0yZLIyjZ0qXLbMmSJbbTTjtZiRLFrVChQmnkRBIIQAACEIAABCAAAQhAAAIQgAAEIACBZAhs2LDBVq1abQsXLrRy5cpZ2bJlrECBAlskLZCu4LN+/XqbPXuOE3tKlSqZTJ14BgIQgAAEIAABCEAAAhCAAAQgAAEIQCADBFasWOlEn2rVqlrhwoUzI/jIu2ft2nU2a9Ysq1mzRlwlKQN1JwsIQAACEIAABCAAAQhAAAIQgAAEIACBOAQ2btxo06fPsF122cWKFi2yhTaTloePBJ81a9Y4D59atWoCHgIQgAAEIAABCEAAAhCAAAQgAAEIQCCPCUydOs15+BQrVgzBJ4/ZUxwEIAABCEAAAhCAAAQgAAEIQAACENgqBBB8tgpWMoUABCAAAQhAAAIQgAAEIAABCEAAAtuOAILPtmNPyRCAAAQgAAEIQAACEIAABCAAAQhAYKsQQPDZKljJFAIQgAAEIAABCEAAAhCAAAQgAAEIbDsCCD7bjj0lQwACEIAABCAAAQhAAAIQgAAEIACBrUIAwWerYCVTCEAAAhCAAAQgAAEIQAACEIAABCCw7Qgg+Gw79pQMAQhAAAIQgAAEIAABCEAAAhCAAAS2CgEEn62ClUwhAAEIQAACEIAABCAAAQhAAAIQgMC2I4Dgs+3YUzIEIAABCEAAAhCAAAQgAAEIQAACENgqBBB8tgpWMoUABCAAAQhAAAIQgAAEIAABCEAAAtuOAILPtmNPyRCAAAQgAAEIQAACEIAABCAAgawnMGjeKLt/2kAbt3yGLV6/Iuvrm98rWL5wKdu/9O7WtWZza7bz4Wk3B8EnbXQkhAAEIAABCEAAAhCAAAQgAAEIbN8E3p87ws7+tef23cgsbt179W6xsyrXT6uGCD5pYSMRBCAAAQhAAAIQgAAEIAABCEBg+yfQYGQXG7Hkz+2/oVnawvrlatvwIx5Mq3YIPmlhIxEEIAABCEAAAhCAAAQgAAEIQGD7J1D+64tsCce4tllHlytcyhY3eSOt8hF80sJGIghAAAIQgAAEIAABCEAAAhCAwPZPoMAXZ27/jczyFm464YO0aojgkxa2zCR688037emnn7ZixYrZCSecYJ07d7ZChQq5zH1xmSk9+VySqcvnn39ugwYNsieeeCL5jHkSAhCAAAQgAAEIQAACEIAABLKaAILPtu+e7UrwGTBggN166605VDdu3GjXXHON3XDDDe5vAwcOtEceecT9d5cuXeyss85y/+1Lt3r1auvevbsNGzbMNmzYYF27drUzzjgjp4wZM2bYzTffbBMnTrT99tvPHnjgAdt1111NZffu3dv69+9vK1eutNNOO826detmBQsW9JYXHhLjx4+3c845x/TvIMyfP99OPvlk++STT6xixYr2+uuvW6tWraxAgQLmi4tqu/IdO3asPfTQQ1akSBF7/vnnNxuVvnS+OF9dwgVI8Pniiy9c+QrPPfecvfLKK+6/JWSdeeb/VOF06+lLt+1fQWoAAQhAAAIQgAAEIAABCEBg+yOA4LPt+3S7EnxicTZt2tQef/xxq1u3rk2fPt3OPfdce/fdd91jEnvee+8923333bfohXC6tWvX2pdffmknnniizZ0710455RT75ptvrEKFCrZp0yYn/rRr184JE99//70dfPDBVrJkSevXr5+NHDnS7r//fueJ0759e5e2RYsW3vKCSIlLzZs3t3HjxtmkSZNy0vz888/24IMP2ltvvbVFPlFxvrbPmTPHHnvsMdcelfPCCy/k5OtLl4inr55Rgs/QoUPtqaeecnVYv369nXfeedanTx/ba6+9LN16+tJt+9ePGkAAAhCAAAQgAAEIQAACENg+CSD4bPt+3W4Fn99++81uuukmkweJgrxt5HVyxx13OE+dvffe28VfffXVm/VCbLrYLmrcuLE7NlW9enX78ccf7cUXX7Rnn312i55cunSpK0dCioJEjJkzZ9qdd96ZVHl9+/a1adOmOQ+hQPCR99AHH3xgixcvtipVqlitWrVc+Qq+uGTa/u233zrPmrDg40vni/PVRZ5P8ub5+OOPrWzZstakSRObPXu2Pfzww9arVy8rXbq0tW3b1rVJ4o+e79ixYw6zVOsZJIyXbtu/ftQAAhCAAAQgAAEIQAACEIDA9kkAwSd+vxawAvZ23c72x4q/7a4pb27Vzt9uBZ977rnHiS0dOnRwADt16mQNGzZ0Xj4SJCSmlChRwh599NHNAMemCyJ1ZGvw4MEmQSgQRXT8aOrUqS6vWbNm2QUXXGBXXXVV3A7TEbJ69epZy5YtE5Yn7xl5DUlYatCgwWYePqNGjXLCyGuvvbZFOVFxybQ9niDiS5coz6i6qN6jR492R+sWLVpkzZo1s0aNGjnB57PPPnMClriqb84//3wnaoX7KNV6Ivhs1e8HmUMAAhCAAAQgAAEIQAACEIhLIBXBp1H5OvbwPq3tgNI1bPaaRfbmnKF271/97aJqx1jvfdvbiT/fad8t/iOnnK41m9vte7SwXYa2sZmNX7QP5420i8duvrbvt/911rxyA6v+XduUfy3sjQNvtH1K7uLKW7Z+lU1ZNcf6zPzURi+dnJHe7rHXxTZ55Wx7adZXGckvKpPtUvDRUSuJCG+88YbVqFHDtf3KK6+0s88+2x3Dmjx5svPw0ZGusHdOvHQBOAk58rS57LLL7KKLLnJ/lnCku3QkUFStWtUuvfRSu/766+3YY4/djLfKa9OmjRM0dNwrCFHlXXzxxa6cI4880g466KBcCz7JtD2ekOJLlyjPKMFHx9Tk5aRjdgFDHZUL7lbSZdS6U0l3EukuJPVfjx49cpilWk8En636/SBzCEAAAhCAAAQgAAEIQAACuRJ8ShYsZv8c/aL9tHSK9fr7I6tVvIrVL1/bLv79Mbtklyb20v4dbd7aJXbYjzfajNXzXFmB4FN6yPnWq3Y7u2a3U63md1fYzDXzXXy1YhVsRqMXnEhz7Z/PpdxDEnyKFChk3aa8aWULl7DLdz3R9i1V3c799X6bs3ZxyvltqwTbpeAjseHuu++2jz76KIerPFIkyvz7779OXNBdPrqIWffXBCFeunDHBPfK6GLoww8/3HmlSMAJjoXp+NWff/7pjo0FQV4sF154oclzSGnCIV55ykN3BD3zzDO2YsWKjAg+ybQ9ynMmilmiPKMEn+OOO85dDC3PHYVXX33VxowZkyP4hPnIG0hiUHDptuJSrWeQH0e6ttUnhnIhAAEIQAACEIAABCAAgR2RQLIePjWKV7Zpjftat8lv2D1T394MVetdjnOCz9cLf7cKRUpZw5FdbeXGNZsJPnuWqGoTG/a2+6a+Y3dMed2lv3OPC9w/tX+42iatnJUyfgk+GzZttFZj/9MLGpTf156sfbl1ntTPZq9eaB12b2b7l9rNlm5YZY9O/8C+XTTW6pTazW6pda7VVHtWz7UeUwfYnDWL7K49L7SDy+xhi9avsL4zP7OP54+29w+61cYsm+qOdD1eu50ro3ShElandHX7fdl0u2XyK7Zw3XK7oGpju7RaU9u5aNmcNtw0sZ99s+j3pNq0XQo+ElfKly9v1157bQ4E3Qejo0G//vqrlSlTxnmNlCtXLufIlx6Mly6WosQciRXywJEnioQNXaKsoP///fffndiksHz5cuf1c/nll7tf1ooN8cqTOKTjYfrFLHkA6cjYHnvs4S5prlSpkisv1SNdybQ9niDiS5coz6h6XnLJJda6dWvTxdgKus9Hd/jEHq1TnO7uOf30091Pzwch1Xr60iX1hvAQBCAAAQhAAAIQgAAEIAABCKRMIFnBRxm/V+8WO6tyfftl6V/2ztwfrO/Mz23euiUWCD67DW1rXx16t/26fJq1+O3BzQQfpf+g3m12ZLl9bPfv2tpG22TTGvW1X5b9ZaePuTfleitBWPApU7iEdal5jp1U8WA779cH3LGzPUpUtcHzf7J21U+wI8vuY01/usN679feChUoZJ0nvWR7l9zFCU3nVm5oraoda+f//pCVLVTCNurE0arZWwg++5XazTr9+bwtWb/S3jzwJnek7ZP5o21gva52/Z/P29gVM+y1A25wR8ru+ettJ0YlE7ZLweeYY44xHQ064IADchhMmTLF/cT5p59+6v6mX+nSHTkSU4IQL51+0lseN/p5d3kH6ZejJE7IW2fBggVOyJHHin5JSuKOvH0kZsg7R8e4dGdP8NPiEnB0VMlXXrjTMuXhk0zb4wkpvnSJ8owSfOTBpJ+Sl2fPkiVLHJ/DDjvMMZVApv7RPUvDhw833Xv01VdfWdGiRb2CT6K6KLHPw0eeWvXr13fHAGNDunHJvHw8AwEIQAACEIAABCAAAQhAYHslkIrgIwbHVjjAztj5CGtVrYkTNPYf3sFO3/kI5+FTZsj5tmuxivbjEQ/Zw9Pft/WbNrg7fHSkS6FJhQNtyGH32kW/P2JrN663d+rdbMf/1M2+WvhrWnjDd/gog6XrV9mTfw+y9+aO2Cw/iUC6j+fkX7pb211OsLMr17cvFo6xj+eNthFL/rTjd6pn9+99iY1aOtkJRJ/M/8nVPdbDp3zhUtZ6XC+Xty50nrRytr3wzxc2oG4Xu2pCHxu3fIa9fWBne+vf7+z12d8m3abtTvCZMGGCtWrVyv0kelhcERF5ycg7RkFHksI/kR6VTkeyunXr5gSIggULul+Q0v01QZAg0b17dyfwqFzd4aOgX7HScTF5GgVBx5l69uzp/tdXz+D5TAk+idqu+ChBxMfMFxcl+OhXtySiyBuqWrVq7mftdYmzfn5dP6HetWtXk4Aj76v77rsv566fgEk69fS1T3ES8XR5tAS72JBuXNJvIA9CAAIQgAAEIAABCEAAAhDYDgmkKvgECE6seLB9dshddtLPd9kuxXbKEXyWb1htp1Y61Hnz/LBkgh1ads8cwUdpx9R/3BatW24rNqyxGiV2tgOH/+/XnlPFK8GncIFCdvvk12zZhtX275pFznNIQUe3LtmlqdUuuYvJ+0dizam/3G3z1i61JjsdaCdXPMT9+/6p79jAucOdR9BplQ6zZpUOcxdP3zr51YSCz5SVc9xzOg52TPn9beXGtU5AemDaQCdoJRu2O8En2YbzHAQgAAEIQAACEIAABCAAAQhAAAJbh0Cygo+8c/rsd5U9/fcn9teqf63trsc7z5i9vm9vp1Q6dDPBRzXV8aoH9r7UVmxYvZng02aX4+z5Oh2cB83V45+1F2Z9kXbDYu/wCWc05NB7bcii3+zBae/aOZUb2E01znKCj455/bNmgS1ev8LeOrCzvT93hLt7qHTh4u4n2OUJVKZQSWs//pmkBB+JTYMOvsMqFi1r6zaud/kOmjfKXUSdbEDwSZYUz0EAAhCAAAQgAAEIQAACEIAABCCQFIFkBZ8KhUvbvXu1dMeh5C0zdvkM6zJJFxOPzbnDR0e65OEThOAn18t8fUHO34oVLGLTGz1vhQoUtN2+a2urN65Nqp7xHvIJPp1rnO2Oms1au9CGLfrDWlY7xs4c08MuqnqMnb7z4VakQGEbuXSi3fXXW9a4fB27qvopVqloGXdMq8df/W3iyllJCT6DF/xsXWqcbZ3+fMF5F51S6RCTqHWK8yZaklTbEHySwsRDEIAABCAAAQhAAAIQgAAEIAABCCRLIFnBJ9n8drTndGG1PIiuGP+0LV2/0i6p1sTOrtzATvulu63fkS9t3tEGAu2FAAQgAAEIQAACEIAABCAAAQhkEwEEn9z1RvGCRa1rrebWsNx+VrRgYXcsTD8Bn8rPzOPhk7s+IDUEIAABCEAAAhCAAAQgAAEIQAACMQQQfLb9kEDw2fZ9QA0gAAEIQAACEIAABCAAAQhAAALbFQEEn23fnQg+274PqAEEIAABCEAAAhCAAAQgAAEIQGC7IoDgs+27E8Fn2/cBNYAABCAAAQhAAAIQgAAEIAABCGxXBMp/fZEtWb9iu2pTfmpMucKlbHGTN9Kq8tSp06xatapWrFgxK1CgwGZ5FNi0adOmVHNVkjVr1tjs2XOsVq2aqSbneQhAAAIQgAAEIAABCEAAAhCAAASyhECDkV1sxJI/s6Q2O1416perbcOPeDCthiP4pIWNRBCAAAQgAAEIQAACEIAABCAAge2fwPtzR9jZv/bc/huapS18r94tdlbl+mnVDsEnLWwkggAEIAABCEAAAhCAAAQgAAEI7BgEBs0bZfdPG2jjls+wxRzv2uqdXr5wKdu/9O7WtWZza7bz4WmXh+CTNjoSQgACEIAABCAAAQhAAAIQgAAEIACB7CSA4JOd/UKtIAABCEAAAhCAAAQgAAEIQAACEIBA2gQQfNJGR0IIQAACEIAABCAAAQhAAAIQgAAEIJCdBBB8srNfqBUEIAABCEAAAhCAAAQgAAEIQAACEEibAIJP2uhICAEIQAACEIAABCAAAQhAAAIQgAAEspMAgk929gu1ggAEIAABCEAAAhCAAAQgAAEIQAACaRNA8EkbHQkhAAEIQAACEIAABCAAAQhAAAIQgEB2EkDwyc5+oVYQgAAEIAABCEAAAhCAAAQgAAEIQCBtAgg+aaMjIQQgAAEIQAACEIAABCAAAQhAAAIQyE4CCD7Z2S/UCgIQgAAEIAABCEAAAhCAAAQgAAEIpE0AwSdtdCSEAAQgAAEIQAACEIAABCAAAQhAAALZSQDBJzv7hVpBAAIQgAAEIAABCEAAAhCAAAQgAIG0CSD4pI2OhBCAAAQgAAEIQAACEIAABCAAAQhAIDsJIPhkZ79QKwhAAAIQgAAEIAABCEAAAhCAAAQgkDYBBJ+00ZEQAhCAAAQgAAEIQAACEIAABCAAAQhkJwEEn+zsF2oFAQhAAAIQgAAEIAABCEAAAhCAAATSJoDgkzY6EkIAAhCAAAQgAAEIQAACEIAABCAAgewkgOCTnf1CrSAAAQhAAAIQgAAEIAABCEAAAhCAQNoEEHzSRkdCCEAAAhCAAAQgAAEIQAACEIAABCCQnQQQfLKzX6gVBCAAAQhAAAIQgAAEIAABCEAAAhBImwCCT9roSAgBCEAAAhCAAAQgAAEIQAACEIAABLKTAIJPdvYLtYIABCAAAQhAAAIQgAAEIAABCEAAAmkTQPBJGx0JIQABCEAAAhCAAAQgAAEIQAACEIBAdhJA8MnOfqFWEIAABCAAAQhAAAIQgAAEIAABCEAgbQIIPmmjIyEEIAABCEAAAhCAAAQgAAEIQAACEMhOAgg+2dkv1AoCEIAABCAAAQhAAAIQgAAEIAABCKRNAMEnbXQkhAAEIAABCEAAAhCAAAQgAAEIQAAC2UkAwSc7+4VaQQACEIAABCAAAQhAAAIQgAAEIACBtAkg+KSNjoQQgAAEIAABCGyvBGQg1apVc3ttHu2CAAQgAAEIQGAHIJCVgs/UqVPttdde2wx/3bp17cwzz9xqXbJhwwYbNGiQlS5d2o477ritVg4ZQwACEIAABCCQ/QQyIfgMHz7cRowYYWXLlrWzzjrLKlasmFTD//zzTxs1apSdeuqpttNOOyWVJtFDWyPPRGUSDwEIQAACEIDAtiWQlYKPjJzrrrvOlixZYmvWrLHKlSs7o+f222/farQWLVpkhx56qLVv3966dOmy1cohYwhAAAIQgAAEsp9AbgWfJ5980h577DErWrSorV271ok977zzjtWoUSNh4++66y638fX7779biRIlEj6fzANbI89kyuUZCEAAAhCAAAS2HYGsFHwCHJ06dbLvv//eRo4cmUNo2LBh9vXXX9tll11mH330kTOkLrzwQmcQvfvuu/bPP//YIYccYj/++KPtueeedsopp7hnPvnkE2c43XzzzS4vxX/++edOWPrpp5+sf//+9tlnn1mhQoXskksusf3339/OOecc9+ysWbPcs3PnznV5NmvWzIoVK7bteo2SIQABCEAAAhDYqgRyI/j8/fffzlv4mGOOsaeeesomTpxo559/vh177LH24IMPOiHo+OOPtwYNGrg26G916tRxm1s9evSwl156yf29TZs27t9XXXWV+3fv3r1dHspPIlLTpk2tdu3atnz58rTyrFSpksv3yy+/dDaS7CXVe999992qbMkcAhCAAAQgAIG8IZDvBB8ZTto1K168uK1cudJ0FEtu0o8++qh17NjRHcsqXLiw1axZ0/766y9nbL3wwgt222232QcffGBjx451ZF988UW79957naAk4ej+++/PIV61alVniN199902c+ZMO/30023dunVWpUoVmzZtmu2999723nvvZWzXLW+6mlIgAAEIQAACEEiWQG4En379+jkbQvaFNpAUbrrpJvv444/dBpJsk1tuucUuv/xyF1evXj23QSWxp3HjxjZnzhz3d9kjCm+++aatX7/eTjjhBPf/O++8s23atMmWLl1qr7/+uu22225Wv379lPOUt5FsIdlEu+++u/OsXrZsmfXs2dPOO++8ZFHxHAQgAAEIQAACWUogXwo+EncuuOACk3vy9ddf7zx+tDN1ww03OMFHO2e67+fVV1+1O++80xlKEns+/PDDuIJPtWrVbPz48XbaaafZAw88sJmRI68f7axJEGrRooV99913zltIxhABAhCAAAQgAIHtk0BuBJ/g+JQ8cQoWLOgABRtNAwYMcHZGPMEn2HzS8XJtUMmrOQhTpkxxgo88et5//3234XXSSSc5sUd2j7yFUs1TecurSMfnJUYVKFDAeT7feOONbnOLAAEIQAACEIBA/iaQbwWfH374we18Pfvss06kGT16tBOAtHM2btw4dzRLR7EaNWpkt956q8lQ0k5bPA8fCT6//PKLNW/e3Hr16uU8eoIgN2mJSxKEZEzpmJeOdMntmQABCEAAAhCAwPZJIDeCj+wOHTOfMGFCDhzdydOtWzfnkdOyZUuvONO6dWvnYayjVrGCj467X3vtte7POqauTagvvvjCjjrqqJTzVB66V0hCUYUKFZz9c9FFF7nj6wQIQAACEIAABPI/gXwr+Mijp1SpUta3b1/nbaM7ee655x775ptv7LfffnM9I5doGUAyjvTfOob1xx9/uLggnY50SfD5+eef7dxzz3Xn47VjFg6rVq1yd/zIU0i7dYcddpj7b4lKBAhAAAIQgAAEtj8CuRF8Hn74YXvmmWecbVG+fHkHR144OpIugUZeNRJrrrzyShd3wAEHuM2kwMPn0ksvtXnz5rlngxB4+OiIetu2bd2fJdRIWJLt07Bhw5TzDPKW3fTKK684L5+NGze6uvOLpdvfmKZFEIAABCCw4xHY7gQfHenSES+dS//000/t6quvdhcmykPn6aefdhc0axerc+fONnDgQHeHjwQfeQVpZ+uhhx5ynj7z5883XWaoHTYdBVM+Co888ojLR0YYlxrueC8MLYYABCAAgR2DQG4EnyFDhli7du1yjoNLRJGNoQ2kwYMHu3t9Lr74YueZLDvj6KOPdsfGA8HniiuucN5BQ4cOdXf1LFiwwN2voyNdwb2F6gUJRzraJTslnTxl5zz++OPOq0e/iCqRSZteRx55pNsAI0AAAhCAAAQgkL8JZKXgM3nyZCfa6AiWLkmW67IuE5QRIvFGd/hEefhI8NG5cx3l0r09+vWu4NcnZEzJqFK8LnJWCAQfnV/XpYmKkwePxCCJOvIEkhu2dt50EbREJB0V05GyMmXK5O/ep/YQgAAEIAABCMQlkBvBRyKMxBjZCzoWPmnSJCfeyBNZx7latWplY8aMcaKQxCHZNGHBRyLME0884X6lS943tWrVct5AEnx0J1CwMSVbKTd5avNLntDVq1d3l0YvXrzYeTRfc801zjuaAAEIQAACEIBA/iaQlYKPLiPUBczh0KRJEyfSJBJ85D4t0WbUqFHuJ07vu+8+22uvvVxWffr0cXf+lCxZ0urWret+hl2u0AcddJCL14WKMrCKFCnifqVLrtIy2iQw6W4g7a7pXLvO5st1mgABCEAAAhCAwPZJIDeCj4j8888/7s4eHTkvW7as6ZhWcIRrxowZTlCR97E2qCT4yGs4+Dn2uXPnumfl5SMbRs/Kc1mCz8knn+zuHZR9Ii+hDh06OBEonTz1s+6yhWQbqSz9AqqEH9W7WLFi22fH0ioIQAACEIDADkQgKwWfdPnrZ9l1KbN2ywgQgAAEIAABCEAgXQK5FXzSLTcqXXCHT/BLpJnOn/wgAAEIQAACENj+CGx3gs/w4cOddw8BAhCAAAQgAAEIpEsgWwWfu+++23n2ECAAAQhAAAIQgEAiAtuV4JOoscRDAAIQgAAEIACBZAhkm+CTTJ15BgIQgAAEIAABCIQJIPgwHiAAAQhAAAIQgEAMAQQfhgQEIAABCEAAAvmdAIJPfu9B6g8BCEAAAhCAQMYJIPhkHCkZQgACEIAABCCQxwQQfPIYOMVBAAIQgAAEIJD9BBB8sr+PqCEEIAABCEAAAn4CCD6MEAhAAAIQgAAEIBBDAMGHIQEBCEAAAhCAQH4ngOCT33uQ+kMAAhCAAAQgkHECCD4ZR0qGEIAABCAAAQjkMQEEnzwGTnEQgAAEIAABCGQ/AQSf7O8jaggBCEAAAhCAgJ8Agg8jBAIQgAAEIAABCMQQQPBhSEAAAhCAAAQgkN8JIPjk9x6k/hCAAAQgAAEIZJwAgk/GkZIhBCAAAQhAAAJ5TADBJ4+BUxwEIAABCEAAAtlPAMEn+/uIGkIAAhCAAAQg4CeA4MMIgQAEIAABCEAAAjEEEHwYEhCAAAQgAAEI5HcCCD75vQepPwQgAAEIQAACGSeA4JNxpGQIAQhAAAIQgEAeE0DwyWPgFAcBCEAAAhCAQPYTQPDJ/j6ihhCAAAQgAPWuNckAACAASURBVAEI+Akg+DBCIAABCEAAAhCAQAwBBB+GBAQgAAEIQAAC+Z0Agk9+70HqDwEIQAACEIBAxgkg+GQcKRlCAAIQgAAEIJDHBBB88hg4xUEAAhCAAAQgkP0EEHyyv4+oIQQgAAEIQAACfgIIPowQCEAAAhCAAAQgEEMAwYchAQEIQAACEIBAfieA4JPfe5D6QwACEIAABCCQcQIIPhlHSoYQgAAEIAABCOQxAQSfPAZOcRCAAAQgAAEIZD8BBJ/s7yNqCAEIQAACEICAnwCCDyMEAhCAAAQgAAEIxBBA8GFIQAACEIAABCCQ3wkg+OT3HqT+EIAABCAAAQhknACCT8aRkiEEIAABCEAAAnlMAMEnj4EnKq5jx47WqFEja9GiRaJH7fPPP7dBgwbZE088kfDZTDywtctLpe2ZaE9sHpls35tvvmlPP/20FStWzE444QTr3LmzFSpUaGtU2+W5NcrbGnn6AOR1ecl0Rrwxkdf1zOvykuGSyjNXX321jRgxwgoXLuyS9ejRw70TicLtt9/uvnEKK1ascOnOOuusRMmIh0DGCCD4ZAwlGUEAAhCAAAQgsI0IbFeCz8aNG613797Wv39/W7lypZ122mnWrVs3K1iwoMP7xhtvOHFk/fr11qxZM7vzzjutQIECLm7gwIH2yCOPuP/u0qXLZguL5557zl555RUXp4X7mWeemdNdvjhfeVH9LdGjadOmSS1stBj64osv7KGHHnLZjR071v13kSJF7Pnnn9+siBkzZtjNN99sEydOtP32288eeOAB23XXXW3AgAF266235jwrhtdcc43dcMMNW1QxtjzfmI0qb/ny5XbQQQdZ8eLFc5KrjyRwJWp7VPtWr15t3bt3t2HDhtmGDRusa9eudsYZZ6T8SsW2L6r/fG1QofPnz7eTTz7ZPvnkE6tYsaK9/vrr1qpVKzfWoriEKzt+/Hg755xzTP+ODfHifOX5xrVvvKTbhnTfB195AQMfl1Q721fPcF6xYyKqnu+8807ke+T7LqU7liSARL1HPhapvO+pMo16XoJPmzZt7PDDD9/iEd8YDD983333WZ06dZL6Lmaq3vk5n8WLF9t1111nv/32m9WrV8969epl5cqVS9gkX7p049asWePmT83N/fr1s7p16yasx+DBg+2mm25yddZ3c6eddrLrr7/ejjvuOJdW7brrrrts7ty5VrZsWTdnab7X/L5q1So31wXhxRdftIULF7r8Ug25FXw0viVc6ru/++6727333msHHHCA/fnnn3bKKae4TQC1r3Llyqb35KKLLvJW8ZdffrHmzZu7dPqnevXqbq4+9dRTXZ6ya0qWLLlZHpoD9M+rr75qmzZtMs2XJUqUcM9ce+21tvfeezvbKGwzyDY6+OCDrUaNGpHlDRkyxLVN/w7m8yuvvNLOP/98Z8MQIAABCEAAAhBIj4Bv/ZZOjtuV4CNjcuTIkXb//fc7z4r27ds7o0piwoIFC+z00093HjFFixZ1Rox2jA877DCbPn26nXvuufbuu+86htpFfu+995yBNnToUHvqqafshRdecELReeedZ3369LG99trLG+crz9dRiUSPcNrwYnTOnDn22GOPWYUKFWzSpEmuvkGQkScBpF27dk6s+v77750xF2sY6nkZao8//nhcozxZwcdX3qxZs5yRqYEcG3xt97Vv7dq19uWXX9qJJ57oFgDq82+++caxSCWE2+frP18bVN7PP/9sDz74oL311lubFZ9MP0iw0tgcN26c68dwiIqLKs83rn08022D711J9D5EtSFov49LKn2sZ331jM0rdswnqmeQPvwe+b5L6Y6lROmSZeJ735PNI9FzUYJPojEYzhfBJxHlzeO1aSEh5LbbbnPz3JIlS3I2Bnw5+dKlG6e5aN26dTmbKskKPnr3NKcpjBkzxi699FKT4KENHAk/EhuaNGli//77r9us0bz/119/2eWXX25ff/11TjNbtmxpt9xyixNaUg25EXy06aR6akNDc9Knn35qd999txNI9G2WIKe/6dumdl1xxRVOeNl3330jq6nn7rnnHmeriKm+ZcpH852+sRLB5BEYFebNm+eEMdlJQVB9JFg/88wzOX8LCz5R5Ul0k00hIU3vuIIEn0suucQaNmyYKmqehwAEIAABCEDAzKtLpAsoawWf1157zXnqaLdOC3kZFdoJW7p0qdslk8Eig0eGlDw6dFxAcTKegoW+DM2ZM2c6Tx4tnuXJoh1uhU6dOjkBSAse7Txq5/6OO+5w6bXjFRgx2hktXbq0tW3b1qWT+KMde4kTvjhfeconqn3Kd88993QGq+p+7LHHOgNPO3IqVx48H3/8sTPmZezOnj3bHn744Zz+//bbb91ualjw+fHHH027nM8++6x3nMiAU7uDYxS+8nz94CtvwoQJ1rNnT3v55Ze3qIuv7cHD8doXm1Hjxo2d0avdTx9rX/t8/edrgzynPvjgA9NueJUqVaxWrVqOvUIy/dC3b1+bNm2aG/uxgk+8OF95vnHt45luG9J9H3zlBfWM4hL1Hvn63VdP35hIpp4qN/Y98n2X0h1LvnS+toffldh6pjuJJErn8/BR2mTeaQSfRJT/F685TN5fEgM0F3700UdOFND3xHes1JdOuUfl6YsLlyevRQkS6Qg+P/zwgxNOJOwrHHHEEW4e3HnnnbcAc9JJJzmhSB5hErrOPvtsJ7KkE3Ij+Lz//vuOfXgulh2hTZfatWvnCD5BvYINqrAHcWydw4JPECc7Rlxlp2xNwSe2PLHV3DZlyhTXF/LCQvBJZ5SRBgIQgAAEIPA/Asms31LllZWCj4wzCStazMlg1I5R69atnbgjYUaCxAUXXOAEH+06yktHR2Zig+Lkzq4dPgUZW9pxO+SQQ5zoIBdmHX+S+KMdKXn5aFGnBbcElkcffdQ+++wzZ9ToCIj+JndlLeITxfnK87VPooe8CCRY6DiQjEAZtx06dHA8Ro8e7XYzFy1a5Ny3dd9PIsFHdZ86daprlzwDxO6qq67agpeEJS0QVJaCrzxfP/jKk+ghF/RSpUo5AUveV9rZVPC1Paisb3Go42o6CqCFbGBk+1gn4hk1XnxtUD1HjRrlxEDlHw6J+kG7vtoxVd83aNBgM8HHFxdVnm9cJ+KZTht874rvffAxU1xU231964vz1TPRmIjiEu7n2PfI911Kdyz50vnanko9U51Mop5H8MkUyeTy0Xde8+F3331n//zzj/Mq+fXXX+3tt992R3Sigi+dvBOj8vTFhctLVfDR8WnNRxJM5cWp+gdikbxR9B5rk0bzfzjIQ1Vzi+YZiS5//PHHZsctk6P431O5EXzkWRXM4UGZMuI0d8uLM/DwUdzkyZPt4osvdps1++yzT2QVw4KPuOv/9X7paLfm9q0p+MSWp2+hBC31scQfbawh+KQyungWAhCAAAQgsCWBZNZvqXLLSsFHgoPOpOsfBXnlSOiQGBMbZHToyIQuyA0HGVC6N0JGYXB0SfnIaJRYoV0/GVwKMlL0/zJolE4ePjrSFXjEKG+llYeR7r2RgSNjTsEXF1Wer30SPeSZIrFKQffSyICVy7WMRBlVgdErHjrCFNw9pOfjCSJ6TvfJSHCoWrWqc43XfQjyHgqC2i7xSC7lgZGeTHlB+nA/+MrTPQPygBEDubxLVJELvsQrX9uDcnyCj0Qs7WJfdtllOXch+Fgnal9U//naoHpGiQKJ+kEGv+p+5JFHut30sIePLy6qvETjOmq85KYN6bwPvvIUF9V2X98m+oZE1TPRmEgk+MR7j3zfpXTHki9dorarPonqmepE4nsewSeTNBPnJYHjxhtvdGKHjs9qrtKmieYJeb1EBV86pYnK0xcXLi9VwSc40qWxqqNPTz75pJs7tEmjIGFTAoqCjndpc0dB74barfR6F/RN1SZPOiE3go88jzVXh+/l0X1uutdHG1g6WqWNDwV5Kul7rSPjviCBR5sksmkkgsmrRptXRx99dNw7fMQlnGc6R7qiyhN/CT7yuJYXttqmunCkK52RRhoIQAACEIDAfwSSWb+lyiorBR952uhIjO7hUZBhs//++zvhQ1498syRsaHjXjqzrx2+4FJlPa8dtAsvvNAdhQouCtVu50svveTS6tJCGVzy/JH7tJQ0CSHBXQA6Hy+hJbg/IAxVHgASWeJdahyO85Xna59ED3kbyZNIQV4r8vJRe+WdpPrLw0hBlzDqboNEgo88gGQgBufsdVxIRrF2R4Oghax2gmXABcFXnq8fkikvKOPDDz90x9fE2tf24PlExz+Ce5Z0fE9972Pta5+v/2JfsnAbFBclCvi4qE90D4N2roMLeQPBxxfnKy+ZcR3FM502xHJJ9n3wtcHXdl/f+uJ89Uz0jiUSfOK9R0F58b5L6Y4lX7pk2u6rZ6qTSKLnEXwSEcpsvDx1tOg+5phj3OXvuq9NgoDmyJo1a0YW5kunRFF5+uLC5aUr+AQVlvCgy5nVrnDQ/KFLmnUv3G677eai9Ctw8rLUpo6En+DHGVIlnRvBR0JIIOQE5er+P10gHevhk2y9wh4+wV1k+kYqaE7PlIePjs8deuih7h7D4A6f2PICwUdzt2wR/RKf5l8En2R7k+cgAAEIQAACWxJIZv2WKresFHy0QNCxIxmpsUFGlNy15e6tI1Yy5mTIBsdn9Ks38mCR14h+KSkIurzywAMPdPkqyGNGBooW4To+piNacnsvU6aM2xHVr4MER5vCdZAooTPz8X5WOBznK8/XPuWhSxsDcUYigEQetS842hb8Aobu89EdPqp7EOIt4OWpogWeLhJW0P///vvvTuAJgoy68uXLu53RIPjK8/VDovK0YxsY4BJLdAxLO7W+tvvaFztGJGRJFNPOro+1r32+/lN5UW1QXJQo4OMigVIu+dq9Vt46grfHHnu4i5/VJ1FxlSpViiwvmXGdquCTqG+j3pVEPKOY+bhoURL1nfD1e+x4Cb+3id6xRIJPvPdI5UV9l9IdS750ybQ9qp6pTiDJPI/gkwylzD0jMV53xOiiYs2DOhJ11FFHuc0B3XUXFXzp9E2KytMXFy4vt4KPjv4qD83rqmvg6aP2aANGYq28ZhQ0J2p+l4eRRJB0Q24EHwlQunMo8EJSHbR5o/rrlzLDR7qSrV/sHT7asJI3sDaJ0hV8dARaNo+8n4Ogd1YCm+ygQPBRXLi8sOCj/tDdSfq3Ls/m0uZke5TnIAABCEAAApsTSGb9liqzrBR8dB5dl7TqSJXO8AdCjBbAco+Wd45ciPWrFDoSpMsKJYjIM0LHuALPnfCiSDtrWtzKg0L3AmmRV79+fWeA6dJBGZJyG1fQr3TpHhWVp4Wa/q5d8+HDhzvj6quvvnK/9OWL85Xna5/qJQNMO2a6mFn1U33k8aOdPLlNK05n5tVOeTclEnzESUamhCP9upgEMRl04Z9O1a6pjrmEf8nEV56vH3zl6YideMr1W55bqovyktu5r+3BwI4nUMhFXsKYdn/lpaW8xEQePj7Wvvb5+s/XBtUzShRIph+UPtbDJ/xSx4uLKs83rn08021Duu+Drzxf231964vz1TPRO5ZI8In3Hvm+S+mOJV86X9sDnvHqGcRJBNe3UUc8Y0M6cQg+qU7LuX9e84Yu/9fGiDYGdJePPGSDoEu/dRRa3+Gw94svXbpxQZm5EXw09+oYsi4HVtBcIcFXIpSOounuMwkW8khRGD9+vBN/dERZYzndkBvBZ9myZU6E0lFe/cCCPJF0zEv2g/ojE4KPvgPyXNbGQLqCz5o1a1w9Nf/rWJw8SyV8azNNR9zDgk+4vLDgI746Nq5NMtknCD7pjjjSQQACEIDAjk4gmfVbqoyyUvBRI2Q06JecJArIiJPRpPtztODSPTb6RREJIjLmtOslwUc7aXIvlqdKEGTIBOJC9+7d3c+yy8CVMah8JNwoyGCSC7iCXKm0u6Wgnw6WkSb42u3Sr8UEd+j44lRvX3lR7ZMRePzxxzuvI901pHrIaNdP0cqzSQsueVlUq1bN/dS67jaSOBGEKI8NGZmqjxafunxTxnPY+Nff9MtnYePfV56vH5RvVHk6hifvIBmOapOELO3Oqlxf233t01EZGf9aFChPiYA6/xiEKNa+9vn6z9cGlekTBXz9ENQ3U4KPb1wnGi/ptCE370MiIUX1jcclqm993xBfPRO9Y756ahEd7z3yfZfSHUuJ0vm4RNUzGBMSTHWnlsTY2JBOHIJPqtNy7p/X3KFv/Lhx49xxaM1tukA4CPoOaSGv73BwdFpxvnTpxgVlpir4aF6Qx602aHSvnX5BUvebKeiHFGQf6E4a2QW6Xyjs0atnNHdq48b3y2SJSOdG8FHesk1kZ/z999+uDWKu+9kkzmRC8JF3lX7MQl5M2hyT97GYhYOOae+yyy7uT/Hu8NHff/rpJ2cf6Li67Bx5yUrwjfUoCpenO/iUd/jou/pYfYHgk2hkEQ8BCEAAAhCIJhClS6TLLGsFn3QbRDoIQAACEMgeAvKKlFAWLLx11EhCfKKgI6e6N0RB967pWKAWtwQI5BWB3Ao+6dRTArG8cWODPJvDR67TyZs0EIAABCAAAQjseAQQfHa8PqfFEIAABCAAAQgkILAtBB86BQIQgAAEIAABCGSSAIJPJmmSFwQgAAEIQAAC2wUBBJ/tohtpBAQgAAEIQGCHJoDgs0N3P42HAAQgAAEIQCAeAQQfxgUEIAABCEAAAvmdAIJPfu9B6g8BCEAAAhCAQMYJIPhkHCkZQgACEIAABCCQxwQQfPIYOMVBAAIQgAAEIJD9BBB8sr+PqCEEIAABCEAAAn4CCD6MEAhAAAIQgAAEIBBDAMGHIQEBCEAAAhCAQH4ngOCT33uQ+kMAAhCAAAQgkHECCD4ZR0qGEIAABCAAAQjkMQEEnzwGTnEQgAAEIAABCGQ/AQSf7O8jaggBCEAAAhCAgJ8Agg8jBAIQgAAEIAABCMQQQPBhSEAAAhCAAAQgkN8JIPjk9x6k/hCAAAQgAAEIZJwAgk/GkZIhBCAAAQhAAAJ5TADBJ4+BUxwEIAABCEAAAtlPAMEn+/uIGkIAAhCAAAQg4CeA4MMIgQAEIAABCEAAAjEEEHwYEhCAAAQgAAEI5HcCCD75vQepPwQgAAEIQAACGSeA4JNxpGQIAQhAAAIQgEAeE0DwyWPgFAcBCEAAAhCAQPYTQPDJ/j6ihhCAAAQgAAEI+Akg+DBCIAABCEAAAhCAQAwBBB+GBAQgAAEIQAAC+Z0Agk9+70HqDwEIQAACEIBAxgkg+GQcKRlCAAIQgAAEIJDHBBB88hg4xUEAAhCAAAQgkP0EEHyyv4+oIQQgAAEIQAACfgIIPowQCEAAAhCAAAQgEEMAwYchAQEIQAACEIBAfieA4JPfe5D6QwACEIAABCCQcQIIPhlHSoYQgAAEIAABCOQxAQSfPAZOcRCAAAQgAAEIZD8BBJ/s7yNqCAEIQAACEICAnwCCDyMEAhCAAAQgAAEIxBBA8GFIQAACEIAABCCQ3wkg+OT3HqT+EIAABCAAAQhknACCT8aRkiEEIAABCEAAAnlMAMEnj4FTHAQgAAEIQAAC2U8AwSf7+4gaQgACEIAABCDgJ4DgwwiBAAQgAAEIQAACMQQQfBgSEIAABCAAAQjkdwIIPvm9B6k/BCAAAQhAAAIZJ4Dgk3GkZAgBCEAAAhCAQB4TQPDJY+AUBwEIQAACEIBA9hNA8Mn+PqKGEIAABCAAAQj4CSD4MEIgAAEIQAACEIBADAEEH4YEBCAAAQhAAAL5nQCCT37vQeoPAQhAAAIQgEDGCSD4ZBwpGUIAAhCAAAQgkMcEEHzyGDjFQQACEIAABCCQ/QQQfLK/j6ghBCAAAQhAAAJ+Agg+jBAIQAACEIAABCAQQwDBhyEBAQhAAAIQgEB+J4Dgk997kPpDAAIQgAAEIJBxAgg+GUdKhhCAAAQgAAEI5DEBBJ88Bk5xEIAABCAAAQhkPwEEn+zvI2oIAQhAAAIQgICfAIIPIwQCEIAABCAAAQjEEEDwYUhAAAIQgAAEIJDfCSD45PcepP4QgAAEIAABCGScAIJPxpGSIQQgAAEIQAACeUwAwSePgVMcBCAAAQhAAALZTwDBJ/v7iBpCAAIQgAAEIOAngODDCIEABCAAAQhAAAIxBBB8GBIQgAAEIAABCOR3Alkp+HTs2NEaNWpkLVq0SIlvKuk+//xzGzRokD3xxBMpleF7ONk8k6nnm2++aU8//bQVK1bMTjjhBOvcubMVKlRos+KTLS9jDcwnGWWCSzJ9lFscvnpmog2++vnalxdtD9ctv5WXzLuZ27GRV+m39jhTO66++mobMWKEFS5c2DWrR48e7puWKNx+++2m+imsWLHCpTvrrLMSJSMeAhkjsKMJPh999JGdfvrpW/D7559/nD323nvvWeXKlRPynTJlil1yySX2/fffJ3w26gG98yeddJK9+OKLts8++6SdDwkhAAEIQAACOzqBrBV8mjZtGmncjx071h566CErUqSIPf/88zl9qIWjL124s7WQ+OKLL1w+4TB+/Hg755xzTP9ONYTzXL16tXXv3t2GDRtmGzZssK5du9oZZ5zhskxUz/nz59vJJ59sn3zyiVWsWNFef/11a9WqlRUoUGCzKqXShhkzZtjNN99sEydOtP32288eeOAB23XXXW358uV20EEHWfHixXPy7tatmzPufHE+NgMGDLBbb70155GNGzfaNddcYzfccENCpFF9mzBh6IEwl3TbkKiPfPV54403nJC4fv16a9asmd15551b9J3SR/VfvLjnnnvOXnnlFVesxL8zzzzT/Xey7Ysd1772+eJ8fesb87506ZaXaEwMHDjQHnnkEfdYly5dcr4nuenbZN7NeN+QqLokeleSHUuxLJJ9j3xjMBHfZOMl+LRp08YOP/zwyCSJvrv33Xef1alTZ4cTfKZPn+6+pfpu161b1x599FErV66c4+iL8/VNJvLU91zzSIcOHVxRqt/dd99tf/75p1WqVMl69uzp5hUFCXWvvfZazoaF4r/55hvv8Bk8eLDddNNNrq2a93baaSe7/vrr7bjjjnPpfvvtN7vrrrts7ty5VrZsWTe/nHbaae67u2rVKjfXBUGCwcKFC11+qYatLfjIftFGjt6PZEJu2rdgwQInvk6ePNl23nlne/DBB92YCsLKlSutcePG9t1331nJkiU3q86aNWvsrbfespYtW+YIt776SvBp166dff3118k0K+4zmzZtcuNG9lipUqWcaCxOFSpUMMUdeeSRzsbSGNG4O+WUUxxLjReJUmrrRRddZInGUroV9L1H4qX5unfv3tavX78czlOnTnW23JdffulsLjHXuNX8oA3ISZMm2T333JNTJb071apVc//43gflK4F8woQJVqtWLdP3UiKZb7xI2Iti5qun3sWoMGTIEFcP/TuwKa+88ko7//zznW2e6eAbE77vkr4HRx11lI0bN26LjdRM15H8IACB9AlE2c6JcvSlSzcuWbs6XDet5RctWuTmTc1NDRo0cPOW5litjbUW//TTT51OIBtZ6+8SJUq457799ltn3ygoXvOzbPbSpUsnan7c+Hwn+MyZM8cee+wxN+lrcnzhhRdyGpbKQi7eQkdAmzdv7iYB5Z1qCOe5du1aN6mfeOKJzijVxCojV/VOVM+ff/7ZGWMysHwh2TbIOJLYJANMQoF23Q4++GA34GbNmmXXXnutMzhigy8uFTaa6B9//PHNjMt46X19m0p5YS7ptiFRH0XVR0a1DCkZb0WLFnXjSUbbYYcdtkWSZAWfoUOH2lNPPeXGukSk8847z/r06WN77bWXt/+CAuON63QFn9hGhPvWN+Z96VJhnexYkjF+7rnn2rvvvuuKlmeIdqd33333hO+fb6wlejfjsfbVxccllbEUzieV9ygbBJ9kvrs7quCj78fll1/uNgBeeukl+/XXX923VMEX5xvDuc1TGyXt27e3Tp06OcFHQq8WrTJUjjnmGPvxxx/d4lTfLRk4El8Uf/TRRyf9GdciXWNTc73CmDFj7NJLL7VffvnFChYs6IQfLSybNGli//77rxN277//fvvrr78cr7DQIJHilltusQMOOCDp8oMHt7bgo3odcsgh7pueTJBYk277tPFQtWpVu+qqq6x///4mb55XX301p1htMKk/5VkseyU3IROCT2z5WtzrHXj22WfdmNNmnfpbf5Pgc9111+UYzhonV1xxhUkwl3jhG0vpttP3HmmuXrdunbOrNDbDwprGrTbb1A+a1yX6aENCApG+czLyq1SpYtpc0Pt04403OsEnqg2yCfR90HN6zz788EPH5rPPPnP2QdR40YZpFLN9993XvV/x6unjJaFHdqbefwluChJ85O3VsGHDdFFHpvONCd93SQswfY+0gCNAAALZSSAV2zncAl+6dONSsavDddG3Weu1mjVrunlLjg9af+u7rG+15qiXX37ZnebRv3fZZRfnAa+5+Pjjj8/Z5Bw5cqT17dvX/ZNuyFrBZ88993RG28yZM+3YY491ux5SvYKgSVETZKzgE5VOSpomwY8//tgpZjIUZ8+ebQ8//HBOngI5bdo0ZwyFBR/tMulv2jmUgKPJTIZsMnkGmUuZ01GQ6tWruwVnVD2l9n3wwQe2ePFiN+lrt0Y7lArJlBevDTLAlYcMpdigHSHtxmqgpRKnZ6O4hPPRTqx4BUczli5davfee69p8MogkmEp76fguIfSxutb/V1ptKsrA1+GiFRSvTg+Lr72+drg6yNfXTRutCMvzw0FLYokAEmo8NXTF9erVy+n6LZt29blKSNRz6uOidqn5+ONCV/7ErU96N/Yvo0dP+Ex7xsT6ZbnG0vaWZXBfMcddzhlfO+9984xQn3l+fL0vZtB++Kx9tXFx8U3lpJ5/+K9R8l8Q9KdTKLSJfLwifruhvPbEQUfjdtDNAed3gAAIABJREFUDz3UiR0KElTl1aDvuTwZouIkNEeF3Oap90MLXXlb6Z0KPHw0b8qgCYIWuBJ8ypcv7xa2Mm4kbCQbYgWfH374wQlK2kRROOKII9xcLk+V2KBjQBKKVMclS5bY2Wef7TwO0gm5EXz03mvO0uJSYpP6b9SoUU4AqFevntutkxGpICFGorQW/mrrM8884+bXIIif/lG7fe1TO5W/7AexkcijOVJBfXXBBRe44/LqLy32ZWsEQRs/srFklIaPussLSfaBjnX9/vvvztsmCNoc0zdWtpQMVc3t8vwKBB+NFaWVzaW5W21WkC2lTS31YbAhJfFLdoDmFQmKCvPmzXObJ7Vr13YePoHgoziNZQkiEq3ENhAvgropD9kXeh/CYkl4LPlYy0NGHrqqv+w1vXeylbSJoDon8/7JO0ntDgs+2gDUxpvsQXkgqX3ympE9q/bJVhBTbRTpHZJ3TKzgE26DhJ133nlns4WAvrkaJyonaryERbJYZkoXVU89q7S33XabG7/azPr777+dja7/l62p/lffql1hwcc3PsOCrEQsLYAkcCtIgFK+8iJUvSTuyhb3jQnZzlHfJc2DCD7pfBFJA4G8I5Cs7RxbI1+6dOOCMqLWp1FUwoKPTmRontL3VU4YOr0j73bNm7FBGzCan4N1u+YDfQc1p6Ybslbw0U66JkQdadLELUMnMC7V2CjBJyqdjKfRo0c7Y0gGmCZyGT6B4CPVTzsTKlOuVIHgowlKC+zAJV07Fa1bt3aGRKI8VU+5ust4lRETiFNacPraJ6NQi/ywwae8EpUX1QYdB9IulyY/7fjI6JMRriAjRoqjjDhNgjrKpZ2xRHE+LuHBKCNAXk1B32kRLuNLdZDgIwNXBoPcnH0vlOov40jG5/777+8MaRk6Mox8XHzt87XB10e+uqgNEma0A60FjgxE1Vm7ab56+uLUThk76kcZ5DIAZczoeIevfapL1JjwtS/R+Az6KbZvg7/HG/O+MZFueb6xJKFNO4ry8pFQo7EvdmLmKy/R+Ix6N32sfXXxcfGNpWTev3jfyETfkHQnEl86n+ATNT5j89sRBR8xOPXUU50HpuYbfXf0XdExYS2ufXG+/shNnlrkafGtjRgt4sNzclCmhAGJLPpGK+i7LS8GvVsSiSTc6PvlC5ozdXRVc4dEJi3o33777ZyFswSR4Psf6z0pDyjNZZrX3n//ffvjjz82O2KcyhjPreAjY042x4EHHuhEHLHRHBwcOdM8LMMv7FETLEa1aaCFvuZJiQASu7QI9rVPC3/ZL9oQ0WJZ/aONMwkp6g/ZO7ItnnzySbfpFdylpSNI+n9x166ixpjKCgcZmz/99FOO4KM+1XiUsap/q36BKCcBSIaubAlt+Cg/HcmTl3OZMmVc3+rIj+ZvLe61kJcwEDsuVCftjsYTfFQ39bFEH9UtLPjIE+riiy92IorEh6ixlIi1xBjlIVFJgpzmkkC8Seb9iyf4qN4Su+T9I+NdNpCCytFRIwkl6h9thKnftdmjcRDVBvWphJXLLrssp7skHEl8kYgWNV5iBZ8ws+DOpHj11FhR36rfNcfKU0xznHarVab+v0aNGk5sleAYFnx84zOovPpEdrbKUB8qqP/1nmh8yebRfKA5MFbwCY+J4Nh7vO+SOCP4pPIl5FkI5D2BZG3n2Jr50qUbF5SRjuAjG0ZOInJWkFAtW0BBNpHmAK1T5MEcHN9SnDZF9H3VEWutz5VONkFwpD+d3shawUeeMMFEKGNBk5YmCx90LeSi0gmqJp9gstbErZ2C4I4PTSyaMLWDqrsHAsFHBpMmdv2jIOASjpQ+UZ56Xgad8lLeMnwVfPVUfNSiMlF5UW1QXaUWSjDQTqIGlowveU5p0peKqHbKgJNYoZ1ECWK+OB+XoI+0CyZRTS5rMgDiBbVVZ9zlRu7rW6mbehm0+IkNPi7ptsHXR766BGNEixO9zFr4yBBV8NUzUd+Kj8aePhoy5sVT9fC1T2VGjQlf+xKNT+Xr69t4Y943JnJbXpB3eCzJyBR71VOGrBaaOtIltTyZ8uLl6Xs3fax9dUn0rqjP442lZN6/eBNTonGWziSSKI1P8Ikan7F57qiCj8auPAS0aNWiVkdVJJjrjhJfnK9P0s1TCy3NJZqHtcMeJfhoES5RPvBI1Byrhbs8TZRWGx+aj3Q0KyqEPXz0DuuMuxbBmqsknitowafdOgUdP5HXjIK+iZonxEnviebeVLyLwnXKreCjNur9lzeIjlKrHfKSkdChoLpps0N8wkGcZdhps0siiYSHYHMqlfbp/dIiWQt4ecuob+Txojv9ZA8EAotYibk8o1SmvhOxF6vHCj5qi/IIjs2q/lpk6/uv7608S9TWwDNbx9b07ZV9pftTZEfFikqx4yGR4KNNB7VBdx/oOFPgfSTvJnFXmYnGko+16qNxLI8pjWkJU0FI5v2LEnzkmSubUnNSMG4l+GhhIJFT/aD5Xbajjt6HPXxi3wcJLxIUtWgIgoROeQbq2xE1XvT3KGZBPvHqGc8rSm3QZmkg+KhOWqBoB1ubXlFHusLjMyhTgqTKDd5t/V3jVwsfeb2r/fIik5ArETPs9aVngzERiEVBvuHvEoJPolmbeAhsewLJ2M7xaulLl25cUE46gk9wpEtrQglO+lYHgrQcULQukWCu+Ur3EQZe2rKd9Y3W90/f1HgncVLppawVfKRsyZNBQR4DMkLCbtlRHj5R6bQDJU+LwMDRjo0mRBmjOq4lo0qqm34ZIiz4qGM02QeGiXYaNfFLgPLlGe6E4N4VHfWRYSKjx9e+KMEn3TbIUJTREJypVns12QdGZ7iuGnTaEQzuToiK83EJ0qgdMpC04xME7VaqH9SXUjB1Bl87tMGFxHouXt/KiNSOT+yujZ5Pth/0bLh9vjb4+shXFxklMkDURrnGyxtMd0io3r56ptIGeWlIrIx3CXa4fb5x7WtfovEpjvH61jfmfWMi3fJ8Y0kfVYmbwf0eWpRIONa49pWXaHxGvZs+1r66+Lj4xlIy71+89yiVcZbKROJ7Nkrw8TGLzW9HFXxiOch7Q3NVvIWyL87XP8nkqfQ6mqp5T0el1B/xBB+J9xq3OqYXJehoDEr0CR8Bi61f7JEuxcv7VMaQPDrCQfOVPGbkMbHbbru5KIkVWjhKbJeYEfuDB8mO7dwKPvKs0QaKBB8JZhJuwoKPFqWaT2LvNwl7X6jN2iwKPxPVPnkSy3jUERt5SmhRLNFY5Ytf4FErJrILJNqon+TdrDlZC2l5JcmbRd6Q4RAr+KivJUCKcxD0bVVZ2uiRkCVxIAhqh0QAeWvom5DMMbtEgo/6XcKSNkFij3QF5SYaS4lYDx8+3M3hmlt990DFe4+iBB/VWx5YuodPHuQKgeAjryjZiuofxcUKPkG7gvdBc5LexcAzW/G6/1E2gvoj6n2Id6Qr9r2IV0+9ZxIvw+NDR/U07gLBR/OsbGx54Mj+DQQf3/hU2XpeY1Q2Y3gnW2NPIlAQ1A/yNtP4ixV8gjERviQ69ruE4JPsF5DnILDtCCRjO8ernS9dunFBObkRfJSHvp3SHcIbJfq7dAZtzsijU/aVgr6D8mSW5qDj8RdeeGGuOiNrBR994AOBQgauFtDhI05Rgk9UuuAoVjAJ6D4fuR1r0hJEuVlr51C7B3Kd32OPPdykqQ7Q8aN4F0768oztFYkrEpu0o6dJ2Ne+qEVlum2QQaw85Z6rIANQRmewW6U2BwaxjBoZSMHuSlSc+iaKS9B27bRokIa9cqRSyhCVe7J2/mR4ytBJ1Ld6AVQXHSmIDYn6IZ02+PrIVxfVT7ttYqOgHW0ZMTLefPVM1IZwm1U3Lb6CHdio9vnGtfo+agwmGp+qS7y+9Y1535hItzzfWJKhrHdbRrWOEGi3VAakdvx95SUan1Hvpo+1viNRdfFx8Y2lZN6/eN/IVMZZrmaWUOIowcfHTL/kFA4IPua8fLSolWgQG3xxvn5MNs9AVAlcjrVgklAgISIQnuV9I29OLcDCv/IU/j6pLhJ85LGo709UiLdI14JWC2gJ/xJmA08f5aE6KF/thinofdN3V+KUvBzSDVtb8NGGgDxIgrttwvVUW7T41bdLRl9YtIrXPi3wJQRr7paBqKA81H55hGrTQeJFEFSm+kteExLR1Mc6ZiUvE7GUYRq+Dyqeh4/KCt8DpHlJwo48fHQER5tqQT/J41JChvLRxpfqIm8WX/AJPhpXEpACoSQVwSc8lgJO8VirDI1x1VNHlGSnxBMPo96jeIKP7EsJSDq6pT7RXCXP86Ad4WOSPsEnaIPeQ80xwV2Pao/aIltX70rU+5BI8Imqp8aFRD4J9go64iUPHy1gwoKP3lGJcfq3PAI1JqLGp8aDfqRAPCQWxf6iY7KCT3hMyCtKId53CcEn3S8i6SCQdwR8dryvFr506cYF5eVW8NG9dzrmLBsn1o7RFQfaIAruvJUDiuZmbWhokyzWLk61J7JW8NFOgHYIZGDKu0c7ToHHjxoZJfhEpdPkJPdS5amJWxOuPEtid7FiPXz0iyTardTuhSb9YAEpQciXp27/l1Al40deBnLVUlmBh4+vfT4vgnTaoIlUE79EM+0o6UiXFmEyCGRIapdPbrfyXlKcDBzV1xfn4xIMQg1UGfbhXTHlLSNXhprqJWNXimYiwUfGhwxGGQ4yArW7o3tZlJ+vH9Jtg0SBqD7y1UWuexqb8hbTxarKp379+m4M++rpi9NFX+ojGUsykmXMffXVV84Y97Uv/DGIHde+9vnifH3rG/O+dOmW5xtLMsBlbIubgr4fcjnXe+srL9H49N3hE7QxlrWvLj4uvrGUzPsX7xuZzHdQ4qTGrHbpY0M6cYkubVYZscxiy91RBR8tVrTZoKMq+obo2xfcd+aLEz/tiGtnW9/28CI1N3kG/RLr4aMjWjJIVJ4EVgUtvvSP5lr9gpDmW20oaHdL3h36PkaFWMFH3z0dQ9YiWUHvsDZj5C0iLxZ5qOjoo36FT0FeKhI7JGhoLKcbtrbgI+FdQrTao3da/RsIJJqvdYxN/R7cuRe0I1775EEkcUjHeSQC6F2XwKLvngQFeaCo34I7etQn8sDRAl5eG+Fj1ZqjZQuEj5pF3eGju2a0UFe5Oh6luUmbadqQkGEb/Dy7xqEMWc1bmsM0/6u+8lZTW/VcrAAUJfjIVpHoEGza+cQL31gKDOgo1hJSlF7jWu+djmEFR/MTvX/qq3iCj8axjjeKr450ib3sn1QEn/D7oPGjeknw0lF8xenuHtkGgSdgvPGSSPCJqqcEnuBiaY0l9YNs5FjBR+0PfvlNdre83aLGp74Nbdq0cVyCI/BKr4u59Z1IRvCJHRNB+fG+S/xKV7pfRNJBIO8IJGM7x7NJfenSjQtanRvBR9emyNlBdoo8ETUn6j5Gre30fdT/62SI1rlB0PwvzULzeG5DVgo++uBrIpESpzNvcl0VpLCLeDzovnTyKtHACC5C1O6TzpBrURUO8RYemqx0dk4TijpKRo0UN1+emlBkkGryVb0lbOjsoEKi9kUtKnPTBhlh+lUrtU+GiyZzBR2rkleDjAPVU6Kadku1QPDFKW0UF8VpsaFydMY6vNhQ23SXkiZyiXkyxuWWm0jwUZ5BWh0D086tXg4Z/D4u6bYhmT5SO2LrojEiztqFV7u16NBzMnJ99fTFaddMRrU+VDLuZLQHd1Elal8wtmPHta99idoe1be+Me8bE+mWl2gsyVgPjhvIjVPfkUTvX6I80xF8VGZUXXxcfGMp0fun+Khf6Ur0HZTYq4WDFiSxIZ04BJ/0p2kJ/PKYkaGgi311V03wPfXFqUR98+WJF1746e+5yTNoSazgowWZvEMCjxB9z+TdqGNbOkqp53VhsQRXfbd93j0qQ4tszUMSj7Tg0918Eg90x56CvBk0J+teGs3FEi8Cb4agjnrfZST5hKVEPbO1BR9tHsgukDu3fpgi4Kp6yWNHmyY6IhdvZy+2fZpTNT6CX3GTCCCBTZ692miSx5O8fbSLKI8f/bfmX4kvEndlEwVB3yv9sITS6nshcUP9J+NUgkfgfS2xTZ6IusRbx+m0oA9+pUtilX50Q+NA5cmI1bytIKNWdpREAvWPPA/lCRzbV6q3bDaNI9VfXi3BRdY64qZ5UWJoIsHHN5aiWMv21PwtFvLO1r1H+v5JpBGHRO+f8o0VfHQ9gXZwJe4FNoG4qw+0gSXvqigPH18b1KcSedQfwX0PwcXLUe+Dj5mvnhKgtRmm8mSbyGtdwo685sMePkG5YqD3U2MtanxKRNIYkH0T2PkSizX2JC75BJ+oMaHyo75Lsj01tuTdFg4SSfWtIUAAAtlBwGc7q4ZRNqkvXbpxUXa1j5TsEs0lEnT0zQ9+6Vv2kub/4FerFa/5XptA4cubg1/tjmePp9pDWSn4pNoInocABCAAgewkoMWMhLJgMaeFgo6MJAqa+PSzxMECUQvL8K8ZJUpPPARySyA3gk9uy94R00vwkEgnUUSeRxI5tGkmY5iQmIB2iuXVle4l5YlLiP+EhDEJPoGgl24+pIMABCAAga1DAMFn63AlVwhAAAIQgAAE8jEBBJ+87bxly5Y5LxB5hWmXM/jp77ytRf4tTUcl5bkl7zB5d8V6+WytliH4bC2y5AsBCEAgMwQQfDLDkVwgAAEIQAACENiOCCD4bEedSVMgAAEIQAACOygBBJ8dtONpNgQgAAEIQAAC0QQQfBgdEIAABCAAAQjkdwIIPvm9B6k/BCAAAQhAAAIZJ4Dgk3GkZAgBCEAAAhCAQB4TQPDJY+AUBwEIQAACEIBA9hNA8Mn+PqKGEIAABCAAAQj4CSD4MEIgAAEIQAACEIBADAEEH4YEBCAAAQhAAAL5nQCCT37vQeoPAQhAAAIQgEDGCSD4ZBwpGUIAAhCAAAQgkMcEEHzyGDjFQQACEIAABCCQ/QQQfLK/j6ghBCAAAQhAAAJ+Agg+jBAIQAACEIAABCAQQwDBhyEBAQhAAAIQgEB+J4Dgk997kPpDAAIQgAAEIJBxAgg+GUdKhhCAAAQgAAEI5DEBBJ88Bk5xEIAABCAAAQhkPwEEn+zvI2oIAQhAAAIQgICfAIIPIwQCEIAABCAAAQjEEEDwYUhAAAIQgAAEIJDfCSD45PcepP4QgAAEIAABCGScAIJPxpGSIQQgAAEIQAACeUwAwSePgVMcBCAAAQhAAALZTwDBJ/v7iBpCAAIQgAAEIOAngODDCIEABCAAAQhAAAIxBBB8GBIQgAAEIAABCOR3Agg++b0HqT8EIAABCEAAAhkngOCTcaRkCAEIQAACEIBAHhNA8Mlj4BQHAQhAAAIQgED2E0Dwyf4+ooYQgAAEIAABCPgJIPgwQiAAAQhAAAIQgEAMAQQfhgQEIAABCEAAAvmdAIJPfu9B6g8BCEAAAhCAQMYJIPhkHCkZQgACEIAABCCQxwQQfPIYOMVBAAIQgAAEIJD9BBB8sr+PqCEEIAABCEAAAn4CCD6MEAhAAAIQgAAEIBBDAMGHIQEBCEAAAhCAQH4ngOCT33uQ+kMAAhCAAAQgkHECCD4ZR0qGEIAABCAAAQjkMQEEnzwGTnEQgAAEIAABCGQ/AQSf7O8jaggBCEAAAhCAgJ8Agg8jBAIQgAAEIAABCMQQQPBhSEAAAhCAAAQgkN8JIPjk9x6k/hCAAAQgAAEIZJwAgk/GkZIhBCAAAQhAAAJ5TADBJ4+BUxwEIAABCEAAAtlPAMEn+/uIGkIAAhCAAAQg4CeA4MMIgQAEIAABCEAAAjEEEHwYEhCAAAQgAAEI5HcCCD75vQepPwQgAAEIQAACGSeA4JNxpGQIAQhAAAIQgEAeE0DwyWPgFAcBCEAAAhCAQPYTQPDJ/j6ihhCAAAQgAAEI+Akg+DBCIAABCEAAAhCAQAwBBB+GBAQgAAEIQAAC+Z0Agk9+70HqDwEIQAACEIBAxgkg+GQcKRlCAAIQgAAEIJDHBBB88hg4xUEAAhCAAAQgkP0EEHyyv4+oIQQgAAEIQAACfgIIPowQCEAAAhCAAAQgEEMAwYchAQEIQAACEIBAfieA4JPfe5D6QwACEIAABCCQcQIIPhlHSoYQgAAEIAABCOQxAQSfPAZOcRCAAAQgAAEIZD8BBJ/s7yNqCAEIQAACEICAnwCCDyMEAhCAAAQgAAEIxBBA8GFIQAACEIAABCCQ3wlkteDz5ptv2tNPP23FihWzE044wTp37myFChVKmvnnn39ugwYNsieeeCLpNNnyYKpt79ixozVq1MhatGgR2YRM5plMednCclvWI5vGoK8u4bi86NtMcvGN63hxnTp1inxX8qLt23I8bouyr776ahsxYoQVLlzYFd+jRw/3PU8Ubr/9dtM4UVixYoVLd9ZZZyVKRjwEMkYgWwSfdRvXW5GC/70/BAiIwEGfdrS3jupi+5atntVA8ks9sxoilYMABCCQSwJZK/jMnz/fTj75ZPvkk0+sYsWK9vrrr1urVq2sQIECNnbsWHvooYesSJEi9vzzz0ci0GLhiy++cM8mG8aPH2/nnHOO6d+5CatXr7bu3bvbsGHDbMOGDda1a1c744wzcrJ84403nBC1fv16a9asmd15552ubQrptF0L1aZNm0YuiHx5RrXTl6cvbuPGjda7d2/r37+/rVy50k477TTr1q2bFSxY0BXla7svLqinr49i45YvX24HHXSQFS9ePKeZqouEsQEDBtitt96a83fV+5prrrEbbrghYdfPmDHDbr75Zps4caLtt99+9sADD9iuu+66RbrYMfjcc8/ZK6+84p6TgHnmmWe6//Yx89UzEetwhXzvQzgu0VjKbf+pTuHyUmlDLGDfuI6Ku+666yLfldy0PapvVWdfXNRgS8TF9x1MZnxm6luX6GWR4NOmTRs7/PDDN3s00Tcy/PB9991nderU2eEEn/UzZ9vi+3rZ+inTrUidfaxC95usYNkyDo0vztcnyaZbeMt9VmTvWlbmsgtddkse72srBn5sBf7/O15wp/JW5b0Xc4pa/tpAW/7Ge1agSGErdeHZVvqC/75t4RCbZ1Q9V301zBZ3f8QKlC1tZgWsUIVyVuaKi6144yNdkrV/TLIlDz9jG+cvsgJlSlmZNudbieOPtmXPv2GbVq22stde9r96vfm+bVy8xMpedWmiobpF/LYQfPpMHmxf/furDWjY1dVn6NyxduXop+274x6wSsXK2pdzxtjNv/azmSsX2MEV9rD+DW+2skVKumervt/K1m3cYP9ZEv+FX07uZbuV3Dmy7WMXT7eDPutopQuX2OyZ4cc/ZPuV2y1lZkowf81Sq/5Ba1tx7gArVDD5Tbozv7vXbq1znh1ZsbZNWTbb9ixTzRavXW5nD7vPvm56X1p1eXXaEOs75XMbetz9OekvHfGYNdq5jjWouG/Ctj884V17dMIHVrRQYeu0z5l2Xe3/7LhxS6bbdT/3td8WT7OqxStY3yM6uHonCqMXTrIOPz1rs1cttPJFS9ltdVpYi90bJ0q2RbyElPcb32Y1S1Xxpr3xlxfsmcmfWKEC/9lfVYqXtynN+rr/zlRdfBVItp5ReaQ7Pictm2XHf327TTi1t5UoXMxWrF9t9T7taCNOeNhGzJ9gz0751D46ultOsR1+6mP1K9a2i2s2SbkvSAABCGwdAi9P/cpu++1Vl/n99S5N+v30pUs37ueFU+yW3162ogULb/bt8LX8gMHX2II1y6xwgUKmJX7TKvXs6UPbW6nCxW3jpo1uLh/49w+2YdNGa7zz/tbrkMutZKFituuHrW1qs+etXNFSLvsNGzdYjY/a2vhTn7Ey/z/fp0o8awWfn3/+2R588EF76623NmvTnDlz7LHHHrMKFSrYpEmT7IUXXohsc6qCj4SZ5s2b27hx41zeuQlr1661L7/80k488USbO3eunXLKKfbNN9+4ei9YsMBOP/10531UtGhRV6Z2rw877DBXZDptT7RQjcrT18Z0BZ9+/frZyJEj7f7773feWe3bt3ftl8jia3siLm7Qe/ooXtysWbPs2muvtYEDBybsTglmjz/+uNWtW9f77KZNm5x4165dOyfYfP/993bwwQdbyZL/Gd3hEB6DQ4cOtaeeesqNWQl95513nvXp08f22msv8zGLzTNcz1TSZULwyW3/BW0J1yWVNsSy8I3rqLh0x7Wv7b6+9cX5BpqPi+87mMz4zOS3LtGLFSX4+L6RsXnuqILPvMtusNKtmluJJg1t+Vsf2LpxE6zCPTc7PL44X58kk27Vt8NtUZd7rcyVF+cIPovvfdyKH9fYijc4dIvsVw0ZZive+tAqPHCbFShezNb9Pt6KHXHwZs/FyzOqnhJ8Vn873Crc3dk9snbsBFvQ8Q6r+uXbTnD699zLrVynK6x4w8Ntw7wFtrT3y1b+9utt/fSZtvDG7lbl3f/ZBfOv7mplO7azovvulWiobhG/rQSfYfP+sNca3GgTl/5jpwy9ywY17pYjvnw/7w+3aN+rzC7W8adnrXDBQvbowe1c3SX4jD3laScMJRu0oO7wcx/7pmnPZJMkfE6CT82P2trycwckfDb8wM1j+tl+5apb61rH22nfdrd3Gna18Utn2nNTPrU+h1+TUl7BwzKU9/3kKut7xLV2bOUDndBy5Bc32sTTnrXJy2Z72z7w7++t18SPbGDDW6xk4WI2fP4EO77qQbZq/Ro76LPrnHF+crVD7du5v9ulPz7uDPRg4y6qsrU/bm+PHdzOTt3lMJu1aoFbzLxwREcr+P+CTLKNTFZIaTvyCWuxWyM7qdohW2Sdqbr46pxsPaPyyM34bD/qaSeIda1zrt077m0n+vSsd6kN+mek9Zv6lb3T6JacYhF8kh15PAeBvCEg0b/Bl53txxMedgUe/vkNNvLER22P0lW9FfClSzfun5ULrNvY161i0TL2x9K/bVBILPZVRoLP+41uc/O15o0rqvdaAAAgAElEQVRWIx61+pVq2037nmNvTv/W+kz+1D47trsVL1TUnpz4ke1ecmc7s3p9a/H9A3bGrkfkCFza+Hl4wnv24dF3pA0/KwUfeUt88MEHtnjxYqtSpYrVqlXLXnzxfzuJau23337rPCXCgo92xOXN8/HHH1vZsmWtSZMmNnv2bHv44f8Gy2uvvea8TlatWuWEmJtuummzyblv3742bdo090wg+CxdutTuvfdeJ2CsW7fOCRfy1gmOJyTKM+iZxo0bm46XVK9e3eUtzxJ5bijoiIkEIC3k0227FrF77rmnff311zZz5kw79thj7Z577rESJUokzFNtu+uuu+zff/91XiryTJKA4cvTFydmWlBK3FJQH6lO8mLytd0XF3CM10e+uAkTJljPnj3t5Zdf9r4kv/32mxsPwRES33j58ccf3Xh89tlnt8jTNwZ79eplpUuXtrZt27p0En/0vFj6mIULia2nL52vLr44X9+m23++8nxt8L1/vnfFF5fuuPa13de3ifo96vuSzJiI9x30jc9k3qO0Z5OIhFGCT+zj4W9kbNyOKPhs2rDB5px4oVX7qr/DsWndOptzSkurOvh1s4IFI+MKFCkS2YW+PIN0G5evsPmX3WBF9tnDCu+xe47gs7DLvU58KnrgflvkP/+qrlau0+VWZJ8945YdlWdURWMFnzWjfrUlDz5tlQc855LMObml7fz6k1ao4k5bZDH3/PZW4Z7Ori4bly6zeW06WZWB0Z7AvvGeG8Hn/j/esW/njbUFa5baIRX2tDUb19l38/6wV+vfYDVLVXbG68wz++UUX37gBTbzjJfstenfmAQfiQKNv7rZnjq0vRMZ4oV+U7+0b+aOtX5HXu+ifYLPyvVrrOuv/az/38Ns46ZN1rLGsfbQQW1swtKZXtHjl0VT7KrRve3vlfOcMdrnsGusXoVarrwZK+bZNT/1thkr57ldyecO72AHlq/pPHyiBB958XTb/wI7dKe97Lt549yu5o8L/rRHJrxvp1Q71P5cNtPuPqCllX/3Avug8e22ZN1KV3an2mdZVBsmL59tzYbebS1rHGODZ//kdkt71G3lxBiFl/760l6d9rUNadrDCSwlChW12/c/3xKJCU2G3Or64aAKe2yBf/KyWc6ID0LZd1rYtNNfsDGL/7Ief/S3r5r0yIk7Y+g9dtO+Z9vRlQ9wfTTmpCesaon/7KMg+MZLg0r7mvqh/ahnbP7apXZy1UPs+/nj7b1Gt1qt0lWteP9z7JNj7rSOPz9ns1ctcgLSWdXru6zPGXafdd73HFMesSGdutQus6sd/Nl19tmxd7vjZBK7Oo95yXnOSLTy1TOq/yRaRo2lRH2k+CtGPWUzV813Y+mv5XOs92FXuz6TuHfY553s26Y97dght9qYk59wYiiCj++rRxwEsoNAzz8G2L+rF9vjh1zuPFwK9z/LfddvrRN9dYlq7kuXblxA5NPZP9lTkz5OS/BZtm6lXTj8YTdPXVjjGJM375hFf8XdzBgwY5i9Pv0be7/x7a5oeWrWLV/TLq11XNqdk5WCj1ozatQo00JJgkq8EG+ho2dHjx5tjzzyiC1atMgdldK9NhJ8hgwZ4hbYekb3AF1yySXWunVrJ+AoTJ8+3XlsSJRp0KBBjuCjYyESAS644AIn+HTp0sV54uh4WaI8la+O/AwePNi0UA+LU1r0H3fccXbIIYc4QUJH03RELd22axErjwbVX0fg5FVzxBFHWIcOHbx5Tp061S666CJX/v777++Erc8++8zuuOMOJ0RE5ZmovHCfiVm9evWsZcuW7s++tvviovrI139a/OqIVqlSpZy4Ii+jK664YoshJXFMAlXAy9e3Op4jbhIH5UGksXHVVVe5PH1jUFwlFCm9hLjzzz/fiZmPPvroFvWJZRY8EFvP2IThdL66+OIS9W06/ecrz9cG3/uX6F2J+obkZlxHtd3Xt764RO3zvUeKi/cd9I1P37uS9iySIGEiwSfqGxnOdkcUfNT+uS2vcYJLieMa2foZ/9jccy+3Kh+9bIWq7OyN83WJL0+lW9zzSSuyZ01bP/tfK6jjUv9/pEuijo5LbVy42ArX2s3K3djeCu/+3zHW2ce3sDKXtrAVAwZZoepVrfyt11nh6tVyqhGVZ1Q93ZGuux+1guXL2sZlK5zYVenZB61onX1ckmUvvW2rv/neyt3Q3orWq7NZNkufe01nZK1s+0ts5eAhtm7iX1buuv88YFINuRV8tPiXwFPmnRY2sNEtNm3FXLewva726XbE5zdGCj46tjVr1UK7tFZTu3Kv/2yUcFi0drn9tHCydf31ZXvskHZuoaugBfymTeZcxxWeP/xaa7brEe6/W//4uBM6eh18ua3btMGu+/k567Jvc1u7cX2k4COPiH0+vtKJPKfveoR9+M+PdvXo3vbnaX2cwCNPmS77Nbdzd2tog2eNtpt/fdl+PfkJW7B2WaTgc+fvr1uNUpWtda3jrOK7F9mkZs+5tgz59zcnUjww/h3rVPtMu2nMS3Z8lXq2U9Eytn+53Z1HTFQbNtomJ0L0rHuJXV/7TJu5cr41+KKz/XTSY1a5eHlbv3GDa8ezh19j7UY+ab+c1Mt2KlYmoeCz07sX2i37nWdPTRpke5auZn0P7+COmcUG9ekRX9xgc8561bnp1/qonX1//INWvWQl0/1Le398pf15ah8rVqiI3fdHf3v37+HOO6jhzv8buxJ8osbLXQdc6NqnO3skZNw19g27Z9zbNvm0Z53gU7T/2XZRjWPsif9r7zygpCi+PvpIIpJEAQMKCAZEMIABIwZEQVEwYAADKGZRzApGTKgomMCcFQyomFBRMQAmFMGIEVBJShBQguE7t/hq/k0z3TM7OzvMzP7qHA6w3V1ddau2Z/r2q9etTrIxsyfbeRPvdxFMFKQV48iNU/PaDd0+m/2/qMqkLQO2Pd6GT3vXbp/yoo3e62onVB7Y6Szbfp3N3BPsuHZGjR/tiZpLXyyYFjk/l/6z3LZ65XQbuv1pTooOm/qOdXt/oE1of0tC0iE5H/rxTTffiO6hSPiU9Eqo/UUg9wS6jx9o7dbfxkV8Ev2J2Odz55Gd49NuxB2X6Tbf+0yEz/xli62CVbBfl8y1Lg3aJCILZy2Z5z6nejRpZ70365RYvsW5kOMbj+xhUzvdZzWqVLPmL5/mPlPqrMEy98xKUQkflkYRReKX5PCUn+VUCCBu5Dt27Oj+UIiuQQ6xD6V79+7Ws2dP22mnnVzOl6glXdxEstSCZNKp6qReRAB1UTdixRfOP3z4cJevp0uXLkZeEV8ykV3cxBI9xA0/hdxBLE96+umn3f+j6mQpGdFQLHsKl7g6U53P1/Xdd9+5/B3c9PolT3F9j9sWN0ZR27755hsXLcZYkU+IG/ZevXo5GegLS2AQg+SmadSokftx3NgyZ8gtxY31+uuvb8cdd5ydffbZLqoqbg5SL/OGPhL2TTQV52MMgiUZM7Yna2fccXFtiduWamwzGb9UXOLmS7CPwd+/uHkdt6008zqu73Fjm864+zb760s6cyKZ8ImbnyW51q1yQcjwB6mET9Q1Mni68ip8lv84zRbcOMQtVaqyaWNb9vk3Vn/4UKtUdx2L2xY3VHHHLf1ksv1x+/1W996B9sdt968kfP4Y8rCtudsOVqVFM/vrhdddvp56j99htmy5zdjzUKtx7GFWs1c3Q9YsHj7S6j1wi2tGXJ1R7QxG+HDdW/LmWFt4/xNW76HBVuH/k38vee9DW/jgcFcFy7vW2GpF/pTl3/9k8y65zuoPv8vmXnyd1Ti6c9KopHSmc2mFT8UKFZwQqTviaJt+0AP2zM/j7OO537mIC25woyJ8zpxwl4sKIqS771ZHrNLUp6ePtSHfvezkzsNt+jixQImK8Plj+Z/W4PnjbU6XR13oeLAky5FCVAtfQkdMH2c3fD3CRW/4sv2rfVyeHaI7Dh87wL7oeEdiW6ORPe29dgOsWqWqkcKHOol86tVkP2v75sV2e+uT7a9/ljkp07Xhbi6EnyVI5MO56othjsO5W3S2emvWjuwDUUrbjDrTLSHzya2Jqjmq0R7uSSrlnu9fdZEoxzbey25tfbL7WVzfkRc1nulqFzY71BAuT00fa7dOecE+aD9wlfE4ZvzNLp/SOc1WJJXn5mSdqjXswi0PcyJs2LR37aE2fRLHvfTrR3btlysivGG947qbG8Inar4Q+cS5X2p7uTuGm4EaTx9u3x14t1veUGV4Z5t60H22YbV13feEak8dan8eTn0Vrd+kR+yADXdw+Wke+HG03fzNczZp/9sSS8hK2haetlOIqPLRa3dsv+KB16szPolsJ5E1UXPwywXTIufSgmV/rpJnyc/PN2d9tko0FZFyY/a+NiF8Js3/0eXu+WDfgY4zRcInnauf9hGB1Uug87tX2zGN97L/zOyrP6Zb81obu0hNH/US1bq44zLd5s+VifDxS7pmL5lv3cYPdJ+tCHoK19ABXz1jj09923o22df6Ne9qa1RaEfxx2HvXuc/EFrUbWZ9P73VRlaUpRSV8iJghUoWoCcojjzxiEydOdMLnsMMOc0vEyClDIX8EES1IEZZwkV/nzjvvdG+DCQofonqok4gPloL98MMPLsKH5WRxdQYHxedrYRkXiUvfffdde+CBB1y9JC4l0ojoF5/AN1Phs+uuu7qoEQpPzYnyod2UqDq52SI5tj93sN3cGEfVGbfN10GU1VFHHeWWlvmErXF9j9sWN0Zx28K/HCNHjnTL3sgD5QtsrrrqKnvhhRcSP4sbWyLGkFfcyFI4P2KJqKi4ORhuC1EvCMlgkuhkzOLaGcc6ri1x2+LGNtPxS4dLsr7H/f7Fzeu4bZnO61S/t8HxTTa2fntwW6r+cUzcnEgmfOLmZ0l+V0rzwRI8NpXwYd/wNTJ87vIqfMIcZh5wjEuUXGGNVZdtxW2LG0t/HPZgzrFnWp3+F7jlUAsG37uS8AnXQR6ddW+50iptUN9mtD3ENhw7MrHLzAOPtfpP3GkV1lijRHX6CsJLuvj5b73Osxo9j7Q1d16R686XJWM/svn9B1nd+wZa5QYr1vbP7nqy1bn6ApvX7warN3xoyrwqUXxKK3wqV6zo1uojfIj+GDbtnbSED0mb72Lp1KjeNnKPfrZdneRL5Yi4QQQQaUGJEj6T5/9kh469LhH1Eexv3JIZ6iZvzRO7rMilRDly3A22a90tbYuaG1nXcQPc8jRfSE5Je0kSHbWkiyU3PT8c7JaUzVm6wKYs/NU2qraui9Agxw7JnlkW9tIel1mrV892iY3f2PNqlzchqg8In33futSmH/xAoi3kb9m8ZoOEhCHSZp0RR9t7+wxILEmL6zv7I1WWdn02UefGz/ewyR1us7UDT1lh9NrMT23k7v0SEoV6jxx/g8undPjY6+2Uph1sn/W3WWWavfzrx44FCbKHT3vPoubLTutubi/++pE9tvN5iTrqPdvNSQyED0u6lnQdkdhGu3/r8tgqco8dyNsD2+ByNH6eblu88Hlr1iTb+62+NqH9IGu1zor5SU6KqHYSZRQ1fq/N+DRyLlWpUDkywofkq6NnfrbSE3/mHTdYfhkeOYxYMti8VkOX4JyC5GKZXzCHz+kfD7Fd6m5p3RrvGXU50M9FQARySIBonAbV1nXRrjzYePinN+31mRNdfru4Endcptv8+UojfKiD6N1+kx9d6SEKP5+7dKGdNmGIewEDS6MpRCyO+Hm8e5hA7qCTNt2/VPSLSvj4ZVrkwqGQz4ccPiyZ4aaDpTd77LHHKsCQEizNYUkVT0dYrtOkSROXMJqkuiwF4o1KLMNheReyh5u2uDrDJ0EGIKKI9Onbt6+1bNnStYdCFA6vLfa5hjIVPs2aNUtICAQWQskviYuqkxsp+kybwoUb46g647ZRD2/HIvKFaBqEki9xfY/bFjdGRCdFjV/dunVd/3wiRYQPS+x4i5gvCKm11157pSinuLElygOeJBWn8P/Jkyc7aRQ3B5PxJXeTf0V1FLO4dsaxjmtL3La4sc10/FJxieo7+W2ifv/oe9zvStySrkzmdarf2+D4wjA4tlHbUvUv1ZxIJnzi5mfc7xG/K2VR0hE+nDd4jQy3Q8LHbPlP021evwFW/9HbVxmmuG1xYxo8zosTlnFR/pm3wCpUrGBrHdLRLY8KXkfZjvBZ57pL3Ju8Zh10vK179w1Wef0VN/+zOh1ndR++1ZZ/OcXJmKg6o9qWTPjMPe8qq3bAPi6B9X9//52I9KGOeZffZGvuvqN7Uxflj6EP27IJk6zKFk2t9nkrog8yKWUlfK5u2d3We+4YW3z4ighcboa5SV946JOJHD58qSUa5tLJj7mlSeHIHI7jiSHLhRYcuiLSKS7Cp/6z3e2Xgx+0dUMJneOkB+e/7qun7aP2/1t23OrVs6xf8yOcTOn10W02PhD94xnH5fBhHm3y4om273rb2k3b9rQ93rzI3YwP3K6ni1Bp+8bFts4aNezZ3fsakU5vzZ7kxAlRSlF9QPi0fvVsm3fIE4mnox3evsJ6NWlvh2y8S2LoEW9EK3nZkSo/DBFLvB2tYfUVbzlrOLKHExxEG1F4KksehlfaXuHeuhIsJCvmrTLnfHqffdHhjsR3EESSj0Jif6KDOjXYwX5YNCtS+PCUlzeC+XEgwqf2M0e4N1CxxCxO+IR/bxE+T+16oW299iZuuVlJ24Lwoc693rrE6q5Ry+YuW2Rv7HW169+4376KbCfM4uZg1FyKG6M3Zn5ml3/+mL3XbsV3sSX/LDMifBhjhA9v6mJJG8sMt3/tHNdvlp7xdjLGJfjmNp6mn9BkX+uw4cpCOZPrho4RAREoPQESrV86+VH3+YYIIY8NS5rIvxZX4o7LdJs/X2mFDznOjnt/kE3qcNsq118SSnd6t7992fFOd7pFy/9yn5WN1qrvcrSxPLk0paiED0+veX07kT0LFixwUTNE4yB8eD07CX9JtEuuls8++8xq1qzpxE6whCN8WIZFBA5JnnlLD0uCSLyLSImrk1cmI114zTfJkHkjE+0g0gWJxI0aEUXkE+LmsE2bNi4ih5Kp8CFPEH1niRZ1de7cORHxE1UncoslZbxRiyTXEyZMcLlp6DftiqozbhsMWcYVjFryXzri+p6Kix+n8BjFjR9LyUaNGuXyJBHVhYSib4yHL23btnVLrVq0aJH4WdzYMg+QWAg13rBFndzUIhrj5iA377SF6KHx48e75XdvvPGGe1NbHLO4dsYdF9eWuG1xY5vp+MWdL64Pcb9/qX5X4oRPJvM6ru9xYxu3La5/6cyJZMInbn7G/a74bYhnrkcscwyXTLZFCZ+4a2T4vOVV+Pw56i33VqwKa1Wzuef3d2+lqn54J4cnbhvbl3/3ky0e9rzV7tt7pQiXVMd59sEIn//+/dd+P+1i92pzcub8+eoYWzjkYav/zD1WoVIlW3Dbffbv7N9s7cvPtSXvfmCLHnzSLb8Kl1RRQ37/VZI2f/yZzbv0Bqv3/7IL8eVyCDVtZH9P+cF+P+cKq4twarAivwp5e+Z0P8PWHXK9VW0d/9bFuC9QZSV8uGnm7R3XtDzGvZGDvDYk+p1/yLCVhA9tO2LsAGuw1rqJN3H1+eRe6735gS4PDqHgo2dNTCQIjkva3PODwS6PC08P16xUxSVJPrdZZ5fkN+otXT6Hzw3b9HCRD4/+9JZ7jSz5YcgHRB4i6mDZFDfbRHeQzyfVW7p2H32hy0uAKOFGe+L8H93yJMrJH93hcvb03ryTE14ksR6x2yVuW1Qf5iz9w7Z8+VTr37K7W25G1EePDwc5IRJ8hW1Jhc8FEx9w+YBYjvXCLx+uJL9IqsnyKMLsuRmhBOXKwK+fdUvSyAHEW6Io5Gw4ctyNLo8OYfrk7GFpFFLpyZgIH5Jr86Yxklkf0XB36//FMLckLJXw4fXBROEwz8gXRAQOSau/PeAul/w5k7Ywd1kex7LCUW2vtHZj+rkleOSaQiDFtTNq/LiJi5pLccKHHD6bvniSDWp1oh3coI3LbXTj1yNc5BPC5+hxN7pk1Wdu3ske+elN92YukmkzV1eIr4vcMi+WlO075lL7quOKJ+wqIiACq58AIr/N6+fZ5x1WPOTiRQcs19yi1kaJxnE927N+C9t3/f+9FTTuuEy3+ROWRvjweUoesybV1zdyoZ0/8X73IoQem7Rzb9tkyfFf/yy1e3fsnehfl3evsXnLF2XlLZpFJXyIBOCGhCfcG2ywgXt1Nnl6uFGjIEN4WxM3/g0bNnT5e8ijEixhmcBNI3mBeOsUIoUboU8//TQRORNVJ8swLrvsMndjX7FiRSeKTj55xbpxzs+bsHgtO09FDjjgAHcObvwpmQgfcgC1a9fOJaYmLxDJiYlK4typ6vR9ZLla8+bNnRzZYostXF6hqDrjthE9w5IpomZ8YUmPly5RfU/FxddVEuHDMjyiKBA/sGDJG0uofMQPb/EiATfJqsOvU42bL4ga+kFbOJ4cPpS4OcirtHnD2/fff2+1a9c2bmJ9vqk4ZtQb1c644+LaErctbmzjxihuW9z54vqQ6vcvkwifTOd1XP/ixjZuW1z/Us0J5kUy4cPPo+Zn3LXOb0OGkuMKkRkumWyLEj5x18jwecur8Fn8zMu2eNhz9u9ff1m1vXezWn1OSlyn4rbBD/Gy4Oa7rP6woVah6v/ytqQ6zrMPy5klH3xif9x6n/0zY7ZVbrSRrd33LJdXyF33liyx+VfebEs/+NQla177qvOtSuONV5k/JRE+8664ySpWr25WqaJbNlbrtOOtaquWrk7yBy1+8gX79/d5blvNU45xfIKFJWDrDh3ghFSmpSyFD2/i4svff/afnbnZge713+/ve6M9+/P77i1dPmx9zpIF1uKVM2zYLufbXuttbU9Oe9cumfSIzV220Laq1dCFupO4lxInfMhJg6x5+Ke3rFKFinbGZge4t2Xx2nMS7dYO3eh+uv9gtzSLt4ggYUg4vUmN9VYsNfv/t3RNXTzbTp8w1EisS52nb9bRvU0L4UM0x4bVVn6LGvl9eE02r8BGGN24bU8b8u3L9sS0dxLRFoO+ed7arbettVi7kQtzH/jNc+7NLJSoPny7aIbt//blbpkYuY1YBoDYCr+ZKpnwies7kTTHfXCLW0bQtMb6bkkVuYsoRNXQBxIxU3gzGEuzfPQQb4hq8mIv+6nTvVa/6v++Cw2a8rzdNuVFm7lknpN2/Vt0s0M33tUGfPm0i/A5t9khVm9EN5vR+WEb7pYAfu8Sc38270eXcPrHxbPszM0PdAKKt3ExFtWePNT+6vpMYpqTJNzna3p95qfuRmLq4jnGG7bu2XHFm9Qog755zm6b8tL/2tIydVsuan6obTfqbHt7n+tc8meW6O02+kL7oP1Nbr7EtZPxI9F4cA5eutURVqliJWMunTHhrsBc6mBnb9HZ5VliaV94fn6y/yB3PqJ1en14uxNzfZod7HIt8da6KhUrWad3+jspRhQTv2etX+3joq54RT3RSESQITwRTkij4E1jptcMHScCIpA9AshlRC4F4X1C0/YrVb7r6AvsyIa7O6kbLHHHZbqN+jMRPjxoYWkqnxVdNmrjBHy1ylVdBCK5ed6e/bm7XpGr7Y7Wp6y0ZJgoUvL8hPuXCeG8FT6ZdEbHiIAIiIAI5BcBItkQW0QzUi6++GKX6ypVYYnkO++843Yj1xlL6vxbFVMdq+0ikA0CpRE+2Ti/6kiPAE9tET68Fj1fCtE+KrknsN2os9xbw3wOn2QtCD/cy30rdUYREAERyC0BCZ/c8tbZREAEREAEREAECoCAhE8BDBIRsHkkfEojekpzbGGMVPZbGZY3243qbQ/sdHas8PGtkPjJ/nioRhEQgfwkIOGTn+OiVomACIiACIiACKxGAhI+qxF+gZ06HVmTzj4F1u28b246UiedffK+o2qgCIiACMQQkPDR9BABERABERABERCBEAEJH02JVARSSZy47amOTXVubV+VQJy8SSV2Um0XbxEQAREoVAISPoU6cmq3CIiACIiACIhAmRGQ8CkztEVRcZSwSfbzdH9WFGBWYyeSSZt0f0azJX1W4+Dp1CIgAmVGQMKnzNCqYhEQAREQAREQgUIlIOFTqCNX9u1OV/YE9wsfk06ETzr7lH1v8+MM6ciY8D7B/8dtC/YwnfPkBxG1QgREQATSIyDhkx4n7SUCIiACIiACIlCOCEj4lKPBLkFX05E9UaKntAKoBM0sF7umK3iixE+U3JH0KRfTR50UgXJDQMKn3Ay1OioCIiACIiACIpAuAQmfdEmVn/1SLc1KJnT8z9KRQJ6kInui51SqJVrJ5I7/WUnEj6RP+fm9Vk9FoNgJSPgU+wirfyIgAiIgAiIgAiUmIOFTYmRFfUC6sicseFL9H2ip6i5qsCXoXLqyJyx4Uv2fJqSquwTN1K4iIAIikFcEJHzyajjUGBEQAREQAREQgXwgIOGTD6OQP22IkzLJpE7wZ1H/DsseRfakP96pInmCkifq30HRI+GTPnvtKQIiUFgEJHwKa7zUWhEQAREQAREQgRwQkPDJAeQCOUUmsodjwqInXfHjsUgA/W+CxAmZOLkT3sb/04n48WfW0q4C+SVVM0VABCIJSPhocoiACIiACIiACIhAiICEj6ZElHiJW6blRU/c39QbFkL+Z0HqEj7RwieZtImSO17yhP+m9ij5I+Gj338REIFiISDhUywjqX6IgAiIgAiIgAhkjYCET9ZQFnxFUa9Uj4riSSZ7/v3334TkiYv8kfBJPl2i3sgVlDhe4PifVaxY0QmduD/BY4ICSMKn4H9t1QEREIH/JyDho6kgAiIgAiIgAiIgAiECEj6aEhCIkz1+ezqCJyx8gscEzxN1vvI8GnGyJyx5gnInLHziBFBQ9kSdrzyPgfouAiJQuAQkfAp37NRyERABERABERCBMiIg4VNGYAaRfkoAACAASURBVAus2lTRPalkT82aNQusx8XX3IULFyaifFJF/QTFjyehPD7FNyfUIxEoTwQkfMrTaKuvIiACIiACIiACaRGQ8EkLU9HvFBQ+UW/j4ufBCB7/b/6uXbu2tWrVqug55WsHP/nkE1uwYIF50RMUPmH5E5Q9yd4Clq99VLtEQAREII6AhI/mhwiIgAiIgAiIgAiECEj4aEpAIEr4xEX2IHr8nzp16kj4rMaphPCZN2+eEz7+DzIn3eVdQQm0GruhU4uACIhAxgQkfDJGpwNFQAREQAREQASKlYCET7GObPr9SracK1nC5WBEj4/28cJnnXXWkfBJH3nW90T4zJ07N1L4REX5KI9P1odCFYqACKwmAhI+qwm8TisCIiACIiACIpC/BCR88ndsctWyuOge2hBcyuUFT1D4/PPPP1a3bl0Jn1wNWJLzIHx+++03q1Sp0ioRPuFlXhzukz77f/sqlcdnNQ6iTi0CIlAqAhI+pcKng0VABERABERABIqRgIRPMY5qyfqU7nKusOxB9Pif1atXT8KnZNizujfCZ86cOQnZ48WPX9YVtbRLwierw6DKREAEViMBCZ/VCF+nFgEREAEREAERyE8CEj75OS65bFU6wie4nMtLnqDwqV+/voRPLgctdC6Ez+zZs1cRPqny+Uj4rMZB06lFQASySkDCJ6s4VZkIiIAIiIAIiEAxEJDwKYZRLF0fwsInnL8nmezhZ1748Pf6668v4VO6YSjV0QifmTNnJpZ0BZd2RUkfL3v0pq5SodfBIiACeUJAwidPBkLNEAEREAEREAERyB8CEj75MxarqyVxwidZouag6PHiZ4MNNkgpfK644grbb7/9rGvXrjZ9+vSVutu2bVs755xz7OCDD15dGFY675tvvmlXXnmlvf322yv9fJtttrF77rnHdtxxR3v++edt4403jmzvQw89ZN26dXN/vv3228R+rVu3tjvuuMOOPvpo++GHHxI/P/LII61du3a2+eabu3w8n3/+udtv1qxZKZkgfGbMmLGK8Akv7Qq+uUvCJyVW7SACIlBABCR8Cmiw1FQREAEREAEREIHcEJDwyQ3nfD5LMuETfh178BXs4egeBNCGG26YtvD57LPP7JRTTil44bP22mu7JVSUjh07GsLm2GOPTfRr4cKFdv311xtvMOvRo4f7eZUqVWz48OH2yiuvOHFEoY7Bgwdbw4YN7c4777QpU6Y4kUR9W221lZ155pk2adKk2CmE8Pn111+d8PGSJyrKxydsDv7tK1fS5nz+TVXbREAE4ghI+Gh+iIAIiIAIiIAIiECIgISPpkRwCRc0kske/1auZNE9/KxBgwZpCZ9ly5bZrrvuakOGDLEXX3wxAb8QI3yCM6dz585O6oQjlEhm/cwzz9jNN99szz33nJ100kkuiofonr///ttVcdhhh9kJJ5xghx9+uC1atChRLfLl2muvtSZNmthRRx3lEmRHFYTPL7/8klT4JIvyCcseL3okfHQ9EAERKFQCEj6FOnJqtwiIgAiIgAiIQJkRkPApM7QFU3E6widZhE9Q/qQrfObPn28fffSR9e/f3w455BDj/5Sg8KlcubKdeuqpttdee7ncQHPnzrVhw4bZo48+mmB633332fvvv29t2rRxS6CQHTfddJPVqlXLiZdNNtnEvv/+e7vmmmtcxAwF8YFw6dChg9WsWdMdP2DAgEQbggOWzpKudISPFzqnn366nX322U509erVy7744ovE4S+88II98sgj9uSTT64yZ9Zbbz1je+/evV170xE+RAwFI318Dp9gLh8Jn4L59VRDRUAE0iQg4ZMmKO0mAiIgAiIgAiJQfghI+JSfsY7qaUmFT1D08G/+bLTRRmlF+CB4Bg0aZNddd50tX77cLrvsslWEDz845phjXH4blimRL+fCCy90EuiDDz5w+yN8WB51yy23uH1YSkVuoLFjx9rdd99t8+bNs3PPPdc23XRTI/qGwv+bNWvmcvMQaUTOoOrVq7slU+GSTeFD3ffff79bnoW4os2+rLnmmq7N3bt3t6+++irpEI0YMcKeeuope+KJJ2KFz88//5wQPSVZ1kWlivDRdUAERKDQCUj4FPoIqv0iIAIiIAIiIAJZJyDhk3WkBVdhnPCJeh17WPqUVPjUqVPHEBmInA8//HClCJ9kAO+99177+OOPbejQoQnhM3r06IQEob7XX3/d5QZiP0rLli2NxMkkiiafzjvvvOOk0YQJE9x2lluRS2e33XazJUuWrHTabAsfBFafPn2cXELw+EIkEku+iDqKSs5M4uZvvvnGbr311rSFT1SUTzBps4/ykfApuF9ZNVgERCAJAQkfTQsREAEREAEREAERCBGQ8NGUKInwSRbdw89IMtyqVatYmLyly0f4sONBBx2UyF2z8847r/SWrtq1azsJQp0kR2bZFjlwiA6iEOETFD78DOFD9M57773n9qlWrZqTK126dLGqVau66JrZs2e7HEVectSvX9/at2/v3ooVLAifq666ysaMGbPSz4Nv6QpuiMrhwz5169Z1UmfixIluqRmRSF4w1ahRw4kolqGRzDpZYakXbUeQRRVy+PDmM7+UKyp5s4SPft9FQASKlYCET7GOrPolAiIgAiIgAiKQMQEJn4zRFc2Bq0v4AJCIncmTJ7tXkPvXsiNneJMV4oZXn7Nk69JLL7WZM2fGCp/XXnvNSRovfFguNW7cOCd8WML10ksvOcnE0qdUBbn04IMPOskULCScvvzyy50kSlf4DBw40JYuXeqWr7Esi1w8/MwX2o3QYdlXuCC7Ro0a5XIPxb2pS8In1YhquwiIQLETkPAp9hFW/0RABERABERABEpMQMKnxMiK7oDVKXyIDHrsscfs4Ycftk6dOrm3XBFFgwhCrvg3U5HzhyVPcRE+ccJn2rRp9tZbbxlLw4LJn6MGk2TO5AhCQgXLWWedZY0bN3bLs9IRPvvss48TREin33//3bbeemvXhhNPPDEhcIjuIQcRb+tin2C55JJL3Fu62D+uSPgU3a+lOiQCIlBCAhI+JQSm3UVABERABERABIqfgIRP8Y9xqh6uTuFD2xAevLlqzpw5TviQD4jInttvv91efvlla9GihSE+eFtVpsJn6tSpLjHyySef7ATMu+++aywbQ974nD9BTk2bNnXROE8//bRrCxE6e+yxh2vn8ccf794Alkr48CYwlnKRRJp6fCFvEYmoedU6kUeIpXvuuce9kWzw4MEu2on8Qgig1q1bu7xDJLCW8Ek1k7VdBESgPBOQ8CnPo6++i4AIiIAIiIAIJCUg4aOJURLhQ8SNfzNX8N8lTdocpE6+GaJ8yLmD8KEceeSR1rNnT2NZFtEr5N75888/SyV8qBeJcvjhh7ucQ7zJa+TIkXbXXXclnQRbbrmlnXHGGcbf9JlXqd92222ryB4OTpbDhyVcvCXsuOOOS+QNYt+11lrLiSBkFvVReBU94gupRJ4fXjNPTh8SNi9YsCDlJIVR8C1dStqcEpl2EAERKDICEj5FNqDqjgiIgAiIgAiIQOkJSPiUnmGh15Cr17IXOqd8bn9Y+Oi17Pk8WmqbCIhAWRCQ8CkLqqpTBERABERABESgoAlI+BT08GWl8SUVPsmifBo0aJDyLV1ZaawqSUoA4UNUUFD0+H8T7RP841/HrteyazKJgAgUEwEJn2IaTfVFBERABERABEQgKwQkfLKCsaArSUf4sI8XPeG/We4k4bN6p0BQ+ISje/z/k72SnZ9Rwn+v3t7o7CIgAiJQcgISPiVnpiNEQAREQAREQASKnICET5EPcBrd88KHXfl3sj9InuAfJE8w0mfDDTdUhE8arMtqF4QPr69H7pRkOVcwyicofsqqnapXBERABMqKgIRPWZFVvSIgAiIgAiIgAgVLoLwJH970xOu/87HMnTvXdtllF5ccmJv2XJTNNtvMvRVqjTXWcKfzssf/G6njo3vionw22GADCZ9cDFjEORA+M2bMWEX2JIvuYXlXMKLH/1vCZzUOoE4tAiJQagISPqVGqApEQAREQAREQASKjUA+Ch9egf3www/bkCFD7MEHH7Stt946gX3s2LE2YMAAd3O71VZbubcc8fprCm8z8q/crlWrlns7Eq/Q9oW3PO2+++7uldy8KSmdcs0119ijjz6aEDB169a1MWPGuHwp++2330pVUP+wYcPcK7ejyqeffmqHHnpoIhKDt1udc8451rFjR0P48JYmBEyykqp/6fQnvA/CZ8qUKYkfB4XPb7/95t5SxSvI6ffVV19tzZs3T0T6BKN8eKV4q1atMmmCjskCAYTPzJkzU0b3eNkj4ZMF6KpCBAIEbvxqhN327QtWwSrYtVsfa90a75nYGrctDmLUcX/9vdR6f3K3vT5rov397z9247Y97KhGbV1VC5f/aWuPOMqqVVoh8SmDt+tlJzRtH7uN/X5YNNN6fjjYPp8/1bat08Tu3/Esa1i9Xuw4t3jldPt96UKrXKGSsUJ07/W2sTtan2LVK69p//73r1342YP2zPRx9s9//9ru9baywa162VqVqlqDkcfbjwfea7XXqO7q/+fff6zRCyfYVx3vtJpV0vt8DjdMwke/kiIgAiIgAiIgAiIQIpCPwue+++6z5cuXu1dXDxw4cCXh8/HHHzv50LhxY7vyyivdDW6/fv1cFErXrl2dODn22GPtjz/+sCuuuMLOPvts95prCq/BRmDwqusOHTqkNRcuvPBCO+CAA5yIiSsfffSR9e/f35577jmXIDeqIHzYb8SIEa6P77zzjp111llOInFcWPggVehjOv1Lq0OhnZIJH3bhfPBbb7317KSTTrKnnnrKXnrpJbvnnntWET5EAdWvX1/CJ5MByNIx/tX1PjlzOGFzOvl7aEow2idLTVM1IlD0BF6d8Yld/cVwe6nt5bb8379t19EX2LO79bUta29scdviwMQdt+yf5fb8Lx9Yl412thlL5lrLV8607w+829atWsum/znHuo4dYOP3vWmV6uO2cc1v/drZdu4WXZysGj1zou1ct5kTN3EF4fPcbn1t05obGiLqmPdvtjZ1t7Dzmh1iT0x924Z+N8pe3fNKW7PSGnbblBes4Vr17OCN2rg2HtRgR+veeC9X/TuzP7ebvn7WRu5xacbzRcInY3Q6UAREQAREQAREoFgJlEb4EIHz4Ycf2rx586xFixa2bNkyQ3wgaYj2YGnSpZde6qJxyPFChMiWW25ps2fPts6dO9u4ceMSWLfZZhv3/+rVVzztoxxyyCFOOgQjfILj8PTTT9sHH3xgN954oyGCbrrpJhdhE1XOPPNMq1atmi1ZssRuvfVWt9v8+fPtwAMPtIceesiaNm3q6rvuuuuckOHm+dRTT7VevXrFygykzEEHHWRXXXWVtW7d2tX72muvObEDkzZt2rjoI6Jj9t1334Tw8e1kiRn9REwFhc/jjz/uJNW9997ron6i+peK5yuvvGKwov7nn3/e6tWrZ7fffrs1adLEED6PPfaYXXbZZTZnzhw3RkQu8eUfXkg0lpn99NNPLhJp+PDhbvyOPPJIGzVqVEL+UKcifFbfVQLhw/i1b9/ejTVzj7nL7yWScYcddrBJkybZAw884OZ+sjd00XoJn9U3hjpz4RK44vPHrVblteycZp1dJ5A/RLdc1uIoi9sW1+OSHNf4hRNszN7XWuPq69mk+T/a+RMfsFf3vGqV6uO2vT17st3yzfP23O79SjQQQeFDdNFR42+ybo3auoijod+9YhPn/WBDdzh9lTqfmvaePTZ1TOJ85356n229dmM7bpN9SnT+4M4SPhmj04EiIAIiIAIiIALFSqC0wuerr75ygqdly5Z25513uqVOJI9FFuyzzz5OIPD36NGjnVTg74ULF1qXLl0yFj7IEwTIDTfc4KJ7uJnlRhYRQUROssIysb322suQH+3atbP33nvPqlat6nZ98cUX3RKyRx55xIkolox5yXT00UcbS7VY3oQcoQ8+Ysif5/7773dyCw4UJA/nQBrVqVPHRciwlIzlZcEIH6QK/z/ttNPs9ddfdxE/Xvg8+eST7sadJW0sP4vr36xZs2J50ufevXs7VkQ/0XcEG8ve6NNhhx1ml1xyiZN1RE299dZbTvgg826++WbXL6KiaBsMOR/CB6nlEzcTdaWyegkgfS644AIXGYeM5c1p/J4h7BirL7/80gnN888/X8Jn9Q6Vzl5kBJ79ebyTJc/v3s+qV6pqu79xkW1es4E9svM5FrctDkM6x32xYKo9PX2cfTT3W3txj8tcdYib7uNvtppVqjnpdEKT9nb+loek3MbysSkLf7FvF/1q0xbPsZOa7m8XNT8s5UghfOYvW+yWsv26ZK51adDGnt7tYnfcrCXzbOfXz7ceTdpZ7806JZZvse3Pv5faxiN72NRO91mNKtWs+cun2dh2N1idNWqkPGfUDhI+GaPTgSIgAiIgAiIgAsVKoLTChyiYk08+2UW2kF+HqI/Jkyc7CXP33Xc76eHLwQcf7KIOtt12Wxe9k2mEDwKDqBSkBFEvJAwmYgX5gNj466+/rG3btvb333+7qJTu3bu7G16Ou+WWW+yUU05xeXSItvHlhBNOcNE+5AUiUscXZAeSY7vttnMChuVmRN34ZVtEVSCJnn32WbesiYK4QXIhkPgZy8hoA/UgeIiaQeIghtZZZx0XUYRM8Tl8iPZBIhFN4/MTxfUPuRTHk37TD2RbuCB8EEC+7fSfNlauXNlFjJx33nlWpUoVmzZtmpM+jRo1chFbRx11lJNU/s1dCC2WfK255po2dOhQmzBhgpsXiMDgW7/gR/0nnnii2xYsU6dOddEn06dPd9FHCAo4MHZEniCZ6OcTTzzh8jCRe4ioIiQVYs2X33//3S09a9iwofsRy+ZGjhzp/o0QJBqJOqLqJPfTEUcc4eauT2bt60Y2duvWzUnCVIVx9UItuC9y8YcffnBRXb7QFn4GF8QpkXDBPDtE0fXs2dNIOu6XZzEHYcPvkc81RfQaAvGNN94wBBAyD9FIpB3zjd8Jxo4SfkOX/1mqfmm7CIjAqgSu+WK43f/jaCc+Glevb01rbGB3/X9kS9y2OJapjjv0vesM6dNni4Pt5E1XLFMm/w6RM/22OsIW/f2XHfD2VU74HNFw99htF0580J6a/p6N3P1Sa7DWurbfmMvsyhZHW4cNt48d7mCEz+wl863b+IFO8Bz9/zmFfl/6hw346hl7fOrb1rPJvtaveVdbo1IVV+dh711nXRvuZi1qN7I+n96bNCqpJHNNwqcktLSvCIiACIiACIhAuSBQWuGDGGDJE8KH6AFuhBE+G2+8sbuxHzx4cIIjMob9WDJUGuHjK0RgEAFDUmVuor/99lu3lMUXohyI4uFGmRvpN998091IE5WEpCF6xZfx48e7G3nEAMtgogoiB2lBDiEKQok6YRAsRMwggWrXru0ED/tRghE+iAhEDtE8FIQPoozoIuQHwsGfJ65/5C1KJXyoCwkSLggJuPlXsyPjEEAsrUN6IHyQKsgdeMHHR/jAPyh8EGEIH+p6++23Xd4fIr4QP8guL36oHzZEgjEubPMl+Ip4ZAXL2hBt5KShPUhD+sJYfvPNN24+URfRXr4ghvi/Fz7+54gRnxeKeqPqhCeRXMyrcEH4UD8SLa5wHpYZXnvttSstk5o4caKLIEOGepnnxQ4///rrr51UQ2KFhQ/iht8vn3iZv5GLjD2s+f3iOJYmwp0+sFwQWcSSPBJr77rrrm6JYbBu3w8t5yoXl3x1MgcEhnz7sv3611zrv3X3Vc4Wty2uaVHHkbSZnEE3bdfTJUUOF/LovPTrx/bozufGbus76RGrXrmqXdK8q9vvvu9fs8kLptqgVit/toUrCQoftpH7p9/kR+39UA6huUsX2mkThlitKmvZ3Tuc4aoZNvUdG/HzeNuuThNbd42adtKm+5dqdCR8SoVPB4uACIiACIiACBQjgbISPogLhAs5Y3zh5vP00093y5t4kxXLoCgsmUKyIIpKksOHZVYImM8++8zlJyFBM5EN/sbVCx+ia4j4YakSQoKEzhxHRBIRHEgGlm4RJcINPTf6vg62BW+EOY5Il2bNmrklUIgdRAdRMMFy+OGHu3xC4derB4UP+yMwWIbDjTjCh7+JzEBkUS+yA2kV1z9ESBxP5ATJpO+6665VpnAy4QOXRYsWOSnGv72oQczQLjjtttturv9sW7x4sZMIiBz4snwOHsggonCIqELS1KhRw23zzL/77js3H+gj24IF4YW8IMLHvyWNyBTyLdEXxhnhs/322yckjj8e9kR+IU6CBb6MM1FocXUiCMnJ5IVdsA6iwBB4RNZEFbYx72kDOaN8QbwgBom2YUldsBDVRPJulu6xD+ISkUhh/tF2Io+YE+EEzEStcR6EFlFhPnKHfD4s5yKq6ZhjjrFNN93ULr74YpeIW8KnGK/m6lO+EDhy3A12VMM9XHLicInbFtf+uONO+3iIbVZzA+uzxYocQsHPLYTPU9PH2ojdLond9sAPo+3dOV/Y/Tud5fa7/4fXbcLc7+yO7U+NxRoWPp/O+96Oe3+QTepwm0tgXaVi5cTx3y+cYZ3e7W9fdrzT/WzR8r9skxdPtEZr1beX215u9ddcu1RDKOFTKnw6WAREQAREQAREoBgJlJXwOffcc51Uueiii5zU4CadCAZu1FnOtP/++xv7sKxq0KBBTqIQ/ZBK+HAjTKQD+UkQGAgJH4mBEGDpFfmDSKTMjS4RIETJEHHBOXyhDm6gkRiIGaQIMoMbYyI8EAMIC6J+aCdigegWlkYRXcIXagQWN9DBN3hxDJEXCCaW5rBEKljCwufVV191N/m0IfhadupHPBClgvigRPWP/eJ4ZiJ8EFXIJ3Iw7b333k7mIKZ4mxjChr4TUQI/uBKxwjIr+g9/8gXRdpaC9ejRwwkfJEOfPn0cM7b9/PPPLsIH4cO4I0p22mknNz+YN8gKlt6xNI72MCaMDePAPCIaxgufYLQWES9IEIQPEWYIIKJbWAaIpGLZWFydiBeWSCFomEP0lyVg8GdcaBPnT1aYG4wl7fESy0ctMY+YDywf9MW/hY3lXUhP2oqQYnkc0V8UL3wQl8wXL3S8+EGOIeeIImMu+J+zP1xJ+s1YwSsoRMMRPYrwKcYrvPqUCwIkK37m53F2/Cbt7K1Zk6zHh4NtSsehbulS3DbfNqJr9qzfwvZdf7tEc+OO+2Tu9/byjI+tb/OuLpJo1zcusEfanOMifMj9w2vQ79nhDFv673Lbb8zldsqmHdwyq7htc5YssK1eOd3lAmpea2NrP+Yy67tVVztgwx3SFj6L/15ix38wyJpUX98GbHu8nT/xfvdWrh6btLPKFSu5ZNJ//bPU7t2xd6LOLu9eY/OWL7Ixe19X6qGS8Ck1QlUgAiIgAiIgAiJQbATKSvgQxUAOlr59+7obe5Z4cRPtoxa48UYgcDNMImFkC1IgmPw32Vu6uBEmcoJIC6JTEDDUTeFnLGNBPLCUCpmEfEBaEJFC1IYv3JT7JLe8dp3/k4wZQcFNN9EdvFkM0cGyHJbIkFeGvCxE93AOhFEwdwx1IzBI0kzkCv1H4hB9gbxgmRE/869lZ3/6zyviueHffPPNV3pLF8ciVpAn7BPVP5Ivx/HMRPggXd5//30nmxAKyBPGlEgi2sxyJaKbEDyIGKQbf+CBHCHShPYiPcgpQ54hjmPpEX/8NnI6+W2MP+NADiYkExFbSAjeoMbSQeQbywGZAywnY2ke7aE+pKEvyA9ED21mP3IKEbnF+F1++eVuXOPqREoRiYTI8vmamBPIFBKOMxbhJNUIL3JJEb1GRJbP/QMfltKR9wjpwjIun/8JHrSH41g6BzOO4xjmFnNo5513dgzIS0T/fT6jsPTx4pK++SVfzHsirpBWLGGDm89d5EVS8Hom4VNsV3f1J1cEfvnzdzvhw1vt64U/W50qNeyeHc+w7dfZzJ0+bptvH0uyjmy4u525eadEk+OOIy8OUT1vzp5klSpUtHO26GwXbHmoO5ZkyOTDGfHzOLftxCbtrX/L7u46EreNY1/45UPr/cndTlKdvtkBdmXLbikREuEza8l8q1KhslWtVMW6bNTGrml5jFWrXNW+Xfira8vbsz+3KhUrWYcNWtsdrU+xtQOJmcntQ3+CfU950ogdJHwyJafjREAEREAEREAEipZAaYRP0UIpZceIJmJ5mk/KyxIy5BURP0idfC3B/DleRvm//bZgAuZk/0ZWBH8ePD5YR5BB+Lz5yicX7YqKugkKHtrB/8mlRAJq3lhHtBtiKbhfsmOSLeXy9eWifzqHCIiACJQVAQmfsiKrekVABERABERABAqWgIRP9odu5syZLiqHqCAiUxAaRKz4xM3ZP2N2aowTPskEUCr5k0wWBevxrZbw+d/4xQkfL2b8PkREEb1EhBdLyEjWnEz4BIWOhE92fldUiwiIQP4RkPDJvzFRi0RABERABERABFYzAQmf1TwAeXT6ZOIlHJUTFekTlDvhfcKyKNxlCZ9o4RMla4LixkueoBAK/yxZPcFx0HKuPPpFVFNEQAQyIiDhkxE2HSQCIiACIiACIlDMBCR8inl0S963TKRPUPYk+3dQ+IT/XfIWlq8jgiImHJ2TTPQEpU+ULAoTlOwpX3NKvRWBYiUg4VOsI6t+iYAIiIAIiIAIZExAwidjdEV5YJzwCcqauMifZPtFiR5F96w6jZIJmFTiJ07uJDs2eFYJn6L8VVanRKDcEZDwKXdDrg6LgAiIgAiIgAikIiDhk4pQ+duervSJE0BhwZOqzvJHOb7H6UqfONET3Bb+tz+7ZI9mngiIQLEQkPAplpFUP0RABERABERABLJGQMInayiLqqKoyJvgz0v677AEKipgZdiZqETOcUInVVRPlAAqw26oahEQAREoUwISPmWKV5WLgAiIgAiI5KpzAQAAIABJREFUgAgUIgEJn0Ictdy0OR3pE5Y4UW/6imuxlnX9j046ETfpCqA4qZPOeXIzy3QWERABEcgOAQmf7HBULSIgAiIgAiIgAkVEQMKniAazDLqSrvQJix/fFMmc7A9KquVe/oxRUkeyJ/tjohpFQARWPwEJn9U/BmqBCIiACIiACIhAnhGQ8MmzAcnD5qSSNnHbUx2bh93N+ybFCZtUMifV9rzvvBooAiIgAhEEJHw0NURABERABERABEQgREDCR1MiXQLpyJt09kn3fNovPQLpSJx09knvbNpLBERABPKTgIRPfo6LWiUCIiACIiACIrAaCUj4rEb4BXrq0kid0hxboLhK3ezSyJrSHFvqhqsCERABEcghAQmfHMLWqURABERABERABAqDgIRPYYxTPrZS8iYfR2VFmyR68nds1DIREIGyISDhUzZcVasIiIAIiIAIiEABE5DwKeDBy6OmS/6s/sGQ5Fn9Y6AWiIAIrD4CEj6rj73OLAIiIAIiIAIikKcEJHzydGDULBEQAREQAREQgbQJSPikjUo7ioAIiIAIiIAIlBcCEj7lZaTVTxEQAREQAREoXgISPsU7tuqZCIiACIiACIhAhgQkfDIEp8NEQAREQAREQATyhoCET94MhRoiAiIgAiIgAiKQLwQkfPJlJNQOERABERABERCBTAlI+GRKTseJgAiIgAiIgAgULQEJn6IdWnVMBERABERABMoNAQmfcjPU6qgIiIAIiIAIiEC6BCR80iWl/URABERABERABPKVgIRPvo6M2iUCIiACIiACIrDaCEj4rDb0OrEIiIAIiIAIiECWCEj4ZAmkqhEBERABERABESgeAhI+xTOW6okIiIAIiIAIlFcCEj7ldeTVbxEQAREQAREQgUgCEj6aHCIgAiIgAiIgAoVOQMKn0EdQ7RcBERABERABEcg6AQmfrCNVhSIgAiIgAiIgAjkmIOGTY+A6nQiIgAiIgAiIQP4TkPDJ/zFSC0VABERABERABOIJSPhohoiACIiACIiACIhAiICEj6aECIiACIiACIhAoROQ8Cn0EVT7RUAEREAEREAEsk5AwifrSFWhCIiACIiACIhAjglI+OQYuE4nAiIgAiIgAiKQ/wQkfPJ/jNRCERABERABERCBeAISPpohIiACIiACIiACIhAiIOGjKSECIiACIiACIlDoBCR8Cn0E1X4REAEREAEREIGsE5DwyTpSVSgCIiACIiACIpBjAhI+OQau04mACIiACIiACOQ/AQmf/B8jtVAEREAEREAERCCegISPZogIiIAIiIAIiIAIhAhI+GhKiIAIiIAIiIAIFDoBCZ9CH0G1XwREQAREQAREIOsEJHyyjlQVioAIiIAIiIAI5JiAhE+Oget0IiACIiACIiAC+U9Awif/x0gtFAEREAEREAERiCcg4aMZIgIiIAIiIAIiIAIhAhI+mhIiIAIiIAIiIAKFTkDCp9BHUO0XAREQAREQARHIOgEJn6wjVYUiIAIiIAIiIAI5JiDhk2PgOp0IiIAIiIAIiED+E5Dwyf8xUgtFQAREQAREQATiCUj4aIaIgAiIgAiIgAiIQIhAeRM+L7zwgnXq1GmVefDLL79Y165d7dlnn7X69eunnCfff/+9HXvssTZ27NiU+0btsHjxYttvv/3s/vvvt8033zzjenSgCIiACIiACJR3AhI+5X0GqP8iIAIiIAIiIAKrEChr4XPvvfdapUqVrEePHmnRv/XWW+2vv/6yCy+8MLE/QmTu3Ll23nnnxdbx+++/22mnnWbfffed1atXz2644QbbeuutE8f8+eeftvvuu9u7775ra6211kp1LV261IYNG2bdunWzypUrp2wrwufEE0+0t956K+W+UTv8999/9uijj9ohhxxi1atXt/fff99xqlOnjrFtp512siuvvNJq165t33zzjXXo0MGxrFChgpNS9PXoo4+2V155xbFhP7ats846dvbZZ9s+++yTcds4cOrUqXbJJZfYlClTHMebb77ZnYMCr4cfftiGDBliDz74YILzjz/+aMccc4yNHj3a1lxzTYP5AQccYM8884y9+OKL9u2331r//v0T7brmmmtsgw02cH/i+kC9/fr1s6+//to22WQTu/baa50ki5sviL0oZnHthF9UefPNN107+Jv+UU4++WQ74ogjbO+99y4V72QHx80J9mdsrrrqKjc/6tata9ddd51tu+227vdll112sS+++MLNGRUREIHiIsA1deDAga5TF1xwgXXu3DmtDsYd9/nnn9uNN95oVapUMT670yn777+/zZs3z31u8vmz8847u88tPmP//fdfGzBggI0aNcr++ecf22GHHeyyyy6zatWquf3efvttq1WrljsN2/l8fu2116xGjRrpnHqVfSR8MsKmg0RABERABERABIqZQFkLn4svvthatWplhx9+eFoYkTW9evVaSaQgYainRYsWsXVcfvnltv7669upp55qTz75pBHN88gjjySOefnll+2MM86wO+64w4mA0pRsCJ/w+bm5f+CBB+yuu+6yJUuWuC/eP/zwg/sZN/RnnXVW4ovzp59+aieddJI9/vjjhrzgS/Itt9ziqpw4caIdd9xxxj4VK1bMuJuHHnqoGwu+0NOGzz77zAYNGuTqu++++2z58uVO5HDTERRrCJEGDRq4cbj99tud9OGGBEGEqOFL/nrrrWe//fabtW3b1s4991wnfKL68Pfff7s2sB/yaOTIkY7Nq6++ar/++mvkfOGmJYpZs2bNnLhJ1s44YIgeRB9yCuFGQfgQ7bXrrrtmzDrqwLg5wRyBBzdQcPzggw9cu9555x13A7bHHnsYN3AqIiACxUUAGX/YYYfZiBEjXMeQPUSnNmzYMLajccfNnDnTfYbwwAExzzU+ncK1eejQoda4cWP3uXXOOefYdttt567LXKv5jHrooYesatWq7u8NN9zQ9t13X/dZ3K5du4So+vDDD+2ee+5xfzItEj6ZktNxIiACIiACIiACRUugNMKH6A6+pHFziYxZtmyZffTRR04AbLPNNu5pHV8iKYgYvpRy4z9u3Di78847XXSLL3w55M+OO+7oljnxxbN58+a2YMEC69Kli4uooPA39c+fP99F8SB5+HJJ4QvkkUceabvttpv99NNP7mb/+eefT5zjzDPPdE8W+VJKZIgvPMnkiyjLuiZPnuyibXwhQuLSSy+1GTNmuC+qV199tW255ZbmhQ9ShGN5SnnFFVe4PlOIUiLC6KWXXnLROgcddJCTVjwFnTRpkp1yyiluvzlz5rjIly222MJF+HjhwzaeeHIjj7SCrZcXvm3UgbhaY401VpIl8EUCEGUTx5oImQMPPNC1v2nTpk4YECHCTQRtbt26tZNHFM5PxBH7cD5fiE6i30HhM3v2bDv44IPtiSeecBFI9I+oGYQP/SMSBqZE9yAniI4JC59gHxA7Tz/99Eo3AsgW5gnniZovQUkWZsZxUe1kX47t27evm7/bb7+9TZ8+3UUm8X8izhh/xpZ+BYVP3PwMCkskFjdASDQKAop6idahXddff721b98+dk4Q6cQ850bLF8YBpjxZl/Ap2su2OlbOCfDZizDnOsrnxGabbbaShI7Ck85xCHmu1ZkIn0WLFrnPKa6vfOY99thj9tVXX7nPzXDhAQyfzzzgoPB5wHWQz9RMi4RPpuR0nAiIgAiIgAiIQNESKK3w4cscAqZly5ZO4iBNiLrwS7KI8uCLXzCixt+MPvXUU+5Gn0gRJACCgptgokjYhyeFzz33nH355ZduaRGFG39CwYnM4GYZycOyKkQK8ummm26ywYMH22233WZ77bWXe5JIYQkS/2f5E08V33vvPXeuYOHL5oQJExLCh8gUlkXxZZW/aZ8XKQggnmwSZUNUBfWxjGrMmDFWs2ZNO//8892SH76Qc3PPjTxigJv0YKFNPB1NJnzYDwZIH9oWFD5EQnXv3t19MUc+cD6ezP7xxx9OzgwfPtxJmFSskTHUgVRCyBF+7+VNx44dDUnG2BFFBAP6ifjyJZnwYRuyi+gfvrwj+Sich6VGiBLG56KLLnLjTvg+8yCqD4wpYqVnz56J8yKOkC9ItKj5EhY+QWY+Z1KydjJXGFvGnagdIsX69OnjnlZzTv7fqFEjJyMRjkHhEzc/feMZEyKCOAdjSGH8+T1hfiHViIRCHoUlYHBOcFMVLPzuIUf5PYCzhE/RXrbVsXJOgOsR1yaifLhmI355mMGy27iSznGZCB8+d1jONWvWLCeq+S5AQUrxGUA7iTr1y7fYxkMR+sASax6ycBzfCfyy4UyGWMInE2o6RgREQAREQAREoKgJlFb4sGSIG16iQUhgzFp9omQQHRRu0snpgtgIFr6k8sWOKBUkCeKBG3sKN+qIBpb4IHSog2VhyQo3zNwkcwNPtAyChAiUadOm2d13350QLNSF7CFyiHPyJdTLIF9vWPjQF+rwYfPsx002EosnqkSW0Fe+aFNYtta7d2+XQ4X8KR9//PEqUinch1TCh6gSJBG5D1i+46OPiG6CO+ekX345FJE5tBuhwtNTljXFsaY9J5xwgouY2mqrrZyY8gVBQvQOQgk2LBHjPMGk1lHCh1w7CCOWGRDtRUH4cGOAmGIceKLL0gFyPQQjfMJ9QLwgFLlp8AURSPQR7YuaL/w8ipmvJ1k7k0VF0QcilrzwoU3coPAEm6ioqCVdwfnpz4mQ5Lw8bfeF+cuND0vd6D9RZIhO5E0w6ov9/ZzwssjXwdxnDBlPCZ+ivmyrc+WcANd+5C7XCq7TfB5xrfXRMlF40jkuE+Hjl3QheJBKXKu9kCYCmHYhzPm8Ov300xNRokRqco3m+sc1lWjT0hQJn9LQ07EiIAIiIAIiIAJFSaC0wofIGpZiIXyITEDcBIUPN6UIknB+k2D0BV8AWfoT3AcZw40xUS1IBp4eUlgOxZdHltgQKcFNMU8FOT9v2SKahCU4HINAQn4gpci7QsQEN9JEJRHNEn4aGhY+JCNGctAOXxA6nItlY4gs5IAv9AMJQLQGX2T9MrS4iZNK+BAphVgioim8pMvXGxQ+/mewoD1EB6ViPX78eJesmi/kcXmSiKxCzgUjo6KED+0mAmvTTTd1eXwoXvgQFUXEFuPDtrDwCfeBZYI8GeY4X0iwzdInxoOSbL4kW9IVHotk7SQyCXkZnB8s1WPeeeGDsCIqiggcIri88Imbn5yb/ZmjRAkFn2Qz95BAvjAORJsx/8LCx8+JYJJo5irCiPwXzHcJn6K8XKtTIuAIIFVYJk1EDRG2PJQg+tLncYvClM5xpRE+nJdrp29TsB08VODhDBGdRDBSuA6yZBdRvfbaa9tRRx1VqhGW8CkVPh0sAiIgAiIgAiJQjATKWvgcf/zxLuLA57YJMuTJHje/RHrwpc9LHfbhZpubY/L4EMVB4QafJ4dERvAFkUIdbGeJDU8UkRe+cE4SRhI1gfhg6RfLrIgyYXkSX0yD+WiSRfhwrmAeIN78hEjhiSpLcIgyIYqGwhNXRAb1EJFDW4hmiStxwoentwgkL0pKInyQI8gYlg15TslYcw5kG+1kiRJ5lYLj4NtOlA/nR+gFSzLhw/IvBBJLtxgTpA7LxHw/iNryJU74+D4gMBA85Ljxhb4gPHz/ks2XVMInqp3MCyQfib8pLPEiwoebqqDwYSkiMo6/ybnDnIian8wH3iIHD27K+H+wpCt8gnOCqCgK85N5jhjyb5+T8CnGq7X6JAIrCHDd5JqHVGcJMZ+hCOTgtTUZq3SOK63wIe8dy5x5EMG10X8+0h6SRvOAiAcylMWLF7vPZh5okDOINw2Wpkj4lIaejhUBERABERABEShKAmUtfFgixBdRIjFef/11t7TLfwEkWTJLj1hiRRRQsBCFg8zhRrZNmzZuExFEfLFlOQ8SgBtyBAtLbRAKRKDw5NDn6OGtTkTgcANP1AZv5/IFEUVOgeBSs6gcPuSa4Uad87I86o033nBJnIkq4Yutfz07S3v4IotEQkhwg097iYihr+wXFkBRwoc8PEgHzsMX+zh5EY7wQTSRTwjh4r9AR7FGpHA8ESJELLEMCwHkRQJ5YFhGxhjRVvYJlmTCh3OTSBu+LDOAPSKpJMIn2AfmD+1COJFkmm3k7kES+mijZPMllfCJaieCxyeWZi4xDkTOhIUPHPyb34j2Idotan4SddajRw/HhX74QsJVXpuejvAJzwl/fm6UGD9u/ChIIb2lqygv1+qUCDgCCHiuvUSwUohY5XOwSZMmCUJEUPLZSTSqL+kcVxrhQ947crHxtjAiEflMJOcbIpzrI//npQkIcl/4bOFhA+0vbZHwKS1BHS8CIiACIiACIlB0BMpa+BBFQd4Awrl5AxdCxiduJGKHp3ssRUn2ZI9lSXwJ5IaYws0xr9JG/PAzJADLkEi8S8QEEUFE+/AUkYgf/s0XXuQLX3qJyPEF0fHJJ5+4Y/liTJQESW/5corw8K/cZskYb2v6+eefbeONN3Y39P4tXciqdddd1yWS5nx8iSUiicKXWuQQkoC2suSHvES+L74dtJslabxpifYT1eITWbPEDdmEcEklfMjfwg0/9W+00UZORPFWLV+SsSbfAlINFuQJIu8RORaQNHAgPw1RI3yJJ3Ez7MPRP2HhM2XKFPcEF7mH+GLZHdwZAxKLEl0VFeET1wfGFMnDePh8Dz7xsu9jeL7EMYtrJ5KLpVmcj4geckghdngVfDDCx58XBshF5lrU/EQiMQeQV8hKCmKGuYdcihM+UXOCOjiOqDUfqQZv5iO/Y8wtotuCBUnK/FARAREobAJct/1yY5Zqcf0LFq7lCHLEe7CkOi4T4cNnCUKH6xBRqXz+cF3i85/cPOQiYzuf9zwECiZv5rOX7wfhdmYyOhI+mVDTMSIgAiIgAiIgAkVNoDTCp6jBlFHnEB5ILKQIkUdIDiJW+DKskpoAT4qJ6opK4p26hsz2QIwhfLzQy6wWHSUCIiACIlBWBCR8yoqs6hUBERABERABEShYAhI+uR26hQsXuigQEmzylNO/+ju3rSjcs5EIm8gtIpaI7gpH+ZRVzyR8yoqs6hUBERCB7BCQ8MkOR9UiAiIgAiIgAiJQRAQkfIpoMNUVERABERABESinBCR8yunAq9siIAIiIAIiIALRBCR8NDtEQAREQAREQAQKnYCET6GPoNovAiIgAiIgAiKQdQISPllHqgpFQAREQAREQARyTEDCJ8fAdToREAEREAEREIH8JyDhk/9jpBaKgAiIgAiIgAjEE5Dw0QwRAREQAREQAREQgRABCR9NCREQAREQAREQgUInIOFT6COo9ouACIiACIiACGSdgIRP1pGqQhEQAREQAREQgRwTkPDJMXCdTgREQAREQAREIP8JSPjk/xiphSIgAiIgAiIgAvEEJHw0Q0RABERABERABEQgREDCR1NCBERABERABESg0AlI+BT6CKr9IiACIiACIiACWScg4ZN1pKpQBERABERABEQgxwQkfHIMXKcTAREQAREQARHIfwISPvk/RmqhCIiACIiACIhAPAEJH80QERABERABERABEQgRkPDRlBABERABERABESh0AhI+hT6Car8IiIAIiIAIiEDWCUj4ZB2pKhQBERABERABEcgxAQmfHAPX6URABERABERABPKfgIRP/o+RWigCIiACIiACIhBPQMJHM0QEREAEREAEREAEQgQkfDQlREAEREAEREAECp2AhE+hj6DaLwIiIAIiIAIikHUCEj5ZR6oKRUAEREAEREAEckxAwifHwHU6ERABERABERCB/Ccg4ZP/Y6QWioAIiIAIiIAIxBOQ8NEMEQEREAEREAEREIEQAQkfTQkREAEREAEREIFCJyDhU+gjqPaLgAiIgAiIgAhknYCET9aRqkIREAEREAEREIEcE5DwyTFwnU4EREAEREAERCD/CUj45P8YqYUiIAIiIAIiIALxBCR8NENEQAREQAREQAREIERAwkdTQgREQAREQAREoNAJSPgU+giq/SIgAiIgAiIgAlknIOGTdaSqUAREQAREQAREIMcEJHxyDFynEwEREAEREAERyH8CEj75P0ZqoQiIgAiIgAiIQDwBCR/NEBEQAREQAREQAREIEZDw0ZQQAREQAREQAREodAISPoU+gmq/CIiACIiACIhA1glI+GQdqSoUAREQAREQARHIMQEJnxwD1+lEQAREQAREQATyn4CET/6PkVooAiIgAiIgAiIQT0DCRzNEBERABERABERABEIEJHw0JURABERABERABAqdgIRPoY+g2i8CIiACIiACIpB1AhI+WUeqCkVABERABERABHJMQMInx8B1OhEQAREQAREQgfwnIOGT/2OkFoqACIiACIiACMQTkPDRDBEBERABERABERCBEAEJH00JERABERABERCBQicg4VPoI6j2i4AIiIAIiIAIZJ2AhE/WkapCERABERABERCBHBOQ8MkxcJ1OBERABERABEQg/wlI+OT/GKmFIiACIiACIiAC8QQkfDRDREAEREAEREAERCBEQMJHU0IEREAEREAERKDQCUj4FPoIqv0iIAIiIAIiIAJZJyDhk3WkqlAEREAEREAERCDHBCR8cgxcpxMBERABERABEch/AhI++T9GaqEIiIAIiIAIiEA8AQkfzRAREAEREAEREAERCBGQ8NGUEAEREAEREAERKHQCEj6FPoJqvwiIgAiIgAiIQNYJSPhkD+ny5cutSpUqJa7QH/f999/bsccea2PHji1xHVEHlEWdWWtciooy5Zmr9uk8IiACIiAC+UNAwid/xkItEQEREAEREAERyBMC+Sh8rrnmGnv00UetUqVKjlLdunVtzJgx7t+TJk2yK664wmbPnm21atWy008/3Q444AC37ccff7R+/frZ119/bZtssolde+21tvnmm9s333xjBx54oK211lorUX/mmWds0003jR2JKVOm2FVXXeXqoB3XXXedbbvttvbYY4/ZuHHj7I477nDHf/jhh9a3b18bPny4XXTRRXbaaae5/aZOnWqNGjWyP/74w0455RTX1qjj5s2bZyeeeKK99dZbSdu044472t9//20VKlRIbH/hhRdsww03jOwDwieuzkym4aeffmqHHnqoGx/+bLTRRnbOOedYx44dU1a3++6728yZMxP70ZfJkyfb008/HcllnXXWiRxbKlqwYIFdfvnl9u6777o5cdxxx9nxxx+fsi1RY8tYd+jQwfWN9tWvX9+N59FHH52yzqgd5s6da7vssot98cUXiXmdTmWZsr711lvtr7/+sgsvvDBxmvvvv99ox3nnnZfOqbWPCIhADgjcfffd9vDDD7sznX/++XbwwQcnzhq3La5ppa3zq6++skMOOcT4O1XZf//9jc+uypUru+vlzjvvbFdeeaX7vP33339twIABNmrUKPvnn39shx12sMsuu8yqVavm9nv77bfdNZvCdj4fXnvtNatRo0aq0ybdLuGTETYdJAIiIAIiIAIiUMwE8lH4cJOKGNljjz1WQb/PPvs4qbPXXnvZrFmzbODAgXb99dc7EcIXz3PPPdcdO3LkSLvxxhvt1VdftenTpztJ9MQTT5RoKJcsWeLq4gtq27Zt7YMPPnA3y++88449/vjj9vHHH9stt9ziZESPHj3s3nvvdQKJL7hNmza1ww47zE444QQnhb777jsbNmyYbbnllpHHpZIzCB++OCNA0i2p6ky3nuB+SIj+/fvbiBEjjCgceJx11llOyiHF0i3PP/+8G6f77rvPCbQonsuWLYscW24cunbt6mQT0VGINcb67LPPdtIvqsSNLSKI/vibFPp70kknuTFv1qxZut1baT9EC/P5888/L9HxmbJmvvXq1WsleditWze7+OKLrUWLFiVqg3YWAREoGwJcO2+//XZ3DeQz7PDDD7ehQ4e6z5G4bXGtKW2diBeEPnL622+/TdlxPndpc+PGjY3rKvJ/u+22c9cfru9cNx966CGrWrWq+5sHFPvuu6+dccYZ1q5dO+vcubM7Bw9N7rnnHvcn0yLhkyk5HScCIiACIiACIlC0BEojfIYMGeK+pPF0j5tIbsw/+ugjJ2FatWrlliYREcNTPr7M9uzZ04488kjHMnjTyTa+DH722Wdu26mnnuq+LFJHuCA9XnrpJatXr95KmxA7RIkEvywSlbHffvu5m/Q44cN2oh+I5CFyCIHUvn17V/9PP/3kvsj6svXWW7sv4rQBQYF8OuKII9wTzV133dXt9tRTTzkJhHQgyoenrQsXLrQZM2a4fkYd5+UMX7b5YsyTT9rNU09KnPD55ZdfXJTLr7/+6p6eEiVFv+Lq9Nt4ooysYZwQZsit+fPnu6go2oG8QnYxlkgexskLH8+lU6dOrq2tW7e2qLaExxIZxlNkpJoXPsl4xo1tgwYN7KabbnIyLVyQNGeeeaa1bNnSzUueLk+cONGJOW6yosYWkeiFj6+T6CyifngqzQ0KUVq+bLPNNu7/jC99gqWPwuKcr7zyilWsWDFS+MT9HlFPHOu43yPmPkKyefPmLgqqS5cu9uabbxbttUwdE4FCIzB48GAXzcJ1g8J1ietw7969LW5bXD9LWyefoVwbn3zyyRILn0WLFrlrJ58pBx10kLuuEyV09dVXr9Lkl19+2ZD+d911l9vmP7P4/Mu0SPhkSk7HiYAIiIAIiIAIFC2B0gofvswheLipvvPOO93NPtLBR+lccsklToT89ttv7kab5U7BwpdbIjN4Sti9e3e3iaUzf/75pztms802cxE2PlqDcyAALr30Utt+++0TVXHTT+QLUsmXBx54wC0fQirECZ8tttjCfTnlPIgNloIluzGmb9w0I7n4IovQQhBRf3C5zyeffOK+xNIW6qL/a6+9tusLbKKOQ8DAAVFBJNF7773npBECoWbNmk74/PfffwmZgJjae++93c/UTUP5AAAQ5ElEQVRo18knn+ykBPsTZcQX6h9++CGyTtqO1GEZAW1FWBCVxJdwInVefPFFt9TgkUcecZKDOhFewagTzs3/kWuvv/66u3mJaktwKRqSkGgtRMmaa64ZyzNubNdff303BsGlS378Bw0aZAghbiCQh4wpETbjx49fZf/g2LKkKyh8iJZhbsKidu3arn/JhE/16tWd/ONmjTFH+sEF4RMX4YPwifo9Qjx64RNmzZzwJdnvEf3n5zxxf+655+zLL780fh9VREAE8oMAn2U8bOChAKKe6wefdTfffLP7nIvaFtf60tTJEmSWABMNi9xON8KHyEqu78hyrll8TlP4DOf6y+cKS2398i22seSU6yRLcbl2chwPS7jGZlokfDIlp+NEQAREQAREQASKlkBphQ+RC4gGIjsQGSyDIScLQoYvre+//74TCsiZ4A2/B8rTSHLucNPrCwKJJVuEhRO1Q7g78oJzUbhx9/sTEUKEBdEtSCe+WPrCTS4RHUcdddQqOXw4jvB5Cnl++NK53nrrOXnCsitujv35fH3cOG+11VbuaSzCh6ge/k9YOrmEfOHLL19yiVyhbbfddpvbjy/SSJyo4xA+RGXAjy//FNqIQCDKJyrChy/lhMfzRd+X3XbbzT2h5Ut1VJ2E1tNGzueTTRNZRbQOAoxCX4n2of1EQFEQPCyjIkcDUV2INqJ/WLIU15ZgriFuKIh0YqwpcTzjxhYx5Z+I01eik4gYY6zYhpzjJoo5gPRbunSp287/gyU4tggfuHATQiGajDnOWHiBGCV8kGXkYEK28KQccYk8SiV8on6PEHJRrIPtT/Z7RD+IcCInBvMDqZcsaq5oL27qmAgUAAGW/CI6+HxEUJPzjWgXSty2uK5lWidim+vETjvt5KJT0xU+fkkXgqdPnz7uc9jnIkLu8wCE5V1cQ/msXGONNVzzEeJca/kMJgqIiNLSFAmf0tDTsSIgAiIgAiIgAkVJoLTCh0SNSAKED9ExRIV44QOw0aNHuwiRadOmuagVn2CZbcigCy64wEg8HPdUj0gQpE9waRXHc2NNZAfJl0mWzNNDomN8YZkP0R8Ij1RLupBOvrBMZsKECW75lS8PPvigk0LcxHNz7pM288WcPvGEFiniCwl6iRyi3QgU2kYiatqELEh2HMLnmGOOWSl6hC/HPPnky3OU8KFd3NCTPNkXJA1tInomqk76GX4rGCKMJ8x+iQHRMOR+4cu6Xz4UjPDx+SKQS5S4tgT5cGNBYmVkGSWOJxE+UWNL5BQ3JUTB+IIMZOyom/kBO4QLETdEBPFUuU2bNpFjG47wCf7ipxI+CCVkJeKTGyefzymV8In6PUL4+AifMGvfrrjfI3JlIIOQToifZNK1KC9s6pQIFCABPiP4zEJAh0vctriuplsn13CiQ4nOWbx4cUbCh3bw4AeRz/LfYOEziShaokCJfKXw2c+DCj4buJaHRXxJh1DCp6TEtL8IiIAIiIAIiEDREyhL4cPNr5cmLFkhf49/k9Lvv//ubsTJMUKek2AJLlvi5wgfnliSkyb8qm6+GLOdCBVkCiHwviCTWPKEwCiN8CFqg8STLBHzb/oKJhnm5p5+IEV8f+krX2B58sm5uSlnv7jjED5E1hCV5CNuWD7EMhwYRQkfBAX7IL7CJa5OInM4HwLHP3El+TQRMSwtYxxYqlanTh2XA4YbB4RBUPhwPsYR1oiUuLb4tvHEd88993TRN55XHBdERdTYEjXEsrc33ngjITO88KEvRB0R7USyYsaEZXWwIpqLkmxs44QPN0KMAwlNKUTwIMKQnD4iiCfVRGghaKifkg3hE2bN/+N+j9juo+zI48M8VBEBEchfAkRz8oAAURsucdviepRuncgWlhzz2cO1H0HepEkTd+2NS8YfTNpMO7g28nCHpazhz2uWjPGAiGs6hespUZlENvFwpCRJ/5P1WcInf+e2WiYCIiACIiACIrCaCJSV8EHEEOHAUh++NPJFD3nBa1h5wsfNOEu2iDzwhbeDIBSIKCF5MMvAkCg8LWQZF6KAL688JSR6hmVXLJMiumeDDTZwb2qiPqIiiEzhJp+nhySgzFT4sJSML6JE+PicKXwZDr6li/azdAaJQIQMhVe0IxeIYkH0cOOPiAiKjfBxyBm+6PNl2b9KHX58OUbIRAkfljTBlqgcBA6iDV7k84mrk7eXcT7GitB6nswibnwuHr7o86WdvhMlBF8EUFj4wBgZxv5xbfHjjJiCSTDBdhwXbhqixhZhxI0Kc4kxYA4R1UPEGfOP5VCIGNpHHxGP/rX3UWMbfEtXsl9L/zY42LF0CxmJpPPCh7xJRBeRr8pHnGVL+ARZMw+jfo94pTyF/hKBxnwNRjWtpsuNTisCIhAgQJJjroUsgeIzi+sv8prrfdw2XwXRj/xeI7V9KW2dXsRksqQLAc4S7oYNG7rrMJ9fSHn6RxQj/+dNXuSf84WE+DxQKOlbNCV89KskAiIgAiIgAiIgAmkQKCvhg/hgKRd/EDXIEr+kizw2LCViGZfPk8PNK19eichhOyHfJNJFFvEl0b8Omwge1vnPmTPHPRVEDHEDTkEqIXkQQT4nAH8TscFT02CSW/YnnJwvo9QdtaSLbSyL8hEwCA3yCiFH/GvEqYtIC9px6623umSXtJOIF8QUoewkrKb/YbERPK5+/fou38+6667rzkEuB74YE51BSfWWLkQYy5u42UfQIDwQPlF1sg0hRYQO7WK5E0vNyPNCLgZEARKHCCmW5JF/4dlnn3WJOYNvjmLskEtINW4+GLdkbfHTkbewseSNNvoSxwWeUWPL8X6pANFjzClEDPKHZWDk/2H8mBdEKDHmCEJK1NgizMJv6Qr+KvHGL27M6DfzGCHG8oXg02nGihxSPm8RwocoLR9Z5OtjGQVtSmdJF8cEWZOLKO73yJ8D6cXNlJdAaVwWtIsIiEAOCLBEFDHMtZhrF597JManxG3zTeOazAMOEiL7Uto6qaekS7r4vOAaxuckS5D5rOO6S5QQEY9Ec7KdaB5ywQWTN/MwhGt4sA+ZoleET6bkdJwIiIAIiIAIiEDREiiN8MlXKDxNZNmOEtTGj5AXPoiSQin5PLYshyDBM6+tR7KVNgFpoYyJ2ikCIiAC+UBAwicfRkFtEAEREAEREAERyCsCxSh8WM5EtAnJL1kSRpSPyqoEClH45PPYEg2F6OHp9e23325NmzbVtBMBERABEcgRAQmfHIHWaURABERABERABAqHQDEKn8Khr5aKgAiIgAiIgAhkg4CETzYoqg4REAEREAEREIGiIiDhU1TDqc6IgAiIgAiIQLkkIOFTLoddnRYBERABERABEYgjIOGj+SECIiACIiACIlDoBCR8Cn0E1X4REAEREAEREIGsE5DwyTpSVSgCIiACIiACIpBjAhI+OQau04mACIiACIiACOQ/AQmf/B8jtVAEREAEREAERCCegISPZogIiIAIiIAIiIAIhAhI+GhKiIAIiIAIiIAIFDoBCZ9CH0G1XwREQAREQAREIOsEJHyyjlQVioAIiIAIiIAI5JiAhE+Oget0IiACIiACIiAC+U9Awif/x0gtFAEREAEREAERiCcg4aMZIgIiIAIiIAIiIAIhAhI+mhIiIAIiIAIiIAKFTkDCp9BHUO0XAREQAREQARHIOgEJn6wjVYUiIAIiIAIiIAI5JiDhk2PgOp0IiIAIiIAIiED+E5Dwyf8xUgtFQAREQAREQATiCUj4aIaIgAiIgAiIgAiIQIiAhI+mhAiIgAiIgAiIQKETkPAp9BFU+0VABERABERABLJOQMIn60hVoQiIgAiIgAiIQI4JSPjkGLhOJwIiIAIiIAIikP8EJHzyf4zUQhEQAREQAREQgXgCEj6aISIgAiIgAiIgAiIQIiDhoykhAiIgAiIgAiJQ6AQkfAp9BNV+ERABERABERCBrBOQ8Mk6UlUoAiIgAiIgAiKQYwISPjkGrtOJgAiIgAiIgAjkPwEJn/wfI7VQBERABERABEQgnoCEj2aICIiACIiACIiACIQISPhoSoiACIiACIiACBQ6AQmfQh9BtV8EREAEREAERCDrBCR8so5UFYqACIiACIiACOSYgIRPjoHrdCIgAiIgAiIgAvlPQMIn/8dILRQBERABERABEYgnIOGjGSICIiACIiACIiACIQISPpoSIiACIiACIiAChU5AwqfQR1DtFwEREAEREAERyDoBCZ+sI1WFIiACIiACIiACOSYg4ZNj4DqdCIiACIiACIhA/hOQ8Mn/MVILRUAEREAEREAE4glI+GiGiIAIiIAIiIAIiECIgISPpoQIiIAIiIAIiEChE5DwKfQRVPtFQAREQAREQASyTkDCJ+tIVaEIiIAIiIAIiECOCUj45Bi4TicCIiACIiACIpD/BCR88n+M1EIREAEREAEREIF4AhI+miEiIAIiIAIiIAIiECIg4aMpIQIiIAIiIAIiUOgEJHwKfQTVfhEQAREQAREQgawTkPDJOlJVKAIiIAIiIAIikGMCEj45Bq7TiYAIiIAIiIAI5D8BCZ/8HyO1UAREQAREQAREIJ6AhI9miAiIgAiIgAiIgAiECEj4aEqIgAiIgAiIgAgUOgEJn0IfQbVfBERABERABEQg6wQkfLKOVBWKgAiIgAiIgAjkmICET46B63QiIAIiIAIiIAL5T0DCJ//HSC0UAREQAREQARGIJyDhoxkiAiIgAiIgAiIgAiECEj6aEiIgAiIgAiIgAoVOQMKn0EdQ7RcBERABERABEcg6AQmfrCNVhSIgAiIgAiIgAjkmIOGTY+A6nQiIgAiIgAiIQP4TkPDJ/zFSC0VABERABERABOIJSPhohoiACIiACIiACIhAiICEj6aECIiACIiACIhAoROQ8Cn0EVT7RUAEREAEREAEsk5AwifrSFWhCIiACIiACIhAjglI+OQYuE4nAiIgAiIgAiKQ/wQkfPJ/jNRCERABERABERCBeAISPpohIiACIiACIiACIhAiIOGjKSECIiACIiACIlDoBCR8Cn0E1X4REAEREAEREIGsE5DwyTpSVSgCIiACIiACIpBjAhI+OQau04mACIiACIiACOQ/AQmf/B8jtVAEREAEREAERCCegISPZogIiIAIiIAIiIAIhAhI+GhKiIAIiIAIiIAIFDoBCZ9CH0G1XwREQAREQAREIOsEJHyyjlQVioAIiIAIiIAI5JiAhE+Oget0IiACIiACIiAC+U9Awif/x0gtFAEREAEREAERiCcg4aMZIgIiIAIiIAIiIAIhAhI+mhIiIAIiIAIiIAKFTkDCp9BHUO0XAREQAREQARHIOgEJn6wjVYUiIAIiIAIiIAI5JiDhk2PgOp0IiIAIiIAIiED+E5Dwyf8xUgtFQAREQAREQATiCUj4aIaIgAiIgAiIgAiIQIiAhI+mhAiIgAiIgAiIQKETkPAp9BFU+0VABERABERABLJOQMIn60hVoQiIgAiIgAiIQI4JSPjkGLhOJwIiIAIiIAIikP8EJHzyf4zUQhEQAREQAREQgXgCEj6aISIgAiIgAiIgAiIQIiDhoykhAiIgAiIgAiJQ6AQkfAp9BNV+ERABERABERCBrBOQ8Mk6UlUoAiIgAiIgAiKQYwISPjkGrtOJgAiIgAiIgAjkPwEJn/wfI7VQBERABERABEQgnoCEj2aICIiACIiACIiACIQISPhoSoiACIiACIiACBQ6AQmfQh9BtV8EREAEREAERCDrBCR8so5UFYqACIiACIiACOSYQJzw+T+TaKzSQKj2lAAAAABJRU5ErkJggg==;" parent="1" vertex="1">
          <mxGeometry x="90.64" y="-380" width="679.36" height="239.08" as="geometry" />
        </mxCell>
        <mxCell id="WFGwZHM4DOjRg_3Tu2fw-48" value="" style="ellipse;whiteSpace=wrap;html=1;aspect=fixed;fillColor=#FFFFFF;" parent="1" vertex="1">
          <mxGeometry x="123" y="300" width="20" height="20" as="geometry" />
        </mxCell>
        <mxCell id="WFGwZHM4DOjRg_3Tu2fw-51" value="&lt;span style=&quot;color: rgba(0 , 0 , 0 , 0.87) ; font-family: &amp;#34;lato&amp;#34; , &amp;#34;helvetica neue&amp;#34; , &amp;#34;arial&amp;#34; , &amp;#34;helvetica&amp;#34; , sans-serif ; font-size: 14px ; background-color: rgb(255 , 255 , 255)&quot;&gt;Skip registration with Proxy Provider&lt;br&gt;&lt;/span&gt;" style="text;html=1;strokeColor=none;fillColor=none;align=left;verticalAlign=middle;whiteSpace=wrap;rounded=0;fontStyle=1" parent="1" vertex="1">
          <mxGeometry x="148" y="340" width="550" height="25" as="geometry" />
        </mxCell>
        <mxCell id="WFGwZHM4DOjRg_3Tu2fw-52" value="" style="ellipse;whiteSpace=wrap;html=1;aspect=fixed;fillColor=#FFFFFF;" parent="1" vertex="1">
          <mxGeometry x="123" y="345" width="20" height="20" as="geometry" />
        </mxCell>
        <mxCell id="WFGwZHM4DOjRg_3Tu2fw-53" value="&lt;span style=&quot;color: rgba(0 , 0 , 0 , 0.87) ; font-family: &amp;#34;lato&amp;#34; , &amp;#34;helvetica neue&amp;#34; , &amp;#34;arial&amp;#34; , &amp;#34;helvetica&amp;#34; , sans-serif ; font-size: 14px ; background-color: rgb(255 , 255 , 255)&quot;&gt;Note: You can register with Proxy provider later&lt;br&gt;&lt;/span&gt;" style="text;html=1;strokeColor=none;fillColor=none;align=left;verticalAlign=middle;whiteSpace=wrap;rounded=0;fontStyle=1" parent="1" vertex="1">
          <mxGeometry x="123" y="400" width="550" height="25" as="geometry" />
        </mxCell>
        <mxCell id="WFGwZHM4DOjRg_3Tu2fw-54" value="&lt;span style=&quot;color: rgba(0 , 0 , 0 , 0.87) ; font-family: &amp;#34;lato&amp;#34; , &amp;#34;helvetica neue&amp;#34; , &amp;#34;arial&amp;#34; , &amp;#34;helvetica&amp;#34; , sans-serif ; font-size: 14px ; background-color: rgb(255 , 255 , 255)&quot;&gt;I Know what I&#39;m doing&lt;br&gt;&lt;/span&gt;" style="text;html=1;strokeColor=none;fillColor=none;align=left;verticalAlign=middle;whiteSpace=wrap;rounded=0;fontStyle=1" parent="1" vertex="1">
          <mxGeometry x="148" y="440" width="550" height="25" as="geometry" />
        </mxCell>
        <mxCell id="WFGwZHM4DOjRg_3Tu2fw-55" value="" style="rounded=1;whiteSpace=wrap;html=1;fillColor=#FFFFFF;" parent="1" vertex="1">
          <mxGeometry x="120" y="440" width="20" height="20" as="geometry" />
        </mxCell>
        <mxCell id="WFGwZHM4DOjRg_3Tu2fw-57" value="" style="endArrow=none;html=1;" parent="1" edge="1">
          <mxGeometry width="50" height="50" relative="1" as="geometry">
            <mxPoint x="28" y="690" as="sourcePoint" />
            <mxPoint x="768" y="690" as="targetPoint" />
          </mxGeometry>
        </mxCell>
        <mxCell id="WFGwZHM4DOjRg_3Tu2fw-58" value="" style="shape=image;html=1;verticalAlign=top;verticalLabelPosition=bottom;labelBackgroundColor=#ffffff;imageAspect=0;aspect=fixed;image=https://cdn4.iconfinder.com/data/icons/fugue/icon_shadowless/ui-button-navigation-back.png" parent="1" vertex="1">
          <mxGeometry x="48" y="640" width="50" height="50" as="geometry" />
        </mxCell>
        <mxCell id="WFGwZHM4DOjRg_3Tu2fw-59" value="&lt;div style=&quot;text-align: left&quot;&gt;&lt;font face=&quot;lato, helvetica neue, arial, helvetica, sans-serif&quot;&gt;&lt;span style=&quot;font-size: 20px ; background-color: rgb(255 , 255 , 255)&quot;&gt;&lt;b&gt;Pick a proxy provider to register your name&lt;/b&gt;&lt;/span&gt;&lt;/font&gt;&lt;/div&gt;" style="text;html=1;strokeColor=none;fillColor=none;align=center;verticalAlign=middle;whiteSpace=wrap;rounded=0;" parent="1" vertex="1">
          <mxGeometry x="104" y="650" width="452" height="25" as="geometry" />
        </mxCell>
        <mxCell id="WFGwZHM4DOjRg_3Tu2fw-60" value="" style="shape=image;html=1;verticalAlign=top;verticalLabelPosition=bottom;labelBackgroundColor=#ffffff;imageAspect=0;aspect=fixed;image=https://cdn4.iconfinder.com/data/icons/fugue/icon_shadowless/cross-button.png" parent="1" vertex="1">
          <mxGeometry x="718" y="645" width="30" height="30" as="geometry" />
        </mxCell>
        <mxCell id="WFGwZHM4DOjRg_3Tu2fw-61" value="" style="ellipse;whiteSpace=wrap;html=1;aspect=fixed;fillColor=#FFFFFF;" parent="1" vertex="1">
          <mxGeometry x="63" y="780" width="20" height="20" as="geometry" />
        </mxCell>
        <mxCell id="WFGwZHM4DOjRg_3Tu2fw-62" value="" style="ellipse;whiteSpace=wrap;html=1;aspect=fixed;" parent="1" vertex="1">
          <mxGeometry x="63" y="700" width="20" height="20" as="geometry" />
        </mxCell>
        <mxCell id="WFGwZHM4DOjRg_3Tu2fw-63" value="" style="ellipse;whiteSpace=wrap;html=1;aspect=fixed;" parent="1" vertex="1">
          <mxGeometry x="63" y="740" width="20" height="20" as="geometry" />
        </mxCell>
        <mxCell id="WFGwZHM4DOjRg_3Tu2fw-64" value="&lt;span style=&quot;color: rgba(0 , 0 , 0 , 0.87) ; font-family: &amp;#34;lato&amp;#34; , &amp;#34;helvetica neue&amp;#34; , &amp;#34;arial&amp;#34; , &amp;#34;helvetica&amp;#34; , sans-serif ; font-size: 14px ; background-color: rgb(255 , 255 , 255)&quot;&gt;Register name with &quot;First proxy provider&quot;&lt;br&gt;&lt;/span&gt;" style="text;html=1;strokeColor=none;fillColor=none;align=left;verticalAlign=middle;whiteSpace=wrap;rounded=0;fontStyle=1" parent="1" vertex="1">
          <mxGeometry x="129" y="730" width="550" height="25" as="geometry" />
        </mxCell>
        <mxCell id="WFGwZHM4DOjRg_3Tu2fw-67" value="&lt;span style=&quot;color: rgba(0 , 0 , 0 , 0.87) ; font-family: &amp;#34;lato&amp;#34; , &amp;#34;helvetica neue&amp;#34; , &amp;#34;arial&amp;#34; , &amp;#34;helvetica&amp;#34; , sans-serif ; font-size: 14px ; background-color: rgb(255 , 255 , 255)&quot;&gt;OR&lt;br&gt;&lt;/span&gt;" style="text;html=1;strokeColor=none;fillColor=none;align=left;verticalAlign=middle;whiteSpace=wrap;rounded=0;fontStyle=1" parent="1" vertex="1">
          <mxGeometry x="131" y="820" width="44" height="25" as="geometry" />
        </mxCell>
        <mxCell id="WFGwZHM4DOjRg_3Tu2fw-69" value="&lt;span style=&quot;color: rgba(0 , 0 , 0 , 0.87) ; font-family: &amp;#34;lato&amp;#34; , &amp;#34;helvetica neue&amp;#34; , &amp;#34;arial&amp;#34; , &amp;#34;helvetica&amp;#34; , sans-serif ; font-size: 14px ; background-color: rgb(255 , 255 , 255)&quot;&gt;Pick a proxy provider from the list below&lt;br&gt;&lt;/span&gt;" style="text;html=1;strokeColor=none;fillColor=none;align=left;verticalAlign=middle;whiteSpace=wrap;rounded=0;fontStyle=1" parent="1" vertex="1">
          <mxGeometry x="131" y="860" width="550" height="25" as="geometry" />
        </mxCell>
        <mxCell id="WFGwZHM4DOjRg_3Tu2fw-70" value="&lt;span style=&quot;color: rgba(0 , 0 , 0 , 0.87) ; font-family: &amp;#34;lato&amp;#34; , &amp;#34;helvetica neue&amp;#34; , &amp;#34;arial&amp;#34; , &amp;#34;helvetica&amp;#34; , sans-serif ; font-size: 14px ; background-color: rgb(255 , 255 , 255)&quot;&gt;Proxy provider 1&lt;br&gt;&lt;/span&gt;" style="text;html=1;strokeColor=none;fillColor=none;align=left;verticalAlign=middle;whiteSpace=wrap;rounded=0;fontStyle=1" parent="1" vertex="1">
          <mxGeometry x="156" y="920" width="124" height="25" as="geometry" />
        </mxCell>
        <mxCell id="0ypiinrUx9c20DkoJLy9-1" value="" style="rounded=0;whiteSpace=wrap;html=1;" parent="1" vertex="1">
          <mxGeometry x="24" y="1160" width="740" height="420" as="geometry" />
        </mxCell>
        <mxCell id="0ypiinrUx9c20DkoJLy9-2" value="" style="endArrow=none;html=1;" parent="1" edge="1">
          <mxGeometry width="50" height="50" relative="1" as="geometry">
            <mxPoint x="24" y="1220" as="sourcePoint" />
            <mxPoint x="764" y="1220" as="targetPoint" />
          </mxGeometry>
        </mxCell>
        <mxCell id="0ypiinrUx9c20DkoJLy9-3" value="" style="shape=image;html=1;verticalAlign=top;verticalLabelPosition=bottom;labelBackgroundColor=#ffffff;imageAspect=0;aspect=fixed;image=https://cdn4.iconfinder.com/data/icons/fugue/icon_shadowless/ui-button-navigation-back.png" parent="1" vertex="1">
          <mxGeometry x="44" y="1170" width="50" height="50" as="geometry" />
        </mxCell>
        <mxCell id="0ypiinrUx9c20DkoJLy9-4" value="&lt;div style=&quot;text-align: left&quot;&gt;&lt;font face=&quot;lato, helvetica neue, arial, helvetica, sans-serif&quot;&gt;&lt;span style=&quot;font-size: 20px ; background-color: rgb(255 , 255 , 255)&quot;&gt;&lt;b&gt;Select number of addresses&lt;/b&gt;&lt;/span&gt;&lt;/font&gt;&lt;/div&gt;" style="text;html=1;strokeColor=none;fillColor=none;align=center;verticalAlign=middle;whiteSpace=wrap;rounded=0;" parent="1" vertex="1">
          <mxGeometry x="24" y="1182.5" width="452" height="25" as="geometry" />
        </mxCell>
        <mxCell id="0ypiinrUx9c20DkoJLy9-5" value="" style="shape=image;html=1;verticalAlign=top;verticalLabelPosition=bottom;labelBackgroundColor=#ffffff;imageAspect=0;aspect=fixed;image=https://cdn4.iconfinder.com/data/icons/fugue/icon_shadowless/cross-button.png" parent="1" vertex="1">
          <mxGeometry x="714" y="1175" width="30" height="30" as="geometry" />
        </mxCell>
        <mxCell id="0ypiinrUx9c20DkoJLy9-6" value="" style="ellipse;whiteSpace=wrap;html=1;aspect=fixed;fillColor=#FFFFFF;" parent="1" vertex="1">
          <mxGeometry x="59" y="1310" width="20" height="20" as="geometry" />
        </mxCell>
        <mxCell id="0ypiinrUx9c20DkoJLy9-7" value="" style="ellipse;whiteSpace=wrap;html=1;aspect=fixed;" parent="1" vertex="1">
          <mxGeometry x="59" y="1230" width="20" height="20" as="geometry" />
        </mxCell>
        <mxCell id="0ypiinrUx9c20DkoJLy9-8" value="" style="ellipse;whiteSpace=wrap;html=1;aspect=fixed;" parent="1" vertex="1">
          <mxGeometry x="59" y="1270" width="20" height="20" as="geometry" />
        </mxCell>
        <mxCell id="0ypiinrUx9c20DkoJLy9-9" value="&lt;span style=&quot;color: rgba(0 , 0 , 0 , 0.87) ; font-family: &amp;#34;lato&amp;#34; , &amp;#34;helvetica neue&amp;#34; , &amp;#34;arial&amp;#34; , &amp;#34;helvetica&amp;#34; , sans-serif ; font-size: 14px ; background-color: rgb(255 , 255 , 255)&quot;&gt;Name&lt;br&gt;&lt;/span&gt;" style="text;html=1;strokeColor=none;fillColor=none;align=left;verticalAlign=middle;whiteSpace=wrap;rounded=0;fontStyle=1" parent="1" vertex="1">
          <mxGeometry x="125" y="1260" width="55" height="25" as="geometry" />
        </mxCell>
        <mxCell id="0ypiinrUx9c20DkoJLy9-10" value="Proceed" style="rounded=1;whiteSpace=wrap;html=1;fillColor=#FFFF00;fontStyle=1" parent="1" vertex="1">
          <mxGeometry x="600" y="1520" width="120" height="30" as="geometry" />
        </mxCell>
        <mxCell id="0ypiinrUx9c20DkoJLy9-11" value="&lt;span style=&quot;color: rgba(0 , 0 , 0 , 0.87) ; font-family: &amp;#34;lato&amp;#34; , &amp;#34;helvetica neue&amp;#34; , &amp;#34;arial&amp;#34; , &amp;#34;helvetica&amp;#34; , sans-serif ; font-size: 14px ; background-color: rgb(255 , 255 , 255)&quot;&gt;No. of Addresses&lt;br&gt;&lt;/span&gt;" style="text;html=1;strokeColor=none;fillColor=none;align=left;verticalAlign=middle;whiteSpace=wrap;rounded=0;fontStyle=1" parent="1" vertex="1">
          <mxGeometry x="122.5" y="1300" width="128" height="25" as="geometry" />
        </mxCell>
        <mxCell id="0ypiinrUx9c20DkoJLy9-16" value="Proceed" style="rounded=1;whiteSpace=wrap;html=1;fillColor=#FFFF00;fontStyle=1" parent="1" vertex="1">
          <mxGeometry x="414" y="770" width="120" height="30" as="geometry" />
        </mxCell>
        <mxCell id="0ypiinrUx9c20DkoJLy9-17" value="Back" style="rounded=1;whiteSpace=wrap;html=1;fillColor=#FFFFFF;fontStyle=1" parent="1" vertex="1">
          <mxGeometry x="280" y="770" width="120" height="30" as="geometry" />
        </mxCell>
        <mxCell id="0ypiinrUx9c20DkoJLy9-19" value="Proceed" style="rounded=1;whiteSpace=wrap;html=1;fillColor=#FFFF00;fontStyle=1" parent="1" vertex="1">
          <mxGeometry x="552" y="915" width="120" height="30" as="geometry" />
        </mxCell>
        <mxCell id="0ypiinrUx9c20DkoJLy9-21" value="" style="rounded=1;whiteSpace=wrap;html=1;" parent="1" vertex="1">
          <mxGeometry x="123" y="990" width="583" height="60" as="geometry" />
        </mxCell>
        <mxCell id="0ypiinrUx9c20DkoJLy9-22" value="&lt;span style=&quot;color: rgba(0 , 0 , 0 , 0.87) ; font-family: &amp;#34;lato&amp;#34; , &amp;#34;helvetica neue&amp;#34; , &amp;#34;arial&amp;#34; , &amp;#34;helvetica&amp;#34; , sans-serif ; font-size: 14px ; background-color: rgb(255 , 255 , 255)&quot;&gt;Proxy provider 2&lt;br&gt;&lt;/span&gt;" style="text;html=1;strokeColor=none;fillColor=none;align=left;verticalAlign=middle;whiteSpace=wrap;rounded=0;fontStyle=1" parent="1" vertex="1">
          <mxGeometry x="156.5" y="1007.5" width="124" height="25" as="geometry" />
        </mxCell>
        <mxCell id="0ypiinrUx9c20DkoJLy9-23" value="Proceed" style="rounded=1;whiteSpace=wrap;html=1;fillColor=#FFFF00;fontStyle=1" parent="1" vertex="1">
          <mxGeometry x="552.5" y="1002.5" width="120" height="30" as="geometry" />
        </mxCell>
        <mxCell id="0ypiinrUx9c20DkoJLy9-25" value="" style="verticalLabelPosition=bottom;shadow=0;dashed=0;align=center;html=1;verticalAlign=top;strokeWidth=1;shape=mxgraph.mockup.navigation.scrollBar;strokeColor=#999999;barPos=20;fillColor2=#99ddff;strokeColor2=none;direction=north;" parent="1" vertex="1">
          <mxGeometry x="716" y="890" width="20" height="170" as="geometry" />
        </mxCell>
        <mxCell id="0ypiinrUx9c20DkoJLy9-26" value="" style="rounded=1;whiteSpace=wrap;html=1;" parent="1" vertex="1">
          <mxGeometry x="280" y="1260" width="210" height="30" as="geometry" />
        </mxCell>
        <mxCell id="0ypiinrUx9c20DkoJLy9-27" value="" style="rounded=1;whiteSpace=wrap;html=1;" parent="1" vertex="1">
          <mxGeometry x="280" y="1300" width="210" height="30" as="geometry" />
        </mxCell>
        <mxCell id="0ypiinrUx9c20DkoJLy9-28" value="" style="triangle;whiteSpace=wrap;html=1;rotation=90;fillColor=#000000;" parent="1" vertex="1">
          <mxGeometry x="474" y="1271" width="10" height="11" as="geometry" />
        </mxCell>
        <mxCell id="0ypiinrUx9c20DkoJLy9-29" value="Back" style="rounded=1;whiteSpace=wrap;html=1;fillColor=#FFFFFF;fontStyle=1" parent="1" vertex="1">
          <mxGeometry x="460" y="1520" width="120" height="30" as="geometry" />
        </mxCell>
        <mxCell id="0ypiinrUx9c20DkoJLy9-30" value="" style="rounded=0;whiteSpace=wrap;html=1;" parent="1" vertex="1">
          <mxGeometry x="15" y="1630" width="740" height="590" as="geometry" />
        </mxCell>
        <mxCell id="0ypiinrUx9c20DkoJLy9-31" value="" style="endArrow=none;html=1;" parent="1" edge="1">
          <mxGeometry width="50" height="50" relative="1" as="geometry">
            <mxPoint x="15" y="1690" as="sourcePoint" />
            <mxPoint x="755" y="1690" as="targetPoint" />
          </mxGeometry>
        </mxCell>
        <mxCell id="0ypiinrUx9c20DkoJLy9-32" value="" style="shape=image;html=1;verticalAlign=top;verticalLabelPosition=bottom;labelBackgroundColor=#ffffff;imageAspect=0;aspect=fixed;image=https://cdn4.iconfinder.com/data/icons/fugue/icon_shadowless/ui-button-navigation-back.png" parent="1" vertex="1">
          <mxGeometry x="35" y="1640" width="50" height="50" as="geometry" />
        </mxCell>
        <mxCell id="0ypiinrUx9c20DkoJLy9-33" value="&lt;span style=&quot;color: rgba(0 , 0 , 0 , 0.85) ; font-family: &amp;#34;lato&amp;#34; , &amp;#34;helvetica neue&amp;#34; , &amp;#34;arial&amp;#34; , &amp;#34;helvetica&amp;#34; , sans-serif ; font-size: 20px ; font-weight: 700 ; text-align: left ; background-color: rgb(255 , 255 , 255)&quot;&gt;Confirm Registration&lt;/span&gt;" style="text;html=1;strokeColor=none;fillColor=none;align=center;verticalAlign=middle;whiteSpace=wrap;rounded=0;" parent="1" vertex="1">
          <mxGeometry x="95" y="1655" width="239" height="20" as="geometry" />
        </mxCell>
        <mxCell id="0ypiinrUx9c20DkoJLy9-34" value="" style="shape=image;html=1;verticalAlign=top;verticalLabelPosition=bottom;labelBackgroundColor=#ffffff;imageAspect=0;aspect=fixed;image=https://cdn4.iconfinder.com/data/icons/fugue/icon_shadowless/cross-button.png" parent="1" vertex="1">
          <mxGeometry x="705" y="1645" width="30" height="30" as="geometry" />
        </mxCell>
        <mxCell id="0ypiinrUx9c20DkoJLy9-35" value="" style="ellipse;whiteSpace=wrap;html=1;aspect=fixed;fillColor=#FFFFFF;" parent="1" vertex="1">
          <mxGeometry x="50" y="1740" width="20" height="20" as="geometry" />
        </mxCell>
        <mxCell id="0ypiinrUx9c20DkoJLy9-36" value="" style="ellipse;whiteSpace=wrap;html=1;aspect=fixed;" parent="1" vertex="1">
          <mxGeometry x="50" y="1700" width="20" height="20" as="geometry" />
        </mxCell>
        <mxCell id="0ypiinrUx9c20DkoJLy9-37" value="" style="ellipse;whiteSpace=wrap;html=1;aspect=fixed;" parent="1" vertex="1">
          <mxGeometry x="50" y="1780" width="20" height="20" as="geometry" />
        </mxCell>
        <mxCell id="0ypiinrUx9c20DkoJLy9-39" value="Back" style="rounded=1;whiteSpace=wrap;html=1;fillColor=#FFFFFF;fontStyle=1" parent="1" vertex="1">
          <mxGeometry x="427" y="2160" width="120" height="30" as="geometry" />
        </mxCell>
        <mxCell id="0ypiinrUx9c20DkoJLy9-40" value="Confirm Registration" style="rounded=1;whiteSpace=wrap;html=1;fillColor=#FFFF00;fontStyle=1" parent="1" vertex="1">
          <mxGeometry x="577" y="2160" width="133" height="30" as="geometry" />
        </mxCell>
        <mxCell id="0ypiinrUx9c20DkoJLy9-41" value="&lt;span style=&quot;color: rgba(0 , 0 , 0 , 0.87) ; font-family: &amp;#34;lato&amp;#34; , &amp;#34;helvetica neue&amp;#34; , &amp;#34;arial&amp;#34; , &amp;#34;helvetica&amp;#34; , sans-serif ; font-size: 14px ; font-weight: 700 ; text-align: left ; background-color: rgb(255 , 255 , 255)&quot;&gt;Note: This is not reversible.&lt;/span&gt;" style="text;html=1;strokeColor=none;fillColor=none;align=center;verticalAlign=middle;whiteSpace=wrap;rounded=0;" parent="1" vertex="1">
          <mxGeometry x="76" y="2165" width="251" height="20" as="geometry" />
        </mxCell>
        <mxCell id="0ypiinrUx9c20DkoJLy9-42" value="" style="triangle;whiteSpace=wrap;html=1;rotation=90;fillColor=#000000;" parent="1" vertex="1">
          <mxGeometry x="121" y="1855" width="8" height="11" as="geometry" />
        </mxCell>
        <mxCell id="0ypiinrUx9c20DkoJLy9-43" value="More Info" style="text;html=1;strokeColor=none;fillColor=none;align=center;verticalAlign=middle;whiteSpace=wrap;rounded=0;" parent="1" vertex="1">
          <mxGeometry x="129" y="1850.5" width="71" height="20" as="geometry" />
        </mxCell>
        <mxCell id="0ypiinrUx9c20DkoJLy9-44" value="" style="shape=image;verticalLabelPosition=bottom;labelBackgroundColor=#ffffff;verticalAlign=top;aspect=fixed;imageAspect=0;image=data:image/png,iVBORw0KGgoAAAANSUhEUgAABHwAAAGUCAYAAABHpzVnAAAgAElEQVR4XuydCdhWw/vH7/Z9U1qIyhah7EqFspM1siRKISRCyRYh2clWZMlOyRpZQ6JUCKW0aJFK+74v/+s7/uf9nZ6eM8/yPr09b33mulx458z2mTln7vnOPfMU2LRp0yZLIyjZ0qXLbMmSJbbTTjtZiRLFrVChQmnkRBIIQAACEIAABCAAAQhAAAIQgAAEIACBZAhs2LDBVq1abQsXLrRy5cpZ2bJlrECBAlskLZCu4LN+/XqbPXuOE3tKlSqZTJ14BgIQgAAEIAABCEAAAhCAAAQgAAEIQCADBFasWOlEn2rVqlrhwoUzI/jIu2ft2nU2a9Ysq1mzRlwlKQN1JwsIQAACEIAABCAAAQhAAAIQgAAEIACBOAQ2btxo06fPsF122cWKFi2yhTaTloePBJ81a9Y4D59atWoCHgIQgAAEIAABCEAAAhCAAAQgAAEIQCCPCUydOs15+BQrVgzBJ4/ZUxwEIAABCEAAAhCAAAQgAAEIQAACENgqBBB8tgpWMoUABCAAAQhAAAIQgAAEIAABCEAAAtuOAILPtmNPyRCAAAQgAAEIQAACEIAABCAAAQhAYKsQQPDZKljJFAIQgAAEIAABCEAAAhCAAAQgAAEIbDsCCD7bjj0lQwACEIAABCAAAQhAAAIQgAAEIACBrUIAwWerYCVTCEAAAhCAAAQgAAEIQAACEIAABCCw7Qgg+Gw79pQMAQhAAAIQgAAEIAABCEAAAhCAAAS2CgEEn62ClUwhAAEIQAACEIAABCAAAQhAAAIQgMC2I4Dgs+3YUzIEIAABCEAAAhCAAAQgAAEIQAACENgqBBB8tgpWMoUABCAAAQhAAAIQgAAEIAABCEAAAtuOAILPtmNPyRCAAAQgAAEIQAACEIAABCAAgawnMGjeKLt/2kAbt3yGLV6/Iuvrm98rWL5wKdu/9O7WtWZza7bz4Wk3B8EnbXQkhAAEIAABCEAAAhCAAAQgAAEIbN8E3p87ws7+tef23cgsbt179W6xsyrXT6uGCD5pYSMRBCAAAQhAAAIQgAAEIAABCEBg+yfQYGQXG7Hkz+2/oVnawvrlatvwIx5Mq3YIPmlhIxEEIAABCEAAAhCAAAQgAAEIQGD7J1D+64tsCce4tllHlytcyhY3eSOt8hF80sJGIghAAAIQgAAEIAABCEAAAhCAwPZPoMAXZ27/jczyFm464YO0aojgkxa2zCR688037emnn7ZixYrZCSecYJ07d7ZChQq5zH1xmSk9+VySqcvnn39ugwYNsieeeCL5jHkSAhCAAAQgAAEIQAACEIAABLKaAILPtu+e7UrwGTBggN166605VDdu3GjXXHON3XDDDe5vAwcOtEceecT9d5cuXeyss85y/+1Lt3r1auvevbsNGzbMNmzYYF27drUzzjgjp4wZM2bYzTffbBMnTrT99tvPHnjgAdt1111NZffu3dv69+9vK1eutNNOO826detmBQsW9JYXHhLjx4+3c845x/TvIMyfP99OPvlk++STT6xixYr2+uuvW6tWraxAgQLmi4tqu/IdO3asPfTQQ1akSBF7/vnnNxuVvnS+OF9dwgVI8Pniiy9c+QrPPfecvfLKK+6/JWSdeeb/VOF06+lLt+1fQWoAAQhAAAIQgAAEIAABCEBg+yOA4LPt+3S7EnxicTZt2tQef/xxq1u3rk2fPt3OPfdce/fdd91jEnvee+8923333bfohXC6tWvX2pdffmknnniizZ0710455RT75ptvrEKFCrZp0yYn/rRr184JE99//70dfPDBVrJkSevXr5+NHDnS7r//fueJ0759e5e2RYsW3vKCSIlLzZs3t3HjxtmkSZNy0vz888/24IMP2ltvvbVFPlFxvrbPmTPHHnvsMdcelfPCCy/k5OtLl4inr55Rgs/QoUPtqaeecnVYv369nXfeedanTx/ba6+9LN16+tJt+9ePGkAAAhCAAAQgAAEIQAACENg+CSD4bPt+3W4Fn99++81uuukmkweJgrxt5HVyxx13OE+dvffe28VfffXVm/VCbLrYLmrcuLE7NlW9enX78ccf7cUXX7Rnn312i55cunSpK0dCioJEjJkzZ9qdd96ZVHl9+/a1adOmOQ+hQPCR99AHH3xgixcvtipVqlitWrVc+Qq+uGTa/u233zrPmrDg40vni/PVRZ5P8ub5+OOPrWzZstakSRObPXu2Pfzww9arVy8rXbq0tW3b1rVJ4o+e79ixYw6zVOsZJIyXbtu/ftQAAhCAAAQgAAEIQAACEIDA9kkAwSd+vxawAvZ23c72x4q/7a4pb27Vzt9uBZ977rnHiS0dOnRwADt16mQNGzZ0Xj4SJCSmlChRwh599NHNAMemCyJ1ZGvw4MEmQSgQRXT8aOrUqS6vWbNm2QUXXGBXXXVV3A7TEbJ69epZy5YtE5Yn7xl5DUlYatCgwWYePqNGjXLCyGuvvbZFOVFxybQ9niDiS5coz6i6qN6jR492R+sWLVpkzZo1s0aNGjnB57PPPnMClriqb84//3wnaoX7KNV6Ivhs1e8HmUMAAhCAAAQgAAEIQAACEIhLIBXBp1H5OvbwPq3tgNI1bPaaRfbmnKF271/97aJqx1jvfdvbiT/fad8t/iOnnK41m9vte7SwXYa2sZmNX7QP5420i8duvrbvt/911rxyA6v+XduUfy3sjQNvtH1K7uLKW7Z+lU1ZNcf6zPzURi+dnJHe7rHXxTZ55Wx7adZXGckvKpPtUvDRUSuJCG+88YbVqFHDtf3KK6+0s88+2x3Dmjx5svPw0ZGusHdOvHQBOAk58rS57LLL7KKLLnJ/lnCku3QkUFStWtUuvfRSu/766+3YY4/djLfKa9OmjRM0dNwrCFHlXXzxxa6cI4880g466KBcCz7JtD2ekOJLlyjPKMFHx9Tk5aRjdgFDHZUL7lbSZdS6U0l3EukuJPVfjx49cpilWk8En636/SBzCEAAAhCAAAQgAAEIQAACuRJ8ShYsZv8c/aL9tHSK9fr7I6tVvIrVL1/bLv79Mbtklyb20v4dbd7aJXbYjzfajNXzXFmB4FN6yPnWq3Y7u2a3U63md1fYzDXzXXy1YhVsRqMXnEhz7Z/PpdxDEnyKFChk3aa8aWULl7DLdz3R9i1V3c799X6bs3ZxyvltqwTbpeAjseHuu++2jz76KIerPFIkyvz7779OXNBdPrqIWffXBCFeunDHBPfK6GLoww8/3HmlSMAJjoXp+NWff/7pjo0FQV4sF154oclzSGnCIV55ykN3BD3zzDO2YsWKjAg+ybQ9ynMmilmiPKMEn+OOO85dDC3PHYVXX33VxowZkyP4hPnIG0hiUHDptuJSrWeQH0e6ttUnhnIhAAEIQAACEIAABCAAgR2RQLIePjWKV7Zpjftat8lv2D1T394MVetdjnOCz9cLf7cKRUpZw5FdbeXGNZsJPnuWqGoTG/a2+6a+Y3dMed2lv3OPC9w/tX+42iatnJUyfgk+GzZttFZj/9MLGpTf156sfbl1ntTPZq9eaB12b2b7l9rNlm5YZY9O/8C+XTTW6pTazW6pda7VVHtWz7UeUwfYnDWL7K49L7SDy+xhi9avsL4zP7OP54+29w+61cYsm+qOdD1eu50ro3ShElandHX7fdl0u2XyK7Zw3XK7oGpju7RaU9u5aNmcNtw0sZ99s+j3pNq0XQo+ElfKly9v1157bQ4E3Qejo0G//vqrlSlTxnmNlCtXLufIlx6Mly6WosQciRXywJEnioQNXaKsoP///fffndiksHz5cuf1c/nll7tf1ooN8cqTOKTjYfrFLHkA6cjYHnvs4S5prlSpkisv1SNdybQ9niDiS5coz6h6XnLJJda6dWvTxdgKus9Hd/jEHq1TnO7uOf30091Pzwch1Xr60iX1hvAQBCAAAQhAAAIQgAAEIAABCKRMIFnBRxm/V+8WO6tyfftl6V/2ztwfrO/Mz23euiUWCD67DW1rXx16t/26fJq1+O3BzQQfpf+g3m12ZLl9bPfv2tpG22TTGvW1X5b9ZaePuTfleitBWPApU7iEdal5jp1U8WA779cH3LGzPUpUtcHzf7J21U+wI8vuY01/usN679feChUoZJ0nvWR7l9zFCU3nVm5oraoda+f//pCVLVTCNurE0arZWwg++5XazTr9+bwtWb/S3jzwJnek7ZP5o21gva52/Z/P29gVM+y1A25wR8ru+ettJ0YlE7ZLweeYY44xHQ064IADchhMmTLF/cT5p59+6v6mX+nSHTkSU4IQL51+0lseN/p5d3kH6ZejJE7IW2fBggVOyJHHin5JSuKOvH0kZsg7R8e4dGdP8NPiEnB0VMlXXrjTMuXhk0zb4wkpvnSJ8owSfOTBpJ+Sl2fPkiVLHJ/DDjvMMZVApv7RPUvDhw833Xv01VdfWdGiRb2CT6K6KLHPw0eeWvXr13fHAGNDunHJvHw8AwEIQAACEIAABCAAAQhAYHslkIrgIwbHVjjAztj5CGtVrYkTNPYf3sFO3/kI5+FTZsj5tmuxivbjEQ/Zw9Pft/WbNrg7fHSkS6FJhQNtyGH32kW/P2JrN663d+rdbMf/1M2+WvhrWnjDd/gog6XrV9mTfw+y9+aO2Cw/iUC6j+fkX7pb211OsLMr17cvFo6xj+eNthFL/rTjd6pn9+99iY1aOtkJRJ/M/8nVPdbDp3zhUtZ6XC+Xty50nrRytr3wzxc2oG4Xu2pCHxu3fIa9fWBne+vf7+z12d8m3abtTvCZMGGCtWrVyv0kelhcERF5ycg7RkFHksI/kR6VTkeyunXr5gSIggULul+Q0v01QZAg0b17dyfwqFzd4aOgX7HScTF5GgVBx5l69uzp/tdXz+D5TAk+idqu+ChBxMfMFxcl+OhXtySiyBuqWrVq7mftdYmzfn5dP6HetWtXk4Aj76v77rsv566fgEk69fS1T3ES8XR5tAS72JBuXNJvIA9CAAIQgAAEIAABCEAAAhDYDgmkKvgECE6seLB9dshddtLPd9kuxXbKEXyWb1htp1Y61Hnz/LBkgh1ads8cwUdpx9R/3BatW24rNqyxGiV2tgOH/+/XnlPFK8GncIFCdvvk12zZhtX275pFznNIQUe3LtmlqdUuuYvJ+0dizam/3G3z1i61JjsdaCdXPMT9+/6p79jAucOdR9BplQ6zZpUOcxdP3zr51YSCz5SVc9xzOg52TPn9beXGtU5AemDaQCdoJRu2O8En2YbzHAQgAAEIQAACEIAABCAAAQhAAAJbh0Cygo+8c/rsd5U9/fcn9teqf63trsc7z5i9vm9vp1Q6dDPBRzXV8aoH9r7UVmxYvZng02aX4+z5Oh2cB83V45+1F2Z9kXbDYu/wCWc05NB7bcii3+zBae/aOZUb2E01znKCj455/bNmgS1ev8LeOrCzvT93hLt7qHTh4u4n2OUJVKZQSWs//pmkBB+JTYMOvsMqFi1r6zaud/kOmjfKXUSdbEDwSZYUz0EAAhCAAAQgAAEIQAACEIAABCCQFIFkBZ8KhUvbvXu1dMeh5C0zdvkM6zJJFxOPzbnDR0e65OEThOAn18t8fUHO34oVLGLTGz1vhQoUtN2+a2urN65Nqp7xHvIJPp1rnO2Oms1au9CGLfrDWlY7xs4c08MuqnqMnb7z4VakQGEbuXSi3fXXW9a4fB27qvopVqloGXdMq8df/W3iyllJCT6DF/xsXWqcbZ3+fMF5F51S6RCTqHWK8yZaklTbEHySwsRDEIAABCAAAQhAAAIQgAAEIAABCCRLIFnBJ9n8drTndGG1PIiuGP+0LV2/0i6p1sTOrtzATvulu63fkS9t3tEGAu2FAAQgAAEIQAACEIAABCAAAQhkEwEEn9z1RvGCRa1rrebWsNx+VrRgYXcsTD8Bn8rPzOPhk7s+IDUEIAABCEAAAhCAAAQgAAEIQAACMQQQfLb9kEDw2fZ9QA0gAAEIQAACEIAABCAAAQhAAALbFQEEn23fnQg+274PqAEEIAABCEAAAhCAAAQgAAEIQGC7IoDgs+27E8Fn2/cBNYAABCAAAQhAAAIQgAAEIAABCGxXBMp/fZEtWb9iu2pTfmpMucKlbHGTN9Kq8tSp06xatapWrFgxK1CgwGZ5FNi0adOmVHNVkjVr1tjs2XOsVq2aqSbneQhAAAIQgAAEIAABCEAAAhCAAASyhECDkV1sxJI/s6Q2O1416perbcOPeDCthiP4pIWNRBCAAAQgAAEIQAACEIAABCAAge2fwPtzR9jZv/bc/huapS18r94tdlbl+mnVDsEnLWwkggAEIAABCEAAAhCAAAQgAAEI7BgEBs0bZfdPG2jjls+wxRzv2uqdXr5wKdu/9O7WtWZza7bz4WmXh+CTNjoSQgACEIAABCAAAQhAAAIQgAAEIACB7CSA4JOd/UKtIAABCEAAAhCAAAQgAAEIQAACEIBA2gQQfNJGR0IIQAACEIAABCAAAQhAAAIQgAAEIJCdBBB8srNfqBUEIAABCEAAAhCAAAQgAAEIQAACEEibAIJP2uhICAEIQAACEIAABCAAAQhAAAIQgAAEspMAgk929gu1ggAEIAABCEAAAhCAAAQgAAEIQAACaRNA8EkbHQkhAAEIQAACEIAABCAAAQhAAAIQgEB2EkDwyc5+oVYQgAAEIAABCEAAAhCAAAQgAAEIQCBtAgg+aaMjIQQgAAEIQAACEIAABCAAAQhAAAIQyE4CCD7Z2S/UCgIQgAAEIAABCEAAAhCAAAQgAAEIpE0AwSdtdCSEAAQgAAEIQAACEIAABCAAAQhAAALZSQDBJzv7hVpBAAIQgAAEIAABCEAAAhCAAAQgAIG0CSD4pI2OhBCAAAQgAAEIQAACEIAABCAAAQhAIDsJIPhkZ79QKwhAAAIQgAAEIAABCEAAAhCAAAQgkDYBBJ+00ZEQAhCAAAQgAAEIQAACEIAABCAAAQhkJwEEn+zsF2oFAQhAAAIQgAAEIAABCEAAAhCAAATSJoDgkzY6EkIAAhCAAAQgAAEIQAACEIAABCAAgewkgOCTnf1CrSAAAQhAAAIQgAAEIAABCEAAAhCAQNoEEHzSRkdCCEAAAhCAAAQgAAEIQAACEIAABCCQnQQQfLKzX6gVBCAAAQhAAAIQgAAEIAABCEAAAhBImwCCT9roSAgBCEAAAhCAAAQgAAEIQAACEIAABLKTAIJPdvYLtYIABCAAAQhAAAIQgAAEIAABCEAAAmkTQPBJGx0JIQABCEAAAhCAAAQgAAEIQAACEIBAdhJA8MnOfqFWEIAABCAAAQhAAAIQgAAEIAABCEAgbQIIPmmjIyEEIAABCEAAAhCAAAQgAAEIQAACEMhOAgg+2dkv1AoCEIAABCAAAQhAAAIQgAAEIAABCKRNAMEnbXQkhAAEIAABCEAAAhCAAAQgAAEIQAAC2UkAwSc7+4VaQQACEIAABCAAAQhAAAIQgAAEIACBtAkg+KSNjoQQgAAEIAABCGyvBGQg1apVc3ttHu2CAAQgAAEIQGAHIJCVgs/UqVPttdde2wx/3bp17cwzz9xqXbJhwwYbNGiQlS5d2o477ritVg4ZQwACEIAABCCQ/QQyIfgMHz7cRowYYWXLlrWzzjrLKlasmFTD//zzTxs1apSdeuqpttNOOyWVJtFDWyPPRGUSDwEIQAACEIDAtiWQlYKPjJzrrrvOlixZYmvWrLHKlSs7o+f222/farQWLVpkhx56qLVv3966dOmy1cohYwhAAAIQgAAEsp9AbgWfJ5980h577DErWrSorV271ok977zzjtWoUSNh4++66y638fX7779biRIlEj6fzANbI89kyuUZCEAAAhCAAAS2HYGsFHwCHJ06dbLvv//eRo4cmUNo2LBh9vXXX9tll11mH330kTOkLrzwQmcQvfvuu/bPP//YIYccYj/++KPtueeedsopp7hnPvnkE2c43XzzzS4vxX/++edOWPrpp5+sf//+9tlnn1mhQoXskksusf3339/OOecc9+ysWbPcs3PnznV5NmvWzIoVK7bteo2SIQABCEAAAhDYqgRyI/j8/fffzlv4mGOOsaeeesomTpxo559/vh177LH24IMPOiHo+OOPtwYNGrg26G916tRxm1s9evSwl156yf29TZs27t9XXXWV+3fv3r1dHspPIlLTpk2tdu3atnz58rTyrFSpksv3yy+/dDaS7CXVe999992qbMkcAhCAAAQgAIG8IZDvBB8ZTto1K168uK1cudJ0FEtu0o8++qh17NjRHcsqXLiw1axZ0/766y9nbL3wwgt222232QcffGBjx451ZF988UW79957naAk4ej+++/PIV61alVniN199902c+ZMO/30023dunVWpUoVmzZtmu2999723nvvZWzXLW+6mlIgAAEIQAACEEiWQG4En379+jkbQvaFNpAUbrrpJvv444/dBpJsk1tuucUuv/xyF1evXj23QSWxp3HjxjZnzhz3d9kjCm+++aatX7/eTjjhBPf/O++8s23atMmWLl1qr7/+uu22225Wv379lPOUt5FsIdlEu+++u/OsXrZsmfXs2dPOO++8ZFHxHAQgAAEIQAACWUogXwo+EncuuOACk3vy9ddf7zx+tDN1ww03OMFHO2e67+fVV1+1O++80xlKEns+/PDDuIJPtWrVbPz48XbaaafZAw88sJmRI68f7axJEGrRooV99913zltIxhABAhCAAAQgAIHtk0BuBJ/g+JQ8cQoWLOgABRtNAwYMcHZGPMEn2HzS8XJtUMmrOQhTpkxxgo88et5//3234XXSSSc5sUd2j7yFUs1TecurSMfnJUYVKFDAeT7feOONbnOLAAEIQAACEIBA/iaQbwWfH374we18Pfvss06kGT16tBOAtHM2btw4dzRLR7EaNWpkt956q8lQ0k5bPA8fCT6//PKLNW/e3Hr16uU8eoIgN2mJSxKEZEzpmJeOdMntmQABCEAAAhCAwPZJIDeCj+wOHTOfMGFCDhzdydOtWzfnkdOyZUuvONO6dWvnYayjVrGCj467X3vtte7POqauTagvvvjCjjrqqJTzVB66V0hCUYUKFZz9c9FFF7nj6wQIQAACEIAABPI/gXwr+Mijp1SpUta3b1/nbaM7ee655x775ptv7LfffnM9I5doGUAyjvTfOob1xx9/uLggnY50SfD5+eef7dxzz3Xn47VjFg6rVq1yd/zIU0i7dYcddpj7b4lKBAhAAAIQgAAEtj8CuRF8Hn74YXvmmWecbVG+fHkHR144OpIugUZeNRJrrrzyShd3wAEHuM2kwMPn0ksvtXnz5rlngxB4+OiIetu2bd2fJdRIWJLt07Bhw5TzDPKW3fTKK684L5+NGze6uvOLpdvfmKZFEIAABCCw4xHY7gQfHenSES+dS//000/t6quvdhcmykPn6aefdhc0axerc+fONnDgQHeHjwQfeQVpZ+uhhx5ynj7z5883XWaoHTYdBVM+Co888ojLR0YYlxrueC8MLYYABCAAgR2DQG4EnyFDhli7du1yjoNLRJGNoQ2kwYMHu3t9Lr74YueZLDvj6KOPdsfGA8HniiuucN5BQ4cOdXf1LFiwwN2voyNdwb2F6gUJRzraJTslnTxl5zz++OPOq0e/iCqRSZteRx55pNsAI0AAAhCAAAQgkL8JZKXgM3nyZCfa6AiWLkmW67IuE5QRIvFGd/hEefhI8NG5cx3l0r09+vWu4NcnZEzJqFK8LnJWCAQfnV/XpYmKkwePxCCJOvIEkhu2dt50EbREJB0V05GyMmXK5O/ep/YQgAAEIAABCMQlkBvBRyKMxBjZCzoWPmnSJCfeyBNZx7latWplY8aMcaKQxCHZNGHBRyLME0884X6lS943tWrVct5AEnx0J1CwMSVbKTd5avNLntDVq1d3l0YvXrzYeTRfc801zjuaAAEIQAACEIBA/iaQlYKPLiPUBczh0KRJEyfSJBJ85D4t0WbUqFHuJ07vu+8+22uvvVxWffr0cXf+lCxZ0urWret+hl2u0AcddJCL14WKMrCKFCnifqVLrtIy2iQw6W4g7a7pXLvO5st1mgABCEAAAhCAwPZJIDeCj4j8888/7s4eHTkvW7as6ZhWcIRrxowZTlCR97E2qCT4yGs4+Dn2uXPnumfl5SMbRs/Kc1mCz8knn+zuHZR9Ii+hDh06OBEonTz1s+6yhWQbqSz9AqqEH9W7WLFi22fH0ioIQAACEIDADkQgKwWfdPnrZ9l1KbN2ywgQgAAEIAABCEAgXQK5FXzSLTcqXXCHT/BLpJnOn/wgAAEIQAACENj+CGx3gs/w4cOddw8BAhCAAAQgAAEIpEsgWwWfu+++23n2ECAAAQhAAAIQgEAiAtuV4JOoscRDAAIQgAAEIACBZAhkm+CTTJ15BgIQgAAEIAABCIQJIPgwHiAAAQhAAAIQgEAMAQQfhgQEIAABCEAAAvmdAIJPfu9B6g8BCEAAAhCAQMYJIPhkHCkZQgACEIAABCCQxwQQfPIYOMVBAAIQgAAEIJD9BBB8sr+PqCEEIAABCEAAAn4CCD6MEAhAAAIQgAAEIBBDAMGHIQEBCEAAAhCAQH4ngOCT33uQ+kMAAhCAAAQgkHECCD4ZR0qGEIAABCAAAQjkMQEEnzwGTnEQgAAEIAABCGQ/AQSf7O8jaggBCEAAAhCAgJ8Agg8jBAIQgAAEIAABCMQQQPBhSEAAAhCAAAQgkN8JIPjk9x6k/hCAAAQgAAEIZJwAgk/GkZIhBCAAAQhAAAJ5TADBJ4+BUxwEIAABCEAAAtlPAMEn+/uIGkIAAhCAAAQg4CeA4MMIgQAEIAABCEAAAjEEEHwYEhCAAAQgAAEI5HcCCD75vQepPwQgAAEIQAACGSeA4JNxpGQIAQhAAAIQgEAeE0DwyWPgFAcBCEAAAhCAQPYTQPDJ/j6ihhCAAAQgAPWuNckAACAASURBVAEI+Akg+DBCIAABCEAAAhCAQAwBBB+GBAQgAAEIQAAC+Z0Agk9+70HqDwEIQAACEIBAxgkg+GQcKRlCAAIQgAAEIJDHBBB88hg4xUEAAhCAAAQgkP0EEHyyv4+oIQQgAAEIQAACfgIIPowQCEAAAhCAAAQgEEMAwYchAQEIQAACEIBAfieA4JPfe5D6QwACEIAABCCQcQIIPhlHSoYQgAAEIAABCOQxAQSfPAZOcRCAAAQgAAEIZD8BBJ/s7yNqCAEIQAACEICAnwCCDyMEAhCAAAQgAAEIxBBA8GFIQAACEIAABCCQ3wkg+OT3HqT+EIAABCAAAQhknACCT8aRkiEEIAABCEAAAnlMAMEnj4EnKq5jx47WqFEja9GiRaJH7fPPP7dBgwbZE088kfDZTDywtctLpe2ZaE9sHpls35tvvmlPP/20FStWzE444QTr3LmzFSpUaGtU2+W5NcrbGnn6AOR1ecl0Rrwxkdf1zOvykuGSyjNXX321jRgxwgoXLuyS9ejRw70TicLtt9/uvnEKK1ascOnOOuusRMmIh0DGCCD4ZAwlGUEAAhCAAAQgsI0IbFeCz8aNG613797Wv39/W7lypZ122mnWrVs3K1iwoMP7xhtvOHFk/fr11qxZM7vzzjutQIECLm7gwIH2yCOPuP/u0qXLZguL5557zl555RUXp4X7mWeemdNdvjhfeVH9LdGjadOmSS1stBj64osv7KGHHnLZjR071v13kSJF7Pnnn9+siBkzZtjNN99sEydOtP32288eeOAB23XXXW3AgAF266235jwrhtdcc43dcMMNW1QxtjzfmI0qb/ny5XbQQQdZ8eLFc5KrjyRwJWp7VPtWr15t3bt3t2HDhtmGDRusa9eudsYZZ6T8SsW2L6r/fG1QofPnz7eTTz7ZPvnkE6tYsaK9/vrr1qpVKzfWoriEKzt+/Hg755xzTP+ODfHifOX5xrVvvKTbhnTfB195AQMfl1Q721fPcF6xYyKqnu+8807ke+T7LqU7liSARL1HPhapvO+pMo16XoJPmzZt7PDDD9/iEd8YDD983333WZ06dZL6Lmaq3vk5n8WLF9t1111nv/32m9WrV8969epl5cqVS9gkX7p049asWePmT83N/fr1s7p16yasx+DBg+2mm25yddZ3c6eddrLrr7/ejjvuOJdW7brrrrts7ty5VrZsWTdnab7X/L5q1So31wXhxRdftIULF7r8Ug25FXw0viVc6ru/++6727333msHHHCA/fnnn3bKKae4TQC1r3Llyqb35KKLLvJW8ZdffrHmzZu7dPqnevXqbq4+9dRTXZ6ya0qWLLlZHpoD9M+rr75qmzZtMs2XJUqUcM9ce+21tvfeezvbKGwzyDY6+OCDrUaNGpHlDRkyxLVN/w7m8yuvvNLOP/98Z8MQIAABCEAAAhBIj4Bv/ZZOjtuV4CNjcuTIkXb//fc7z4r27ds7o0piwoIFC+z00093HjFFixZ1Rox2jA877DCbPn26nXvuufbuu+86htpFfu+995yBNnToUHvqqafshRdecELReeedZ3369LG99trLG+crz9dRiUSPcNrwYnTOnDn22GOPWYUKFWzSpEmuvkGQkScBpF27dk6s+v77750xF2sY6nkZao8//nhcozxZwcdX3qxZs5yRqYEcG3xt97Vv7dq19uWXX9qJJ57oFgDq82+++caxSCWE2+frP18bVN7PP/9sDz74oL311lubFZ9MP0iw0tgcN26c68dwiIqLKs83rn08022D711J9D5EtSFov49LKn2sZ331jM0rdswnqmeQPvwe+b5L6Y6lROmSZeJ735PNI9FzUYJPojEYzhfBJxHlzeO1aSEh5LbbbnPz3JIlS3I2Bnw5+dKlG6e5aN26dTmbKskKPnr3NKcpjBkzxi699FKT4KENHAk/EhuaNGli//77r9us0bz/119/2eWXX25ff/11TjNbtmxpt9xyixNaUg25EXy06aR6akNDc9Knn35qd999txNI9G2WIKe/6dumdl1xxRVOeNl3330jq6nn7rnnHmeriKm+ZcpH852+sRLB5BEYFebNm+eEMdlJQVB9JFg/88wzOX8LCz5R5Ul0k00hIU3vuIIEn0suucQaNmyYKmqehwAEIAABCEDAzKtLpAsoawWf1157zXnqaLdOC3kZFdoJW7p0qdslk8Eig0eGlDw6dFxAcTKegoW+DM2ZM2c6Tx4tnuXJoh1uhU6dOjkBSAse7Txq5/6OO+5w6bXjFRgx2hktXbq0tW3b1qWT+KMde4kTvjhfeconqn3Kd88993QGq+p+7LHHOgNPO3IqVx48H3/8sTPmZezOnj3bHn744Zz+//bbb91ualjw+fHHH027nM8++6x3nMiAU7uDYxS+8nz94CtvwoQJ1rNnT3v55Ze3qIuv7cHD8doXm1Hjxo2d0avdTx9rX/t8/edrgzynPvjgA9NueJUqVaxWrVqOvUIy/dC3b1+bNm2aG/uxgk+8OF95vnHt45luG9J9H3zlBfWM4hL1Hvn63VdP35hIpp4qN/Y98n2X0h1LvnS+toffldh6pjuJJErn8/BR2mTeaQSfRJT/F685TN5fEgM0F3700UdOFND3xHes1JdOuUfl6YsLlyevRQkS6Qg+P/zwgxNOJOwrHHHEEW4e3HnnnbcAc9JJJzmhSB5hErrOPvtsJ7KkE3Ij+Lz//vuOfXgulh2hTZfatWvnCD5BvYINqrAHcWydw4JPECc7Rlxlp2xNwSe2PLHV3DZlyhTXF/LCQvBJZ5SRBgIQgAAEIPA/Asms31LllZWCj4wzCStazMlg1I5R69atnbgjYUaCxAUXXOAEH+06yktHR2Zig+Lkzq4dPgUZW9pxO+SQQ5zoIBdmHX+S+KMdKXn5aFGnBbcElkcffdQ+++wzZ9ToCIj+JndlLeITxfnK87VPooe8CCRY6DiQjEAZtx06dHA8Ro8e7XYzFy1a5Ny3dd9PIsFHdZ86daprlzwDxO6qq67agpeEJS0QVJaCrzxfP/jKk+ghF/RSpUo5AUveV9rZVPC1Paisb3Go42o6CqCFbGBk+1gn4hk1XnxtUD1HjRrlxEDlHw6J+kG7vtoxVd83aNBgM8HHFxdVnm9cJ+KZTht874rvffAxU1xU231964vz1TPRmIjiEu7n2PfI911Kdyz50vnanko9U51Mop5H8MkUyeTy0Xde8+F3331n//zzj/Mq+fXXX+3tt992R3Sigi+dvBOj8vTFhctLVfDR8WnNRxJM5cWp+gdikbxR9B5rk0bzfzjIQ1Vzi+YZiS5//PHHZsctk6P431O5EXzkWRXM4UGZMuI0d8uLM/DwUdzkyZPt4osvdps1++yzT2QVw4KPuOv/9X7paLfm9q0p+MSWp2+hBC31scQfbawh+KQyungWAhCAAAQgsCWBZNZvqXLLSsFHgoPOpOsfBXnlSOiQGBMbZHToyIQuyA0HGVC6N0JGYXB0SfnIaJRYoV0/GVwKMlL0/zJolE4ePjrSFXjEKG+llYeR7r2RgSNjTsEXF1Wer30SPeSZIrFKQffSyICVy7WMRBlVgdErHjrCFNw9pOfjCSJ6TvfJSHCoWrWqc43XfQjyHgqC2i7xSC7lgZGeTHlB+nA/+MrTPQPygBEDubxLVJELvsQrX9uDcnyCj0Qs7WJfdtllOXch+Fgnal9U//naoHpGiQKJ+kEGv+p+5JFHut30sIePLy6qvETjOmq85KYN6bwPvvIUF9V2X98m+oZE1TPRmEgk+MR7j3zfpXTHki9dorarPonqmepE4nsewSeTNBPnJYHjxhtvdGKHjs9qrtKmieYJeb1EBV86pYnK0xcXLi9VwSc40qWxqqNPTz75pJs7tEmjIGFTAoqCjndpc0dB74barfR6F/RN1SZPOiE3go88jzVXh+/l0X1uutdHG1g6WqWNDwV5Kul7rSPjviCBR5sksmkkgsmrRptXRx99dNw7fMQlnGc6R7qiyhN/CT7yuJYXttqmunCkK52RRhoIQAACEIDAfwSSWb+lyiorBR952uhIjO7hUZBhs//++zvhQ1498syRsaHjXjqzrx2+4FJlPa8dtAsvvNAdhQouCtVu50svveTS6tJCGVzy/JH7tJQ0CSHBXQA6Hy+hJbg/IAxVHgASWeJdahyO85Xna59ED3kbyZNIQV4r8vJRe+WdpPrLw0hBlzDqboNEgo88gGQgBufsdVxIRrF2R4Oghax2gmXABcFXnq8fkikvKOPDDz90x9fE2tf24PlExz+Ce5Z0fE9972Pta5+v/2JfsnAbFBclCvi4qE90D4N2roMLeQPBxxfnKy+ZcR3FM502xHJJ9n3wtcHXdl/f+uJ89Uz0jiUSfOK9R0F58b5L6Y4lX7pk2u6rZ6qTSKLnEXwSEcpsvDx1tOg+5phj3OXvuq9NgoDmyJo1a0YW5kunRFF5+uLC5aUr+AQVlvCgy5nVrnDQ/KFLmnUv3G677eai9Ctw8rLUpo6En+DHGVIlnRvBR0JIIOQE5er+P10gHevhk2y9wh4+wV1k+kYqaE7PlIePjs8deuih7h7D4A6f2PICwUdzt2wR/RKf5l8En2R7k+cgAAEIQAACWxJIZv2WKresFHy0QNCxIxmpsUFGlNy15e6tI1Yy5mTIBsdn9Ks38mCR14h+KSkIurzywAMPdPkqyGNGBooW4To+piNacnsvU6aM2xHVr4MER5vCdZAooTPz8X5WOBznK8/XPuWhSxsDcUYigEQetS842hb8Aobu89EdPqp7EOIt4OWpogWeLhJW0P///vvvTuAJgoy68uXLu53RIPjK8/VDovK0YxsY4BJLdAxLO7W+tvvaFztGJGRJFNPOro+1r32+/lN5UW1QXJQo4OMigVIu+dq9Vt46grfHHnu4i5/VJ1FxlSpViiwvmXGdquCTqG+j3pVEPKOY+bhoURL1nfD1e+x4Cb+3id6xRIJPvPdI5UV9l9IdS750ybQ9qp6pTiDJPI/gkwylzD0jMV53xOiiYs2DOhJ11FFHuc0B3XUXFXzp9E2KytMXFy4vt4KPjv4qD83rqmvg6aP2aANGYq28ZhQ0J2p+l4eRRJB0Q24EHwlQunMo8EJSHbR5o/rrlzLDR7qSrV/sHT7asJI3sDaJ0hV8dARaNo+8n4Ogd1YCm+ygQPBRXLi8sOCj/tDdSfq3Ls/m0uZke5TnIAABCEAAApsTSGb9liqzrBR8dB5dl7TqSJXO8AdCjBbAco+Wd45ciPWrFDoSpMsKJYjIM0LHuALPnfCiSDtrWtzKg0L3AmmRV79+fWeA6dJBGZJyG1fQr3TpHhWVp4Wa/q5d8+HDhzvj6quvvnK/9OWL85Xna5/qJQNMO2a6mFn1U33k8aOdPLlNK05n5tVOeTclEnzESUamhCP9upgEMRl04Z9O1a6pjrmEf8nEV56vH3zl6YideMr1W55bqovyktu5r+3BwI4nUMhFXsKYdn/lpaW8xEQePj7Wvvb5+s/XBtUzShRIph+UPtbDJ/xSx4uLKs83rn08021Duu+Drzxf231964vz1TPRO5ZI8In3Hvm+S+mOJV86X9sDnvHqGcRJBNe3UUc8Y0M6cQg+qU7LuX9e84Yu/9fGiDYGdJePPGSDoEu/dRRa3+Gw94svXbpxQZm5EXw09+oYsi4HVtBcIcFXIpSOounuMwkW8khRGD9+vBN/dERZYzndkBvBZ9myZU6E0lFe/cCCPJF0zEv2g/ojE4KPvgPyXNbGQLqCz5o1a1w9Nf/rWJw8SyV8azNNR9zDgk+4vLDgI746Nq5NMtknCD7pjjjSQQACEIDAjk4gmfVbqoyyUvBRI2Q06JecJArIiJPRpPtztODSPTb6RREJIjLmtOslwUc7aXIvlqdKEGTIBOJC9+7d3c+yy8CVMah8JNwoyGCSC7iCXKm0u6Wgnw6WkSb42u3Sr8UEd+j44lRvX3lR7ZMRePzxxzuvI901pHrIaNdP0cqzSQsueVlUq1bN/dS67jaSOBGEKI8NGZmqjxafunxTxnPY+Nff9MtnYePfV56vH5RvVHk6hifvIBmOapOELO3Oqlxf233t01EZGf9aFChPiYA6/xiEKNa+9vn6z9cGlekTBXz9ENQ3U4KPb1wnGi/ptCE370MiIUX1jcclqm993xBfPRO9Y756ahEd7z3yfZfSHUuJ0vm4RNUzGBMSTHWnlsTY2JBOHIJPqtNy7p/X3KFv/Lhx49xxaM1tukA4CPoOaSGv73BwdFpxvnTpxgVlpir4aF6Qx602aHSvnX5BUvebKeiHFGQf6E4a2QW6Xyjs0atnNHdq48b3y2SJSOdG8FHesk1kZ/z999+uDWKu+9kkzmRC8JF3lX7MQl5M2hyT97GYhYOOae+yyy7uT/Hu8NHff/rpJ2cf6Li67Bx5yUrwjfUoCpenO/iUd/jou/pYfYHgk2hkEQ8BCEAAAhCIJhClS6TLLGsFn3QbRDoIQAACEMgeAvKKlFAWLLx11EhCfKKgI6e6N0RB967pWKAWtwQI5BWB3Ao+6dRTArG8cWODPJvDR67TyZs0EIAABCAAAQjseAQQfHa8PqfFEIAABCAAAQgkILAtBB86BQIQgAAEIAABCGSSAIJPJmmSFwQgAAEIQAAC2wUBBJ/tohtpBAQgAAEIQGCHJoDgs0N3P42HAAQgAAEIQCAeAQQfxgUEIAABCEAAAvmdAIJPfu9B6g8BCEAAAhCAQMYJIPhkHCkZQgACEIAABCCQxwQQfPIYOMVBAAIQgAAEIJD9BBB8sr+PqCEEIAABCEAAAn4CCD6MEAhAAAIQgAAEIBBDAMGHIQEBCEAAAhCAQH4ngOCT33uQ+kMAAhCAAAQgkHECCD4ZR0qGEIAABCAAAQjkMQEEnzwGTnEQgAAEIAABCGQ/AQSf7O8jaggBCEAAAhCAgJ8Agg8jBAIQgAAEIAABCMQQQPBhSEAAAhCAAAQgkN8JIPjk9x6k/hCAAAQgAAEIZJwAgk/GkZIhBCAAAQhAAAJ5TADBJ4+BUxwEIAABCEAAAtlPAMEn+/uIGkIAAhCAAAQg4CeA4MMIgQAEIAABCEAAAjEEEHwYEhCAAAQgAAEI5HcCCD75vQepPwQgAAEIQAACGSeA4JNxpGQIAQhAAAIQgEAeE0DwyWPgFAcBCEAAAhCAQPYTQPDJ/j6ihhCAAAQgAAEI+Akg+DBCIAABCEAAAhCAQAwBBB+GBAQgAAEIQAAC+Z0Agk9+70HqDwEIQAACEIBAxgkg+GQcKRlCAAIQgAAEIJDHBBB88hg4xUEAAhCAAAQgkP0EEHyyv4+oIQQgAAEIQAACfgIIPowQCEAAAhCAAAQgEEMAwYchAQEIQAACEIBAfieA4JPfe5D6QwACEIAABCCQcQIIPhlHSoYQgAAEIAABCOQxAQSfPAZOcRCAAAQgAAEIZD8BBJ/s7yNqCAEIQAACEICAnwCCDyMEAhCAAAQgAAEIxBBA8GFIQAACEIAABCCQ3wkg+OT3HqT+EIAABCAAAQhknACCT8aRkiEEIAABCEAAAnlMAMEnj4FTHAQgAAEIQAAC2U8AwSf7+4gaQgACEIAABCDgJ4DgwwiBAAQgAAEIQAACMQQQfBgSEIAABCAAAQjkdwIIPvm9B6k/BCAAAQhAAAIZJ4Dgk3GkZAgBCEAAAhCAQB4TQPDJY+AUBwEIQAACEIBA9hNA8Mn+PqKGEIAABCAAAQj4CSD4MEIgAAEIQAACEIBADAEEH4YEBCAAAQhAAAL5nQCCT37vQeoPAQhAAAIQgEDGCSD4ZBwpGUIAAhCAAAQgkMcEEHzyGDjFQQACEIAABCCQ/QQQfLK/j6ghBCAAAQhAAAJ+Agg+jBAIQAACEIAABCAQQwDBhyEBAQhAAAIQgEB+J4Dgk997kPpDAAIQgAAEIJBxAgg+GUdKhhCAAAQgAAEI5DEBBJ88Bk5xEIAABCAAAQhkPwEEn+zvI2oIAQhAAAIQgICfAIIPIwQCEIAABCAAAQjEEEDwYUhAAAIQgAAEIJDfCSD45PcepP4QgAAEIAABCGScAIJPxpGSIQQgAAEIQAACeUwAwSePgVMcBCAAAQhAAALZTwDBJ/v7iBpCAAIQgAAEIOAngODDCIEABCAAAQhAAAIxBBB8GBIQgAAEIAABCOR3Alkp+HTs2NEaNWpkLVq0SIlvKuk+//xzGzRokD3xxBMpleF7ONk8k6nnm2++aU8//bQVK1bMTjjhBOvcubMVKlRos+KTLS9jDcwnGWWCSzJ9lFscvnpmog2++vnalxdtD9ctv5WXzLuZ27GRV+m39jhTO66++mobMWKEFS5c2DWrR48e7puWKNx+++2m+imsWLHCpTvrrLMSJSMeAhkjsKMJPh999JGdfvrpW/D7559/nD323nvvWeXKlRPynTJlil1yySX2/fffJ3w26gG98yeddJK9+OKLts8++6SdDwkhAAEIQAACOzqBrBV8mjZtGmncjx071h566CErUqSIPf/88zl9qIWjL124s7WQ+OKLL1w+4TB+/Hg755xzTP9ONYTzXL16tXXv3t2GDRtmGzZssK5du9oZZ5zhskxUz/nz59vJJ59sn3zyiVWsWNFef/11a9WqlRUoUGCzKqXShhkzZtjNN99sEydOtP32288eeOAB23XXXW358uV20EEHWfHixXPy7tatmzPufHE+NgMGDLBbb70155GNGzfaNddcYzfccENCpFF9mzBh6IEwl3TbkKiPfPV54403nJC4fv16a9asmd15551b9J3SR/VfvLjnnnvOXnnlFVesxL8zzzzT/Xey7Ysd1772+eJ8fesb87506ZaXaEwMHDjQHnnkEfdYly5dcr4nuenbZN7NeN+QqLokeleSHUuxLJJ9j3xjMBHfZOMl+LRp08YOP/zwyCSJvrv33Xef1alTZ4cTfKZPn+6+pfpu161b1x599FErV66c4+iL8/VNJvLU91zzSIcOHVxRqt/dd99tf/75p1WqVMl69uzp5hUFCXWvvfZazoaF4r/55hvv8Bk8eLDddNNNrq2a93baaSe7/vrr7bjjjnPpfvvtN7vrrrts7ty5VrZsWTe/nHbaae67u2rVKjfXBUGCwcKFC11+qYatLfjIftFGjt6PZEJu2rdgwQInvk6ePNl23nlne/DBB92YCsLKlSutcePG9t1331nJkiU3q86aNWvsrbfespYtW+YIt776SvBp166dff3118k0K+4zmzZtcuNG9lipUqWcaCxOFSpUMMUdeeSRzsbSGNG4O+WUUxxLjReJUmrrRRddZInGUroV9L1H4qX5unfv3tavX78czlOnTnW23JdffulsLjHXuNX8oA3ISZMm2T333JNTJb071apVc//43gflK4F8woQJVqtWLdP3UiKZb7xI2Iti5qun3sWoMGTIEFcP/TuwKa+88ko7//zznW2e6eAbE77vkr4HRx11lI0bN26LjdRM15H8IACB9AlE2c6JcvSlSzcuWbs6XDet5RctWuTmTc1NDRo0cPOW5litjbUW//TTT51OIBtZ6+8SJUq457799ltn3ygoXvOzbPbSpUsnan7c+Hwn+MyZM8cee+wxN+lrcnzhhRdyGpbKQi7eQkdAmzdv7iYB5Z1qCOe5du1aN6mfeOKJzijVxCojV/VOVM+ff/7ZGWMysHwh2TbIOJLYJANMQoF23Q4++GA34GbNmmXXXnutMzhigy8uFTaa6B9//PHNjMt46X19m0p5YS7ptiFRH0XVR0a1DCkZb0WLFnXjSUbbYYcdtkWSZAWfoUOH2lNPPeXGukSk8847z/r06WN77bWXt/+CAuON63QFn9hGhPvWN+Z96VJhnexYkjF+7rnn2rvvvuuKlmeIdqd33333hO+fb6wlejfjsfbVxccllbEUzieV9ygbBJ9kvrs7quCj78fll1/uNgBeeukl+/XXX923VMEX5xvDuc1TGyXt27e3Tp06OcFHQq8WrTJUjjnmGPvxxx/d4lTfLRk4El8Uf/TRRyf9GdciXWNTc73CmDFj7NJLL7VffvnFChYs6IQfLSybNGli//77rxN277//fvvrr78cr7DQIJHilltusQMOOCDp8oMHt7bgo3odcsgh7pueTJBYk277tPFQtWpVu+qqq6x///4mb55XX301p1htMKk/5VkseyU3IROCT2z5WtzrHXj22WfdmNNmnfpbf5Pgc9111+UYzhonV1xxhUkwl3jhG0vpttP3HmmuXrdunbOrNDbDwprGrTbb1A+a1yX6aENCApG+czLyq1SpYtpc0Pt04403OsEnqg2yCfR90HN6zz788EPH5rPPPnP2QdR40YZpFLN9993XvV/x6unjJaFHdqbefwluChJ85O3VsGHDdFFHpvONCd93SQswfY+0gCNAAALZSSAV2zncAl+6dONSsavDddG3Weu1mjVrunlLjg9af+u7rG+15qiXX37ZnebRv3fZZRfnAa+5+Pjjj8/Z5Bw5cqT17dvX/ZNuyFrBZ88993RG28yZM+3YY491ux5SvYKgSVETZKzgE5VOSpomwY8//tgpZjIUZ8+ebQ8//HBOngI5bdo0ZwyFBR/tMulv2jmUgKPJTIZsMnkGmUuZ01GQ6tWruwVnVD2l9n3wwQe2ePFiN+lrt0Y7lArJlBevDTLAlYcMpdigHSHtxmqgpRKnZ6O4hPPRTqx4BUczli5davfee69p8MogkmEp76fguIfSxutb/V1ptKsrA1+GiFRSvTg+Lr72+drg6yNfXTRutCMvzw0FLYokAEmo8NXTF9erVy+n6LZt29blKSNRz6uOidqn5+ONCV/7ErU96N/Yvo0dP+Ex7xsT6ZbnG0vaWZXBfMcddzhlfO+9984xQn3l+fL0vZtB++Kx9tXFx8U3lpJ5/+K9R8l8Q9KdTKLSJfLwifruhvPbEQUfjdtDNAed3gAAIABJREFUDz3UiR0KElTl1aDvuTwZouIkNEeF3Oap90MLXXlb6Z0KPHw0b8qgCYIWuBJ8ypcv7xa2Mm4kbCQbYgWfH374wQlK2kRROOKII9xcLk+V2KBjQBKKVMclS5bY2Wef7TwO0gm5EXz03mvO0uJSYpP6b9SoUU4AqFevntutkxGpICFGorQW/mrrM8884+bXIIif/lG7fe1TO5W/7AexkcijOVJBfXXBBRe44/LqLy32ZWsEQRs/srFklIaPussLSfaBjnX9/vvvztsmCNoc0zdWtpQMVc3t8vwKBB+NFaWVzaW5W21WkC2lTS31YbAhJfFLdoDmFQmKCvPmzXObJ7Vr13YePoHgoziNZQkiEq3ENhAvgropD9kXeh/CYkl4LPlYy0NGHrqqv+w1vXeylbSJoDon8/7JO0ntDgs+2gDUxpvsQXkgqX3ympE9q/bJVhBTbRTpHZJ3TKzgE26DhJ133nlns4WAvrkaJyonaryERbJYZkoXVU89q7S33XabG7/azPr777+dja7/l62p/lffql1hwcc3PsOCrEQsLYAkcCtIgFK+8iJUvSTuyhb3jQnZzlHfJc2DCD7pfBFJA4G8I5Cs7RxbI1+6dOOCMqLWp1FUwoKPTmRontL3VU4YOr0j73bNm7FBGzCan4N1u+YDfQc1p6Ybslbw0U66JkQdadLELUMnMC7V2CjBJyqdjKfRo0c7Y0gGmCZyGT6B4CPVTzsTKlOuVIHgowlKC+zAJV07Fa1bt3aGRKI8VU+5ust4lRETiFNacPraJ6NQi/ywwae8EpUX1QYdB9IulyY/7fjI6JMRriAjRoqjjDhNgjrKpZ2xRHE+LuHBKCNAXk1B32kRLuNLdZDgIwNXBoPcnH0vlOov40jG5/777+8MaRk6Mox8XHzt87XB10e+uqgNEma0A60FjgxE1Vm7ab56+uLUThk76kcZ5DIAZczoeIevfapL1JjwtS/R+Az6KbZvg7/HG/O+MZFueb6xJKFNO4ry8pFQo7EvdmLmKy/R+Ix6N32sfXXxcfGNpWTev3jfyETfkHQnEl86n+ATNT5j89sRBR8xOPXUU50HpuYbfXf0XdExYS2ufXG+/shNnlrkafGtjRgt4sNzclCmhAGJLPpGK+i7LS8GvVsSiSTc6PvlC5ozdXRVc4dEJi3o33777ZyFswSR4Psf6z0pDyjNZZrX3n//ffvjjz82O2KcyhjPreAjY042x4EHHuhEHLHRHBwcOdM8LMMv7FETLEa1aaCFvuZJiQASu7QI9rVPC3/ZL9oQ0WJZ/aONMwkp6g/ZO7ItnnzySbfpFdylpSNI+n9x166ixpjKCgcZmz/99FOO4KM+1XiUsap/q36BKCcBSIaubAlt+Cg/HcmTl3OZMmVc3+rIj+ZvLe61kJcwEDsuVCftjsYTfFQ39bFEH9UtLPjIE+riiy92IorEh6ixlIi1xBjlIVFJgpzmkkC8Seb9iyf4qN4Su+T9I+NdNpCCytFRIwkl6h9thKnftdmjcRDVBvWphJXLLrssp7skHEl8kYgWNV5iBZ8ws+DOpHj11FhR36rfNcfKU0xznHarVab+v0aNGk5sleAYFnx84zOovPpEdrbKUB8qqP/1nmh8yebRfKA5MFbwCY+J4Nh7vO+SOCP4pPIl5FkI5D2BZG3n2Jr50qUbF5SRjuAjG0ZOInJWkFAtW0BBNpHmAK1T5MEcHN9SnDZF9H3VEWutz5VONkFwpD+d3shawUeeMMFEKGNBk5YmCx90LeSi0gmqJp9gstbErZ2C4I4PTSyaMLWDqrsHAsFHBpMmdv2jIOASjpQ+UZ56Xgad8lLeMnwVfPVUfNSiMlF5UW1QXaUWSjDQTqIGlowveU5p0peKqHbKgJNYoZ1ECWK+OB+XoI+0CyZRTS5rMgDiBbVVZ9zlRu7rW6mbehm0+IkNPi7ptsHXR766BGNEixO9zFr4yBBV8NUzUd+Kj8aePhoy5sVT9fC1T2VGjQlf+xKNT+Xr69t4Y943JnJbXpB3eCzJyBR71VOGrBaaOtIltTyZ8uLl6Xs3fax9dUn0rqjP442lZN6/eBNTonGWziSSKI1P8Ikan7F57qiCj8auPAS0aNWiVkdVJJjrjhJfnK9P0s1TCy3NJZqHtcMeJfhoES5RPvBI1Byrhbs8TZRWGx+aj3Q0KyqEPXz0DuuMuxbBmqsknitowafdOgUdP5HXjIK+iZonxEnviebeVLyLwnXKreCjNur9lzeIjlKrHfKSkdChoLpps0N8wkGcZdhps0siiYSHYHMqlfbp/dIiWQt4ecuob+Txojv9ZA8EAotYibk8o1SmvhOxF6vHCj5qi/IIjs2q/lpk6/uv7608S9TWwDNbx9b07ZV9pftTZEfFikqx4yGR4KNNB7VBdx/oOFPgfSTvJnFXmYnGko+16qNxLI8pjWkJU0FI5v2LEnzkmSubUnNSMG4l+GhhIJFT/aD5Xbajjt6HPXxi3wcJLxIUtWgIgoROeQbq2xE1XvT3KGZBPvHqGc8rSm3QZmkg+KhOWqBoB1ubXlFHusLjMyhTgqTKDd5t/V3jVwsfeb2r/fIik5ArETPs9aVngzERiEVBvuHvEoJPolmbeAhsewLJ2M7xaulLl25cUE46gk9wpEtrQglO+lYHgrQcULQukWCu+Ur3EQZe2rKd9Y3W90/f1HgncVLppawVfKRsyZNBQR4DMkLCbtlRHj5R6bQDJU+LwMDRjo0mRBmjOq4lo0qqm34ZIiz4qGM02QeGiXYaNfFLgPLlGe6E4N4VHfWRYSKjx9e+KMEn3TbIUJTREJypVns12QdGZ7iuGnTaEQzuToiK83EJ0qgdMpC04xME7VaqH9SXUjB1Bl87tMGFxHouXt/KiNSOT+yujZ5Pth/0bLh9vjb4+shXFxklMkDURrnGyxtMd0io3r56ptIGeWlIrIx3CXa4fb5x7WtfovEpjvH61jfmfWMi3fJ8Y0kfVYmbwf0eWpRIONa49pWXaHxGvZs+1r66+Lj4xlIy71+89yiVcZbKROJ7Nkrw8TGLzW9HFXxiOch7Q3NVvIWyL87XP8nkqfQ6mqp5T0el1B/xBB+J9xq3OqYXJehoDEr0CR8Bi61f7JEuxcv7VMaQPDrCQfOVPGbkMbHbbru5KIkVWjhKbJeYEfuDB8mO7dwKPvKs0QaKBB8JZhJuwoKPFqWaT2LvNwl7X6jN2iwKPxPVPnkSy3jUERt5SmhRLNFY5Ytf4FErJrILJNqon+TdrDlZC2l5JcmbRd6Q4RAr+KivJUCKcxD0bVVZ2uiRkCVxIAhqh0QAeWvom5DMMbtEgo/6XcKSNkFij3QF5SYaS4lYDx8+3M3hmlt990DFe4+iBB/VWx5YuodPHuQKgeAjryjZiuofxcUKPkG7gvdBc5LexcAzW/G6/1E2gvoj6n2Id6Qr9r2IV0+9ZxIvw+NDR/U07gLBR/OsbGx54Mj+DQQf3/hU2XpeY1Q2Y3gnW2NPIlAQ1A/yNtP4ixV8gjERviQ69ruE4JPsF5DnILDtCCRjO8ernS9dunFBObkRfJSHvp3SHcIbJfq7dAZtzsijU/aVgr6D8mSW5qDj8RdeeGGuOiNrBR994AOBQgauFtDhI05Rgk9UuuAoVjAJ6D4fuR1r0hJEuVlr51C7B3Kd32OPPdykqQ7Q8aN4F0768oztFYkrEpu0o6dJ2Ne+qEVlum2QQaw85Z6rIANQRmewW6U2BwaxjBoZSMHuSlSc+iaKS9B27bRokIa9cqRSyhCVe7J2/mR4ytBJ1Ld6AVQXHSmIDYn6IZ02+PrIVxfVT7ttYqOgHW0ZMTLefPVM1IZwm1U3Lb6CHdio9vnGtfo+agwmGp+qS7y+9Y1535hItzzfWJKhrHdbRrWOEGi3VAakdvx95SUan1Hvpo+1viNRdfFx8Y2lZN6/eN/IVMZZrmaWUOIowcfHTL/kFA4IPua8fLSolWgQG3xxvn5MNs9AVAlcjrVgklAgISIQnuV9I29OLcDCv/IU/j6pLhJ85LGo709UiLdI14JWC2gJ/xJmA08f5aE6KF/thinofdN3V+KUvBzSDVtb8NGGgDxIgrttwvVUW7T41bdLRl9YtIrXPi3wJQRr7paBqKA81H55hGrTQeJFEFSm+kteExLR1Mc6ZiUvE7GUYRq+Dyqeh4/KCt8DpHlJwo48fHQER5tqQT/J41JChvLRxpfqIm8WX/AJPhpXEpACoSQVwSc8lgJO8VirDI1x1VNHlGSnxBMPo96jeIKP7EsJSDq6pT7RXCXP86Ad4WOSPsEnaIPeQ80xwV2Pao/aIltX70rU+5BI8Imqp8aFRD4J9go64iUPHy1gwoKP3lGJcfq3PAI1JqLGp8aDfqRAPCQWxf6iY7KCT3hMyCtKId53CcEn3S8i6SCQdwR8dryvFr506cYF5eVW8NG9dzrmLBsn1o7RFQfaIAruvJUDiuZmbWhokyzWLk61J7JW8NFOgHYIZGDKu0c7ToHHjxoZJfhEpdPkJPdS5amJWxOuPEtid7FiPXz0iyTardTuhSb9YAEpQciXp27/l1Al40deBnLVUlmBh4+vfT4vgnTaoIlUE79EM+0o6UiXFmEyCGRIapdPbrfyXlKcDBzV1xfn4xIMQg1UGfbhXTHlLSNXhprqJWNXimYiwUfGhwxGGQ4yArW7o3tZlJ+vH9Jtg0SBqD7y1UWuexqb8hbTxarKp379+m4M++rpi9NFX+ojGUsykmXMffXVV84Y97Uv/DGIHde+9vnifH3rG/O+dOmW5xtLMsBlbIubgr4fcjnXe+srL9H49N3hE7QxlrWvLj4uvrGUzPsX7xuZzHdQ4qTGrHbpY0M6cYkubVYZscxiy91RBR8tVrTZoKMq+obo2xfcd+aLEz/tiGtnW9/28CI1N3kG/RLr4aMjWjJIVJ4EVgUtvvSP5lr9gpDmW20oaHdL3h36PkaFWMFH3z0dQ9YiWUHvsDZj5C0iLxZ5qOjoo36FT0FeKhI7JGhoLKcbtrbgI+FdQrTao3da/RsIJJqvdYxN/R7cuRe0I1775EEkcUjHeSQC6F2XwKLvngQFeaCo34I7etQn8sDRAl5eG+Fj1ZqjZQuEj5pF3eGju2a0UFe5Oh6luUmbadqQkGEb/Dy7xqEMWc1bmsM0/6u+8lZTW/VcrAAUJfjIVpHoEGza+cQL31gKDOgo1hJSlF7jWu+djmEFR/MTvX/qq3iCj8axjjeKr450ib3sn1QEn/D7oPGjeknw0lF8xenuHtkGgSdgvPGSSPCJqqcEnuBiaY0l9YNs5FjBR+0PfvlNdre83aLGp74Nbdq0cVyCI/BKr4u59Z1IRvCJHRNB+fG+S/xKV7pfRNJBIO8IJGM7x7NJfenSjQtanRvBR9emyNlBdoo8ETUn6j5Gre30fdT/62SI1rlB0PwvzULzeG5DVgo++uBrIpESpzNvcl0VpLCLeDzovnTyKtHACC5C1O6TzpBrURUO8RYemqx0dk4TijpKRo0UN1+emlBkkGryVb0lbOjsoEKi9kUtKnPTBhlh+lUrtU+GiyZzBR2rkleDjAPVU6Kadku1QPDFKW0UF8VpsaFydMY6vNhQ23SXkiZyiXkyxuWWm0jwUZ5BWh0D086tXg4Z/D4u6bYhmT5SO2LrojEiztqFV7u16NBzMnJ99fTFaddMRrU+VDLuZLQHd1Elal8wtmPHta99idoe1be+Me8bE+mWl2gsyVgPjhvIjVPfkUTvX6I80xF8VGZUXXxcfGMp0fun+Khf6Ur0HZTYq4WDFiSxIZ04BJ/0p2kJ/PKYkaGgi311V03wPfXFqUR98+WJF1746e+5yTNoSazgowWZvEMCjxB9z+TdqGNbOkqp53VhsQRXfbd93j0qQ4tszUMSj7Tg0918Eg90x56CvBk0J+teGs3FEi8Cb4agjnrfZST5hKVEPbO1BR9tHsgukDu3fpgi4Kp6yWNHmyY6IhdvZy+2fZpTNT6CX3GTCCCBTZ692miSx5O8fbSLKI8f/bfmX4kvEndlEwVB3yv9sITS6nshcUP9J+NUgkfgfS2xTZ6IusRbx+m0oA9+pUtilX50Q+NA5cmI1bytIKNWdpREAvWPPA/lCRzbV6q3bDaNI9VfXi3BRdY64qZ5UWJoIsHHN5aiWMv21PwtFvLO1r1H+v5JpBGHRO+f8o0VfHQ9gXZwJe4FNoG4qw+0gSXvqigPH18b1KcSedQfwX0PwcXLUe+Dj5mvnhKgtRmm8mSbyGtdwo685sMePkG5YqD3U2MtanxKRNIYkH0T2PkSizX2JC75BJ+oMaHyo75Lsj01tuTdFg4SSfWtIUAAAtlBwGc7q4ZRNqkvXbpxUXa1j5TsEs0lEnT0zQ9+6Vv2kub/4FerFa/5XptA4cubg1/tjmePp9pDWSn4pNoInocABCAAgewkoMWMhLJgMaeFgo6MJAqa+PSzxMECUQvL8K8ZJUpPPARySyA3gk9uy94R00vwkEgnUUSeRxI5tGkmY5iQmIB2iuXVle4l5YlLiP+EhDEJPoGgl24+pIMABCAAga1DAMFn63AlVwhAAAIQgAAE8jEBBJ+87bxly5Y5LxB5hWmXM/jp77ytRf4tTUcl5bkl7zB5d8V6+WytliH4bC2y5AsBCEAgMwQQfDLDkVwgAAEIQAACENiOCCD4bEedSVMgAAEIQAACOygBBJ8dtONpNgQgAAEIQAAC0QQQfBgdEIAABCAAAQjkdwIIPvm9B6k/BCAAAQhAAAIZJ4Dgk3GkZAgBCEAAAhCAQB4TQPDJY+AUBwEIQAACEIBA9hNA8Mn+PqKGEIAABCAAAQj4CSD4MEIgAAEIQAACEIBADAEEH4YEBCAAAQhAAAL5nQCCT37vQeoPAQhAAAIQgEDGCSD4ZBwpGUIAAhCAAAQgkMcEEHzyGDjFQQACEIAABCCQ/QQQfLK/j6ghBCAAAQhAAAJ+Agg+jBAIQAACEIAABCAQQwDBhyEBAQhAAAIQgEB+J4Dgk997kPpDAAIQgAAEIJBxAgg+GUdKhhCAAAQgAAEI5DEBBJ88Bk5xEIAABCAAAQhkPwEEn+zvI2oIAQhAAAIQgICfAIIPIwQCEIAABCAAAQjEEEDwYUhAAAIQgAAEIJDfCSD45PcepP4QgAAEIAABCGScAIJPxpGSIQQgAAEIQAACeUwAwSePgVMcBCAAAQhAAALZTwDBJ/v7iBpCAAIQgAAEIOAngODDCIEABCAAAQhAAAIxBBB8GBIQgAAEIAABCOR3Agg++b0HqT8EIAABCEAAAhkngOCTcaRkCAEIQAACEIBAHhNA8Mlj4BQHAQhAAAIQgED2E0Dwyf4+ooYQgAAEIAABCPgJIPgwQiAAAQhAAAIQgEAMAQQfhgQEIAABCEAAAvmdAIJPfu9B6g8BCEAAAhCAQMYJIPhkHCkZQgACEIAABCCQxwQQfPIYOMVBAAIQgAAEIJD9BBB8sr+PqCEEIAABCEAAAn4CCD6MEAhAAAIQgAAEIBBDAMGHIQEBCEAAAhCAQH4ngOCT33uQ+kMAAhCAAAQgkHECCD4ZR0qGEIAABCAAAQjkMQEEnzwGTnEQgAAEIAABCGQ/AQSf7O8jaggBCEAAAhCAgJ8Agg8jBAIQgAAEIAABCMQQQPBhSEAAAhCAAAQgkN8JIPjk9x6k/hCAAAQgAAEIZJwAgk/GkZIhBCAAAQhAAAJ5TADBJ4+BUxwEIAABCEAAAtlPAMEn+/uIGkIAAhCAAAQg4CeA4MMIgQAEIAABCEAAAjEEEHwYEhCAAAQgAAEI5HcCCD75vQepPwQgAAEIQAACGSeA4JNxpGQIAQhAAAIQgEAeE0DwyWPgFAcBCEAAAhCAQPYTQPDJ/j6ihhCAAAQgAAEI+Akg+DBCIAABCEAAAhCAQAwBBB+GBAQgAAEIQAAC+Z0Agk9+70HqDwEIQAACEIBAxgkg+GQcKRlCAAIQgAAEIJDHBBB88hg4xUEAAhCAAAQgkP0EEHyyv4+oIQQgAAEIQAACfgIIPowQCEAAAhCAAAQgEEMAwYchAQEIQAACEIBAfieA4JPfe5D6QwACEIAABCCQcQIIPhlHSoYQgAAEIAABCOQxAQSfPAZOcRCAAAQgAAEIZD8BBJ/s7yNqCAEIQAACEICAnwCCDyMEAhCAAAQgAAEIxBBA8GFIQAACEIAABCCQ3wlkteDz5ptv2tNPP23FihWzE044wTp37myFChVKmvnnn39ugwYNsieeeCLpNNnyYKpt79ixozVq1MhatGgR2YRM5plMednCclvWI5vGoK8u4bi86NtMcvGN63hxnTp1inxX8qLt23I8bouyr776ahsxYoQVLlzYFd+jRw/3PU8Ubr/9dtM4UVixYoVLd9ZZZyVKRjwEMkYgWwSfdRvXW5GC/70/BAiIwEGfdrS3jupi+5atntVA8ks9sxoilYMABCCQSwJZK/jMnz/fTj75ZPvkk0+sYsWK9vrrr1urVq2sQIECNnbsWHvooYesSJEi9vzzz0ci0GLhiy++cM8mG8aPH2/nnHOO6d+5CatXr7bu3bvbsGHDbMOGDda1a1c744wzcrJ84403nBC1fv16a9asmd15552ubQrptF0L1aZNm0YuiHx5RrXTl6cvbuPGjda7d2/r37+/rVy50k477TTr1q2bFSxY0BXla7svLqinr49i45YvX24HHXSQFS9ePKeZqouEsQEDBtitt96a83fV+5prrrEbbrghYdfPmDHDbr75Zps4caLtt99+9sADD9iuu+66RbrYMfjcc8/ZK6+84p6TgHnmmWe6//Yx89UzEetwhXzvQzgu0VjKbf+pTuHyUmlDLGDfuI6Ku+666yLfldy0PapvVWdfXNRgS8TF9x1MZnxm6luX6GWR4NOmTRs7/PDDN3s00Tcy/PB9991nderU2eEEn/UzZ9vi+3rZ+inTrUidfaxC95usYNkyDo0vztcnyaZbeMt9VmTvWlbmsgtddkse72srBn5sBf7/O15wp/JW5b0Xc4pa/tpAW/7Ge1agSGErdeHZVvqC/75t4RCbZ1Q9V301zBZ3f8QKlC1tZgWsUIVyVuaKi6144yNdkrV/TLIlDz9jG+cvsgJlSlmZNudbieOPtmXPv2GbVq22stde9r96vfm+bVy8xMpedWmiobpF/LYQfPpMHmxf/furDWjY1dVn6NyxduXop+274x6wSsXK2pdzxtjNv/azmSsX2MEV9rD+DW+2skVKumervt/K1m3cYP9ZEv+FX07uZbuV3Dmy7WMXT7eDPutopQuX2OyZ4cc/ZPuV2y1lZkowf81Sq/5Ba1tx7gArVDD5Tbozv7vXbq1znh1ZsbZNWTbb9ixTzRavXW5nD7vPvm56X1p1eXXaEOs75XMbetz9OekvHfGYNdq5jjWouG/Ctj884V17dMIHVrRQYeu0z5l2Xe3/7LhxS6bbdT/3td8WT7OqxStY3yM6uHonCqMXTrIOPz1rs1cttPJFS9ltdVpYi90bJ0q2RbyElPcb32Y1S1Xxpr3xlxfsmcmfWKEC/9lfVYqXtynN+rr/zlRdfBVItp5ReaQ7Pictm2XHf327TTi1t5UoXMxWrF9t9T7taCNOeNhGzJ9gz0751D46ultOsR1+6mP1K9a2i2s2SbkvSAABCGwdAi9P/cpu++1Vl/n99S5N+v30pUs37ueFU+yW3162ogULb/bt8LX8gMHX2II1y6xwgUKmJX7TKvXs6UPbW6nCxW3jpo1uLh/49w+2YdNGa7zz/tbrkMutZKFituuHrW1qs+etXNFSLvsNGzdYjY/a2vhTn7Ey/z/fp0o8awWfn3/+2R588EF76623NmvTnDlz7LHHHrMKFSrYpEmT7IUXXohsc6qCj4SZ5s2b27hx41zeuQlr1661L7/80k488USbO3eunXLKKfbNN9+4ei9YsMBOP/10531UtGhRV6Z2rw877DBXZDptT7RQjcrT18Z0BZ9+/frZyJEj7f7773feWe3bt3ftl8jia3siLm7Qe/ooXtysWbPs2muvtYEDBybsTglmjz/+uNWtW9f77KZNm5x4165dOyfYfP/993bwwQdbyZL/Gd3hEB6DQ4cOtaeeesqNWQl95513nvXp08f22msv8zGLzTNcz1TSZULwyW3/BW0J1yWVNsSy8I3rqLh0x7Wv7b6+9cX5BpqPi+87mMz4zOS3LtGLFSX4+L6RsXnuqILPvMtusNKtmluJJg1t+Vsf2LpxE6zCPTc7PL44X58kk27Vt8NtUZd7rcyVF+cIPovvfdyKH9fYijc4dIvsVw0ZZive+tAqPHCbFShezNb9Pt6KHXHwZs/FyzOqnhJ8Vn873Crc3dk9snbsBFvQ8Q6r+uXbTnD699zLrVynK6x4w8Ntw7wFtrT3y1b+9utt/fSZtvDG7lbl3f/ZBfOv7mplO7azovvulWiobhG/rQSfYfP+sNca3GgTl/5jpwy9ywY17pYjvnw/7w+3aN+rzC7W8adnrXDBQvbowe1c3SX4jD3laScMJRu0oO7wcx/7pmnPZJMkfE6CT82P2trycwckfDb8wM1j+tl+5apb61rH22nfdrd3Gna18Utn2nNTPrU+h1+TUl7BwzKU9/3kKut7xLV2bOUDndBy5Bc32sTTnrXJy2Z72z7w7++t18SPbGDDW6xk4WI2fP4EO77qQbZq/Ro76LPrnHF+crVD7du5v9ulPz7uDPRg4y6qsrU/bm+PHdzOTt3lMJu1aoFbzLxwREcr+P+CTLKNTFZIaTvyCWuxWyM7qdohW2Sdqbr46pxsPaPyyM34bD/qaSeIda1zrt077m0n+vSsd6kN+mek9Zv6lb3T6JacYhF8kh15PAeBvCEg0b/Bl53txxMedgUe/vkNNvLER22P0lW9FfClSzfun5ULrNvY161i0TL2x9K/bVBILPZVRoLP+41uc/O15o0rqvdaAAAgAElEQVRWIx61+pVq2037nmNvTv/W+kz+1D47trsVL1TUnpz4ke1ecmc7s3p9a/H9A3bGrkfkCFza+Hl4wnv24dF3pA0/KwUfeUt88MEHtnjxYqtSpYrVqlXLXnzxfzuJau23337rPCXCgo92xOXN8/HHH1vZsmWtSZMmNnv2bHv44f8Gy2uvvea8TlatWuWEmJtuummzyblv3742bdo090wg+CxdutTuvfdeJ2CsW7fOCRfy1gmOJyTKM+iZxo0bm46XVK9e3eUtzxJ5bijoiIkEIC3k0227FrF77rmnff311zZz5kw79thj7Z577rESJUokzFNtu+uuu+zff/91XiryTJKA4cvTFydmWlBK3FJQH6lO8mLytd0XF3CM10e+uAkTJljPnj3t5Zdf9r4kv/32mxsPwRES33j58ccf3Xh89tlnt8jTNwZ79eplpUuXtrZt27p0En/0vFj6mIULia2nL52vLr44X9+m23++8nxt8L1/vnfFF5fuuPa13de3ifo96vuSzJiI9x30jc9k3qO0Z5OIhFGCT+zj4W9kbNyOKPhs2rDB5px4oVX7qr/DsWndOptzSkurOvh1s4IFI+MKFCkS2YW+PIN0G5evsPmX3WBF9tnDCu+xe47gs7DLvU58KnrgflvkP/+qrlau0+VWZJ8945YdlWdURWMFnzWjfrUlDz5tlQc855LMObml7fz6k1ao4k5bZDH3/PZW4Z7Ori4bly6zeW06WZWB0Z7AvvGeG8Hn/j/esW/njbUFa5baIRX2tDUb19l38/6wV+vfYDVLVXbG68wz++UUX37gBTbzjJfstenfmAQfiQKNv7rZnjq0vRMZ4oV+U7+0b+aOtX5HXu+ifYLPyvVrrOuv/az/38Ns46ZN1rLGsfbQQW1swtKZXtHjl0VT7KrRve3vlfOcMdrnsGusXoVarrwZK+bZNT/1thkr57ldyecO72AHlq/pPHyiBB958XTb/wI7dKe97Lt549yu5o8L/rRHJrxvp1Q71P5cNtPuPqCllX/3Avug8e22ZN1KV3an2mdZVBsmL59tzYbebS1rHGODZ//kdkt71G3lxBiFl/760l6d9rUNadrDCSwlChW12/c/3xKJCU2G3Or64aAKe2yBf/KyWc6ID0LZd1rYtNNfsDGL/7Ief/S3r5r0yIk7Y+g9dtO+Z9vRlQ9wfTTmpCesaon/7KMg+MZLg0r7mvqh/ahnbP7apXZy1UPs+/nj7b1Gt1qt0lWteP9z7JNj7rSOPz9ns1ctcgLSWdXru6zPGXafdd73HFMesSGdutQus6sd/Nl19tmxd7vjZBK7Oo95yXnOSLTy1TOq/yRaRo2lRH2k+CtGPWUzV813Y+mv5XOs92FXuz6TuHfY553s26Y97dght9qYk59wYiiCj++rRxwEsoNAzz8G2L+rF9vjh1zuPFwK9z/LfddvrRN9dYlq7kuXblxA5NPZP9lTkz5OS/BZtm6lXTj8YTdPXVjjGJM375hFf8XdzBgwY5i9Pv0be7/x7a5oeWrWLV/TLq11XNqdk5WCj1ozatQo00JJgkq8EG+ho2dHjx5tjzzyiC1atMgdldK9NhJ8hgwZ4hbYekb3AF1yySXWunVrJ+AoTJ8+3XlsSJRp0KBBjuCjYyESAS644AIn+HTp0sV54uh4WaI8la+O/AwePNi0UA+LU1r0H3fccXbIIYc4QUJH03RELd22axErjwbVX0fg5FVzxBFHWIcOHbx5Tp061S666CJX/v777++Erc8++8zuuOMOJ0RE5ZmovHCfiVm9evWsZcuW7s++tvviovrI139a/OqIVqlSpZy4Ii+jK664YoshJXFMAlXAy9e3Op4jbhIH5UGksXHVVVe5PH1jUFwlFCm9hLjzzz/fiZmPPvroFvWJZRY8EFvP2IThdL66+OIS9W06/ecrz9cG3/uX6F2J+obkZlxHtd3Xt764RO3zvUeKi/cd9I1P37uS9iySIGEiwSfqGxnOdkcUfNT+uS2vcYJLieMa2foZ/9jccy+3Kh+9bIWq7OyN83WJL0+lW9zzSSuyZ01bP/tfK6jjUv9/pEuijo5LbVy42ArX2s3K3djeCu/+3zHW2ce3sDKXtrAVAwZZoepVrfyt11nh6tVyqhGVZ1Q93ZGuux+1guXL2sZlK5zYVenZB61onX1ckmUvvW2rv/neyt3Q3orWq7NZNkufe01nZK1s+0ts5eAhtm7iX1buuv88YFINuRV8tPiXwFPmnRY2sNEtNm3FXLewva726XbE5zdGCj46tjVr1UK7tFZTu3Kv/2yUcFi0drn9tHCydf31ZXvskHZuoaugBfymTeZcxxWeP/xaa7brEe6/W//4uBM6eh18ua3btMGu+/k567Jvc1u7cX2k4COPiH0+vtKJPKfveoR9+M+PdvXo3vbnaX2cwCNPmS77Nbdzd2tog2eNtpt/fdl+PfkJW7B2WaTgc+fvr1uNUpWtda3jrOK7F9mkZs+5tgz59zcnUjww/h3rVPtMu2nMS3Z8lXq2U9Eytn+53Z1HTFQbNtomJ0L0rHuJXV/7TJu5cr41+KKz/XTSY1a5eHlbv3GDa8ezh19j7UY+ab+c1Mt2KlYmoeCz07sX2i37nWdPTRpke5auZn0P7+COmcUG9ekRX9xgc8561bnp1/qonX1//INWvWQl0/1Le398pf15ah8rVqiI3fdHf3v37+HOO6jhzv8buxJ8osbLXQdc6NqnO3skZNw19g27Z9zbNvm0Z53gU7T/2XZRjWPsif9r7zygpCi+PvpIIpJEAQMKCAZEMIABIwZEQVEwYAADKGZRzApGTKgomMCcFQyomFBRMQAmFMGIEVBJShBQguE7t/hq/k0z3TM7OzvMzP7qHA6w3V1ddau2Z/r2q9etTrIxsyfbeRPvdxFMFKQV48iNU/PaDd0+m/2/qMqkLQO2Pd6GT3vXbp/yoo3e62onVB7Y6Szbfp3N3BPsuHZGjR/tiZpLXyyYFjk/l/6z3LZ65XQbuv1pTooOm/qOdXt/oE1of0tC0iE5H/rxTTffiO6hSPiU9Eqo/UUg9wS6jx9o7dbfxkV8Ev2J2Odz55Gd49NuxB2X6Tbf+0yEz/xli62CVbBfl8y1Lg3aJCILZy2Z5z6nejRpZ70365RYvsW5kOMbj+xhUzvdZzWqVLPmL5/mPlPqrMEy98xKUQkflkYRReKX5PCUn+VUCCBu5Dt27Oj+UIiuQQ6xD6V79+7Ws2dP22mnnVzOl6glXdxEstSCZNKp6qReRAB1UTdixRfOP3z4cJevp0uXLkZeEV8ykV3cxBI9xA0/hdxBLE96+umn3f+j6mQpGdFQLHsKl7g6U53P1/Xdd9+5/B3c9PolT3F9j9sWN0ZR27755hsXLcZYkU+IG/ZevXo5GegLS2AQg+SmadSokftx3NgyZ8gtxY31+uuvb8cdd5ydffbZLqoqbg5SL/OGPhL2TTQV52MMgiUZM7Yna2fccXFtiduWamwzGb9UXOLmS7CPwd+/uHkdt6008zqu73Fjm864+zb760s6cyKZ8ImbnyW51q1yQcjwB6mET9Q1Mni68ip8lv84zRbcOMQtVaqyaWNb9vk3Vn/4UKtUdx2L2xY3VHHHLf1ksv1x+/1W996B9sdt968kfP4Y8rCtudsOVqVFM/vrhdddvp56j99htmy5zdjzUKtx7GFWs1c3Q9YsHj7S6j1wi2tGXJ1R7QxG+HDdW/LmWFt4/xNW76HBVuH/k38vee9DW/jgcFcFy7vW2GpF/pTl3/9k8y65zuoPv8vmXnyd1Ti6c9KopHSmc2mFT8UKFZwQqTviaJt+0AP2zM/j7OO537mIC25woyJ8zpxwl4sKIqS771ZHrNLUp6ePtSHfvezkzsNt+jixQImK8Plj+Z/W4PnjbU6XR13oeLAky5FCVAtfQkdMH2c3fD3CRW/4sv2rfVyeHaI7Dh87wL7oeEdiW6ORPe29dgOsWqWqkcKHOol86tVkP2v75sV2e+uT7a9/ljkp07Xhbi6EnyVI5MO56othjsO5W3S2emvWjuwDUUrbjDrTLSHzya2Jqjmq0R7uSSrlnu9fdZEoxzbey25tfbL7WVzfkRc1nulqFzY71BAuT00fa7dOecE+aD9wlfE4ZvzNLp/SOc1WJJXn5mSdqjXswi0PcyJs2LR37aE2fRLHvfTrR3btlysivGG947qbG8Inar4Q+cS5X2p7uTuGm4EaTx9u3x14t1veUGV4Z5t60H22YbV13feEak8dan8eTn0Vrd+kR+yADXdw+Wke+HG03fzNczZp/9sSS8hK2haetlOIqPLRa3dsv+KB16szPolsJ5E1UXPwywXTIufSgmV/rpJnyc/PN2d9tko0FZFyY/a+NiF8Js3/0eXu+WDfgY4zRcInnauf9hGB1Uug87tX2zGN97L/zOyrP6Zb81obu0hNH/US1bq44zLd5s+VifDxS7pmL5lv3cYPdJ+tCHoK19ABXz1jj09923o22df6Ne9qa1RaEfxx2HvXuc/EFrUbWZ9P73VRlaUpRSV8iJghUoWoCcojjzxiEydOdMLnsMMOc0vEyClDIX8EES1IEZZwkV/nzjvvdG+DCQofonqok4gPloL98MMPLsKH5WRxdQYHxedrYRkXiUvfffdde+CBB1y9JC4l0ojoF5/AN1Phs+uuu7qoEQpPzYnyod2UqDq52SI5tj93sN3cGEfVGbfN10GU1VFHHeWWlvmErXF9j9sWN0Zx28K/HCNHjnTL3sgD5QtsrrrqKnvhhRcSP4sbWyLGkFfcyFI4P2KJqKi4ORhuC1EvCMlgkuhkzOLaGcc6ri1x2+LGNtPxS4dLsr7H/f7Fzeu4bZnO61S/t8HxTTa2fntwW6r+cUzcnEgmfOLmZ0l+V0rzwRI8NpXwYd/wNTJ87vIqfMIcZh5wjEuUXGGNVZdtxW2LG0t/HPZgzrFnWp3+F7jlUAsG37uS8AnXQR6ddW+50iptUN9mtD3ENhw7MrHLzAOPtfpP3GkV1lijRHX6CsJLuvj5b73Osxo9j7Q1d16R686XJWM/svn9B1nd+wZa5QYr1vbP7nqy1bn6ApvX7warN3xoyrwqUXxKK3wqV6zo1uojfIj+GDbtnbSED0mb72Lp1KjeNnKPfrZdneRL5Yi4QQQQaUGJEj6T5/9kh469LhH1Eexv3JIZ6iZvzRO7rMilRDly3A22a90tbYuaG1nXcQPc8jRfSE5Je0kSHbWkiyU3PT8c7JaUzVm6wKYs/NU2qraui9Agxw7JnlkW9tIel1mrV892iY3f2PNqlzchqg8In33futSmH/xAoi3kb9m8ZoOEhCHSZp0RR9t7+wxILEmL6zv7I1WWdn02UefGz/ewyR1us7UDT1lh9NrMT23k7v0SEoV6jxx/g8undPjY6+2Uph1sn/W3WWWavfzrx44FCbKHT3vPoubLTutubi/++pE9tvN5iTrqPdvNSQyED0u6lnQdkdhGu3/r8tgqco8dyNsD2+ByNH6eblu88Hlr1iTb+62+NqH9IGu1zor5SU6KqHYSZRQ1fq/N+DRyLlWpUDkywofkq6NnfrbSE3/mHTdYfhkeOYxYMti8VkOX4JyC5GKZXzCHz+kfD7Fd6m5p3RrvGXU50M9FQARySIBonAbV1nXRrjzYePinN+31mRNdfru4Endcptv8+UojfKiD6N1+kx9d6SEKP5+7dKGdNmGIewEDS6MpRCyO+Hm8e5hA7qCTNt2/VPSLSvj4ZVrkwqGQz4ccPiyZ4aaDpTd77LHHKsCQEizNYUkVT0dYrtOkSROXMJqkuiwF4o1KLMNheReyh5u2uDrDJ0EGIKKI9Onbt6+1bNnStYdCFA6vLfa5hjIVPs2aNUtICAQWQskviYuqkxsp+kybwoUb46g647ZRD2/HIvKFaBqEki9xfY/bFjdGRCdFjV/dunVd/3wiRYQPS+x4i5gvCKm11157pSinuLElygOeJBWn8P/Jkyc7aRQ3B5PxJXeTf0V1FLO4dsaxjmtL3La4sc10/FJxieo7+W2ifv/oe9zvStySrkzmdarf2+D4wjA4tlHbUvUv1ZxIJnzi5mfc7xG/K2VR0hE+nDd4jQy3Q8LHbPlP021evwFW/9HbVxmmuG1xYxo8zosTlnFR/pm3wCpUrGBrHdLRLY8KXkfZjvBZ57pL3Ju8Zh10vK179w1Wef0VN/+zOh1ndR++1ZZ/OcXJmKg6o9qWTPjMPe8qq3bAPi6B9X9//52I9KGOeZffZGvuvqN7Uxflj6EP27IJk6zKFk2t9nkrog8yKWUlfK5u2d3We+4YW3z4ighcboa5SV946JOJHD58qSUa5tLJj7mlSeHIHI7jiSHLhRYcuiLSKS7Cp/6z3e2Xgx+0dUMJneOkB+e/7qun7aP2/1t23OrVs6xf8yOcTOn10W02PhD94xnH5fBhHm3y4om273rb2k3b9rQ93rzI3YwP3K6ni1Bp+8bFts4aNezZ3fsakU5vzZ7kxAlRSlF9QPi0fvVsm3fIE4mnox3evsJ6NWlvh2y8S2LoEW9EK3nZkSo/DBFLvB2tYfUVbzlrOLKHExxEG1F4KksehlfaXuHeuhIsJCvmrTLnfHqffdHhjsR3EESSj0Jif6KDOjXYwX5YNCtS+PCUlzeC+XEgwqf2M0e4N1CxxCxO+IR/bxE+T+16oW299iZuuVlJ24Lwoc693rrE6q5Ry+YuW2Rv7HW169+4376KbCfM4uZg1FyKG6M3Zn5ml3/+mL3XbsV3sSX/LDMifBhjhA9v6mJJG8sMt3/tHNdvlp7xdjLGJfjmNp6mn9BkX+uw4cpCOZPrho4RAREoPQESrV86+VH3+YYIIY8NS5rIvxZX4o7LdJs/X2mFDznOjnt/kE3qcNsq118SSnd6t7992fFOd7pFy/9yn5WN1qrvcrSxPLk0paiED0+veX07kT0LFixwUTNE4yB8eD07CX9JtEuuls8++8xq1qzpxE6whCN8WIZFBA5JnnlLD0uCSLyLSImrk1cmI114zTfJkHkjE+0g0gWJxI0aEUXkE+LmsE2bNi4ih5Kp8CFPEH1niRZ1de7cORHxE1UncoslZbxRiyTXEyZMcLlp6DftiqozbhsMWcYVjFryXzri+p6Kix+n8BjFjR9LyUaNGuXyJBHVhYSib4yHL23btnVLrVq0aJH4WdzYMg+QWAg13rBFndzUIhrj5iA377SF6KHx48e75XdvvPGGe1NbHLO4dsYdF9eWuG1xY5vp+MWdL64Pcb9/qX5X4oRPJvM6ru9xYxu3La5/6cyJZMInbn7G/a74bYhnrkcscwyXTLZFCZ+4a2T4vOVV+Pw56i33VqwKa1Wzuef3d2+lqn54J4cnbhvbl3/3ky0e9rzV7tt7pQiXVMd59sEIn//+/dd+P+1i92pzcub8+eoYWzjkYav/zD1WoVIlW3Dbffbv7N9s7cvPtSXvfmCLHnzSLb8Kl1RRQ37/VZI2f/yZzbv0Bqv3/7IL8eVyCDVtZH9P+cF+P+cKq4twarAivwp5e+Z0P8PWHXK9VW0d/9bFuC9QZSV8uGnm7R3XtDzGvZGDvDYk+p1/yLCVhA9tO2LsAGuw1rqJN3H1+eRe6735gS4PDqHgo2dNTCQIjkva3PODwS6PC08P16xUxSVJPrdZZ5fkN+otXT6Hzw3b9HCRD4/+9JZ7jSz5YcgHRB4i6mDZFDfbRHeQzyfVW7p2H32hy0uAKOFGe+L8H93yJMrJH93hcvb03ryTE14ksR6x2yVuW1Qf5iz9w7Z8+VTr37K7W25G1EePDwc5IRJ8hW1Jhc8FEx9w+YBYjvXCLx+uJL9IqsnyKMLsuRmhBOXKwK+fdUvSyAHEW6Io5Gw4ctyNLo8OYfrk7GFpFFLpyZgIH5Jr86Yxklkf0XB36//FMLckLJXw4fXBROEwz8gXRAQOSau/PeAul/w5k7Ywd1kex7LCUW2vtHZj+rkleOSaQiDFtTNq/LiJi5pLccKHHD6bvniSDWp1oh3coI3LbXTj1yNc5BPC5+hxN7pk1Wdu3ske+elN92YukmkzV1eIr4vcMi+WlO075lL7quOKJ+wqIiACq58AIr/N6+fZ5x1WPOTiRQcs19yi1kaJxnE927N+C9t3/f+9FTTuuEy3+ROWRvjweUoesybV1zdyoZ0/8X73IoQem7Rzb9tkyfFf/yy1e3fsnehfl3evsXnLF2XlLZpFJXyIBOCGhCfcG2ywgXt1Nnl6uFGjIEN4WxM3/g0bNnT5e8ijEixhmcBNI3mBeOsUIoUboU8//TQRORNVJ8swLrvsMndjX7FiRSeKTj55xbpxzs+bsHgtO09FDjjgAHcObvwpmQgfcgC1a9fOJaYmLxDJiYlK4typ6vR9ZLla8+bNnRzZYostXF6hqDrjthE9w5IpomZ8YUmPly5RfU/FxddVEuHDMjyiKBA/sGDJG0uofMQPb/EiATfJqsOvU42bL4ga+kFbOJ4cPpS4OcirtHnD2/fff2+1a9c2bmJ9vqk4ZtQb1c644+LaErctbmzjxihuW9z54vqQ6vcvkwifTOd1XP/ixjZuW1z/Us0J5kUy4cPPo+Zn3LXOb0OGkuMKkRkumWyLEj5x18jwecur8Fn8zMu2eNhz9u9ff1m1vXezWn1OSlyn4rbBD/Gy4Oa7rP6woVah6v/ytqQ6zrMPy5klH3xif9x6n/0zY7ZVbrSRrd33LJdXyF33liyx+VfebEs/+NQla177qvOtSuONV5k/JRE+8664ySpWr25WqaJbNlbrtOOtaquWrk7yBy1+8gX79/d5blvNU45xfIKFJWDrDh3ghFSmpSyFD2/i4svff/afnbnZge713+/ve6M9+/P77i1dPmx9zpIF1uKVM2zYLufbXuttbU9Oe9cumfSIzV220Laq1dCFupO4lxInfMhJg6x5+Ke3rFKFinbGZge4t2Xx2nMS7dYO3eh+uv9gtzSLt4ggYUg4vUmN9VYsNfv/t3RNXTzbTp8w1EisS52nb9bRvU0L4UM0x4bVVn6LGvl9eE02r8BGGN24bU8b8u3L9sS0dxLRFoO+ed7arbettVi7kQtzH/jNc+7NLJSoPny7aIbt//blbpkYuY1YBoDYCr+ZKpnwies7kTTHfXCLW0bQtMb6bkkVuYsoRNXQBxIxU3gzGEuzfPQQb4hq8mIv+6nTvVa/6v++Cw2a8rzdNuVFm7lknpN2/Vt0s0M33tUGfPm0i/A5t9khVm9EN5vR+WEb7pYAfu8Sc38270eXcPrHxbPszM0PdAKKt3ExFtWePNT+6vpMYpqTJNzna3p95qfuRmLq4jnGG7bu2XHFm9Qog755zm6b8tL/2tIydVsuan6obTfqbHt7n+tc8meW6O02+kL7oP1Nbr7EtZPxI9F4cA5eutURVqliJWMunTHhrsBc6mBnb9HZ5VliaV94fn6y/yB3PqJ1en14uxNzfZod7HIt8da6KhUrWad3+jspRhQTv2etX+3joq54RT3RSESQITwRTkij4E1jptcMHScCIpA9AshlRC4F4X1C0/YrVb7r6AvsyIa7O6kbLHHHZbqN+jMRPjxoYWkqnxVdNmrjBHy1ylVdBCK5ed6e/bm7XpGr7Y7Wp6y0ZJgoUvL8hPuXCeG8FT6ZdEbHiIAIiIAI5BcBItkQW0QzUi6++GKX6ypVYYnkO++843Yj1xlL6vxbFVMdq+0ikA0CpRE+2Ti/6kiPAE9tET68Fj1fCtE+KrknsN2os9xbw3wOn2QtCD/cy30rdUYREAERyC0BCZ/c8tbZREAEREAEREAECoCAhE8BDBIRsHkkfEojekpzbGGMVPZbGZY3243qbQ/sdHas8PGtkPjJ/nioRhEQgfwkIOGTn+OiVomACIiACIiACKxGAhI+qxF+gZ06HVmTzj4F1u28b246UiedffK+o2qgCIiACMQQkPDR9BABERABERABERCBEAEJH02JVARSSZy47amOTXVubV+VQJy8SSV2Um0XbxEQAREoVAISPoU6cmq3CIiACIiACIhAmRGQ8CkztEVRcZSwSfbzdH9WFGBWYyeSSZt0f0azJX1W4+Dp1CIgAmVGQMKnzNCqYhEQAREQAREQgUIlIOFTqCNX9u1OV/YE9wsfk06ETzr7lH1v8+MM6ciY8D7B/8dtC/YwnfPkBxG1QgREQATSIyDhkx4n7SUCIiACIiACIlCOCEj4lKPBLkFX05E9UaKntAKoBM0sF7umK3iixE+U3JH0KRfTR50UgXJDQMKn3Ay1OioCIiACIiACIpAuAQmfdEmVn/1SLc1KJnT8z9KRQJ6kInui51SqJVrJ5I7/WUnEj6RP+fm9Vk9FoNgJSPgU+wirfyIgAiIgAiIgAiUmIOFTYmRFfUC6sicseFL9H2ip6i5qsCXoXLqyJyx4Uv2fJqSquwTN1K4iIAIikFcEJHzyajjUGBEQAREQAREQgXwgIOGTD6OQP22IkzLJpE7wZ1H/DsseRfakP96pInmCkifq30HRI+GTPnvtKQIiUFgEJHwKa7zUWhEQAREQAREQgRwQkPDJAeQCOUUmsodjwqInXfHjsUgA/W+CxAmZOLkT3sb/04n48WfW0q4C+SVVM0VABCIJSPhocoiACIiACIiACIhAiICEj6ZElHiJW6blRU/c39QbFkL+Z0HqEj7RwieZtImSO17yhP+m9ij5I+Gj338REIFiISDhUywjqX6IgAiIgAiIgAhkjYCET9ZQFnxFUa9Uj4riSSZ7/v3334TkiYv8kfBJPl2i3sgVlDhe4PifVaxY0QmduD/BY4ICSMKn4H9t1QEREIH/JyDho6kgAiIgAiIgAiIgAiECEj6aEhCIkz1+ezqCJyx8gscEzxN1vvI8GnGyJyx5gnInLHziBFBQ9kSdrzyPgfouAiJQuAQkfAp37NRyERABERABERCBMiIg4VNGYAaRfkoAACAASURBVAus2lTRPalkT82aNQusx8XX3IULFyaifFJF/QTFjyehPD7FNyfUIxEoTwQkfMrTaKuvIiACIiACIiACaRGQ8EkLU9HvFBQ+UW/j4ufBCB7/b/6uXbu2tWrVqug55WsHP/nkE1uwYIF50RMUPmH5E5Q9yd4Clq99VLtEQAREII6AhI/mhwiIgAiIgAiIgAiECEj4aEpAIEr4xEX2IHr8nzp16kj4rMaphPCZN2+eEz7+DzIn3eVdQQm0GruhU4uACIhAxgQkfDJGpwNFQAREQAREQASKlYCET7GObPr9SracK1nC5WBEj4/28cJnnXXWkfBJH3nW90T4zJ07N1L4REX5KI9P1odCFYqACKwmAhI+qwm8TisCIiACIiACIpC/BCR88ndsctWyuOge2hBcyuUFT1D4/PPPP1a3bl0Jn1wNWJLzIHx+++03q1Sp0ioRPuFlXhzukz77f/sqlcdnNQ6iTi0CIlAqAhI+pcKng0VABERABERABIqRgIRPMY5qyfqU7nKusOxB9Pif1atXT8KnZNizujfCZ86cOQnZ48WPX9YVtbRLwierw6DKREAEViMBCZ/VCF+nFgEREAEREAERyE8CEj75OS65bFU6wie4nMtLnqDwqV+/voRPLgctdC6Ez+zZs1cRPqny+Uj4rMZB06lFQASySkDCJ6s4VZkIiIAIiIAIiEAxEJDwKYZRLF0fwsInnL8nmezhZ1748Pf6668v4VO6YSjV0QifmTNnJpZ0BZd2RUkfL3v0pq5SodfBIiACeUJAwidPBkLNEAEREAEREAERyB8CEj75MxarqyVxwidZouag6PHiZ4MNNkgpfK644grbb7/9rGvXrjZ9+vSVutu2bVs755xz7OCDD15dGFY675tvvmlXXnmlvf322yv9fJtttrF77rnHdtxxR3v++edt4403jmzvQw89ZN26dXN/vv3228R+rVu3tjvuuMOOPvpo++GHHxI/P/LII61du3a2+eabu3w8n3/+udtv1qxZKZkgfGbMmLGK8Akv7Qq+uUvCJyVW7SACIlBABCR8Cmiw1FQREAEREAEREIHcEJDwyQ3nfD5LMuETfh178BXs4egeBNCGG26YtvD57LPP7JRTTil44bP22mu7JVSUjh07GsLm2GOPTfRr4cKFdv311xtvMOvRo4f7eZUqVWz48OH2yiuvOHFEoY7Bgwdbw4YN7c4777QpU6Y4kUR9W221lZ155pk2adKk2CmE8Pn111+d8PGSJyrKxydsDv7tK1fS5nz+TVXbREAE4ghI+Gh+iIAIiIAIiIAIiECIgISPpkRwCRc0kske/1auZNE9/KxBgwZpCZ9ly5bZrrvuakOGDLEXX3wxAb8QI3yCM6dz585O6oQjlEhm/cwzz9jNN99szz33nJ100kkuiofonr///ttVcdhhh9kJJ5xghx9+uC1atChRLfLl2muvtSZNmthRRx3lEmRHFYTPL7/8klT4JIvyCcseL3okfHQ9EAERKFQCEj6FOnJqtwiIgAiIgAiIQJkRkPApM7QFU3E6widZhE9Q/qQrfObPn28fffSR9e/f3w455BDj/5Sg8KlcubKdeuqpttdee7ncQHPnzrVhw4bZo48+mmB633332fvvv29t2rRxS6CQHTfddJPVqlXLiZdNNtnEvv/+e7vmmmtcxAwF8YFw6dChg9WsWdMdP2DAgEQbggOWzpKudISPFzqnn366nX322U509erVy7744ovE4S+88II98sgj9uSTT64yZ9Zbbz1je+/evV170xE+RAwFI318Dp9gLh8Jn4L59VRDRUAE0iQg4ZMmKO0mAiIgAiIgAiJQfghI+JSfsY7qaUmFT1D08G/+bLTRRmlF+CB4Bg0aZNddd50tX77cLrvsslWEDz845phjXH4blimRL+fCCy90EuiDDz5w+yN8WB51yy23uH1YSkVuoLFjx9rdd99t8+bNs3PPPdc23XRTI/qGwv+bNWvmcvMQaUTOoOrVq7slU+GSTeFD3ffff79bnoW4os2+rLnmmq7N3bt3t6+++irpEI0YMcKeeuope+KJJ2KFz88//5wQPSVZ1kWlivDRdUAERKDQCUj4FPoIqv0iIAIiIAIiIAJZJyDhk3WkBVdhnPCJeh17WPqUVPjUqVPHEBmInA8//HClCJ9kAO+99177+OOPbejQoQnhM3r06IQEob7XX3/d5QZiP0rLli2NxMkkiiafzjvvvOOk0YQJE9x2lluRS2e33XazJUuWrHTabAsfBFafPn2cXELw+EIkEku+iDqKSs5M4uZvvvnGbr311rSFT1SUTzBps4/ykfApuF9ZNVgERCAJAQkfTQsREAEREAEREAERCBGQ8NGUKInwSRbdw89IMtyqVatYmLyly0f4sONBBx2UyF2z8847r/SWrtq1azsJQp0kR2bZFjlwiA6iEOETFD78DOFD9M57773n9qlWrZqTK126dLGqVau66JrZs2e7HEVectSvX9/at2/v3ooVLAifq666ysaMGbPSz4Nv6QpuiMrhwz5169Z1UmfixIluqRmRSF4w1ahRw4kolqGRzDpZYakXbUeQRRVy+PDmM7+UKyp5s4SPft9FQASKlYCET7GOrPolAiIgAiIgAiKQMQEJn4zRFc2Bq0v4AJCIncmTJ7tXkPvXsiNneJMV4oZXn7Nk69JLL7WZM2fGCp/XXnvNSRovfFguNW7cOCd8WML10ksvOcnE0qdUBbn04IMPOskULCScvvzyy50kSlf4DBw40JYuXeqWr7Esi1w8/MwX2o3QYdlXuCC7Ro0a5XIPxb2pS8In1YhquwiIQLETkPAp9hFW/0RABERABERABEpMQMKnxMiK7oDVKXyIDHrsscfs4Ycftk6dOrm3XBFFgwhCrvg3U5HzhyVPcRE+ccJn2rRp9tZbbxlLw4LJn6MGk2TO5AhCQgXLWWedZY0bN3bLs9IRPvvss48TREin33//3bbeemvXhhNPPDEhcIjuIQcRb+tin2C55JJL3Fu62D+uSPgU3a+lOiQCIlBCAhI+JQSm3UVABERABERABIqfgIRP8Y9xqh6uTuFD2xAevLlqzpw5TviQD4jInttvv91efvlla9GihSE+eFtVpsJn6tSpLjHyySef7ATMu+++aywbQ974nD9BTk2bNnXROE8//bRrCxE6e+yxh2vn8ccf794Alkr48CYwlnKRRJp6fCFvEYmoedU6kUeIpXvuuce9kWzw4MEu2on8Qgig1q1bu7xDJLCW8Ek1k7VdBESgPBOQ8CnPo6++i4AIiIAIiIAIJCUg4aOJURLhQ8SNfzNX8N8lTdocpE6+GaJ8yLmD8KEceeSR1rNnT2NZFtEr5N75888/SyV8qBeJcvjhh7ucQ7zJa+TIkXbXXXclnQRbbrmlnXHGGcbf9JlXqd92222ryB4OTpbDhyVcvCXsuOOOS+QNYt+11lrLiSBkFvVReBU94gupRJ4fXjNPTh8SNi9YsCDlJIVR8C1dStqcEpl2EAERKDICEj5FNqDqjgiIgAiIgAiIQOkJSPiUnmGh15Cr17IXOqd8bn9Y+Oi17Pk8WmqbCIhAWRCQ8CkLqqpTBERABERABESgoAlI+BT08GWl8SUVPsmifBo0aJDyLV1ZaawqSUoA4UNUUFD0+H8T7RP841/HrteyazKJgAgUEwEJn2IaTfVFBERABERABEQgKwQkfLKCsaArSUf4sI8XPeG/We4k4bN6p0BQ+ISje/z/k72SnZ9Rwn+v3t7o7CIgAiJQcgISPiVnpiNEQAREQAREQASKnICET5EPcBrd88KHXfl3sj9InuAfJE8w0mfDDTdUhE8arMtqF4QPr69H7pRkOVcwyicofsqqnapXBERABMqKgIRPWZFVvSIgAiIgAiIgAgVLoLwJH970xOu/87HMnTvXdtllF5ccmJv2XJTNNtvMvRVqjTXWcKfzssf/G6njo3vionw22GADCZ9cDFjEORA+M2bMWEX2JIvuYXlXMKLH/1vCZzUOoE4tAiJQagISPqVGqApEQAREQAREQASKjUA+Ch9egf3www/bkCFD7MEHH7Stt946gX3s2LE2YMAAd3O71VZbubcc8fprCm8z8q/crlWrlns7Eq/Q9oW3PO2+++7uldy8KSmdcs0119ijjz6aEDB169a1MWPGuHwp++2330pVUP+wYcPcK7ejyqeffmqHHnpoIhKDt1udc8451rFjR0P48JYmBEyykqp/6fQnvA/CZ8qUKYkfB4XPb7/95t5SxSvI6ffVV19tzZs3T0T6BKN8eKV4q1atMmmCjskCAYTPzJkzU0b3eNkj4ZMF6KpCBAIEbvxqhN327QtWwSrYtVsfa90a75nYGrctDmLUcX/9vdR6f3K3vT5rov397z9247Y97KhGbV1VC5f/aWuPOMqqVVoh8SmDt+tlJzRtH7uN/X5YNNN6fjjYPp8/1bat08Tu3/Esa1i9Xuw4t3jldPt96UKrXKGSsUJ07/W2sTtan2LVK69p//73r1342YP2zPRx9s9//9ru9baywa162VqVqlqDkcfbjwfea7XXqO7q/+fff6zRCyfYVx3vtJpV0vt8DjdMwke/kiIgAiIgAiIgAiIQIpCPwue+++6z5cuXu1dXDxw4cCXh8/HHHzv50LhxY7vyyivdDW6/fv1cFErXrl2dODn22GPtjz/+sCuuuMLOPvts95prCq/BRmDwqusOHTqkNRcuvPBCO+CAA5yIiSsfffSR9e/f35577jmXIDeqIHzYb8SIEa6P77zzjp111llOInFcWPggVehjOv1Lq0OhnZIJH3bhfPBbb7317KSTTrKnnnrKXnrpJbvnnntWET5EAdWvX1/CJ5MByNIx/tX1PjlzOGFzOvl7aEow2idLTVM1IlD0BF6d8Yld/cVwe6nt5bb8379t19EX2LO79bUta29scdviwMQdt+yf5fb8Lx9Yl412thlL5lrLV8607w+829atWsum/znHuo4dYOP3vWmV6uO2cc1v/drZdu4WXZysGj1zou1ct5kTN3EF4fPcbn1t05obGiLqmPdvtjZ1t7Dzmh1iT0x924Z+N8pe3fNKW7PSGnbblBes4Vr17OCN2rg2HtRgR+veeC9X/TuzP7ebvn7WRu5xacbzRcInY3Q6UAREQAREQAREoFgJlEb4EIHz4Ycf2rx586xFixa2bNkyQ3wgaYj2YGnSpZde6qJxyPFChMiWW25ps2fPts6dO9u4ceMSWLfZZhv3/+rVVzztoxxyyCFOOgQjfILj8PTTT9sHH3xgN954oyGCbrrpJhdhE1XOPPNMq1atmi1ZssRuvfVWt9v8+fPtwAMPtIceesiaNm3q6rvuuuuckOHm+dRTT7VevXrFygykzEEHHWRXXXWVtW7d2tX72muvObEDkzZt2rjoI6Jj9t1334Tw8e1kiRn9REwFhc/jjz/uJNW9997ron6i+peK5yuvvGKwov7nn3/e6tWrZ7fffrs1adLEED6PPfaYXXbZZTZnzhw3RkQu8eUfXkg0lpn99NNPLhJp+PDhbvyOPPJIGzVqVEL+UKcifFbfVQLhw/i1b9/ejTVzj7nL7yWScYcddrBJkybZAw884OZ+sjd00XoJn9U3hjpz4RK44vPHrVblteycZp1dJ5A/RLdc1uIoi9sW1+OSHNf4hRNszN7XWuPq69mk+T/a+RMfsFf3vGqV6uO2vT17st3yzfP23O79SjQQQeFDdNFR42+ybo3auoijod+9YhPn/WBDdzh9lTqfmvaePTZ1TOJ85356n229dmM7bpN9SnT+4M4SPhmj04EiIAIiIAIiIALFSqC0wuerr75ygqdly5Z25513uqVOJI9FFuyzzz5OIPD36NGjnVTg74ULF1qXLl0yFj7IEwTIDTfc4KJ7uJnlRhYRQUROssIysb322suQH+3atbP33nvPqlat6nZ98cUX3RKyRx55xIkolox5yXT00UcbS7VY3oQcoQ8+Ysif5/7773dyCw4UJA/nQBrVqVPHRciwlIzlZcEIH6QK/z/ttNPs9ddfdxE/Xvg8+eST7sadJW0sP4vr36xZs2J50ufevXs7VkQ/0XcEG8ve6NNhhx1ml1xyiZN1RE299dZbTvgg826++WbXL6KiaBsMOR/CB6nlEzcTdaWyegkgfS644AIXGYeM5c1p/J4h7BirL7/80gnN888/X8Jn9Q6Vzl5kBJ79ebyTJc/v3s+qV6pqu79xkW1es4E9svM5FrctDkM6x32xYKo9PX2cfTT3W3txj8tcdYib7uNvtppVqjnpdEKT9nb+loek3MbysSkLf7FvF/1q0xbPsZOa7m8XNT8s5UghfOYvW+yWsv26ZK51adDGnt7tYnfcrCXzbOfXz7ceTdpZ7806JZZvse3Pv5faxiN72NRO91mNKtWs+cun2dh2N1idNWqkPGfUDhI+GaPTgSIgAiIgAiIgAsVKoLTChyiYk08+2UW2kF+HqI/Jkyc7CXP33Xc76eHLwQcf7KIOtt12Wxe9k2mEDwKDqBSkBFEvJAwmYgX5gNj466+/rG3btvb333+7qJTu3bu7G16Ou+WWW+yUU05xeXSItvHlhBNOcNE+5AUiUscXZAeSY7vttnMChuVmRN34ZVtEVSCJnn32WbesiYK4QXIhkPgZy8hoA/UgeIiaQeIghtZZZx0XUYRM8Tl8iPZBIhFN4/MTxfUPuRTHk37TD2RbuCB8EEC+7fSfNlauXNlFjJx33nlWpUoVmzZtmpM+jRo1chFbRx11lJNU/s1dCC2WfK255po2dOhQmzBhgpsXiMDgW7/gR/0nnnii2xYsU6dOddEn06dPd9FHCAo4MHZEniCZ6OcTTzzh8jCRe4ioIiQVYs2X33//3S09a9iwofsRy+ZGjhzp/o0QJBqJOqLqJPfTEUcc4eauT2bt60Y2duvWzUnCVIVx9UItuC9y8YcffnBRXb7QFn4GF8QpkXDBPDtE0fXs2dNIOu6XZzEHYcPvkc81RfQaAvGNN94wBBAyD9FIpB3zjd8Jxo4SfkOX/1mqfmm7CIjAqgSu+WK43f/jaCc+Glevb01rbGB3/X9kS9y2OJapjjv0vesM6dNni4Pt5E1XLFMm/w6RM/22OsIW/f2XHfD2VU74HNFw99htF0580J6a/p6N3P1Sa7DWurbfmMvsyhZHW4cNt48d7mCEz+wl863b+IFO8Bz9/zmFfl/6hw346hl7fOrb1rPJvtaveVdbo1IVV+dh711nXRvuZi1qN7I+n96bNCqpJHNNwqcktLSvCIiACIiACIhAuSBQWuGDGGDJE8KH6AFuhBE+G2+8sbuxHzx4cIIjMob9WDJUGuHjK0RgEAFDUmVuor/99lu3lMUXohyI4uFGmRvpN998091IE5WEpCF6xZfx48e7G3nEAMtgogoiB2lBDiEKQok6YRAsRMwggWrXru0ED/tRghE+iAhEDtE8FIQPoozoIuQHwsGfJ65/5C1KJXyoCwkSLggJuPlXsyPjEEAsrUN6IHyQKsgdeMHHR/jAPyh8EGEIH+p6++23Xd4fIr4QP8guL36oHzZEgjEubPMl+Ip4ZAXL2hBt5KShPUhD+sJYfvPNN24+URfRXr4ghvi/Fz7+54gRnxeKeqPqhCeRXMyrcEH4UD8SLa5wHpYZXnvttSstk5o4caKLIEOGepnnxQ4///rrr51UQ2KFhQ/iht8vn3iZv5GLjD2s+f3iOJYmwp0+sFwQWcSSPBJr77rrrm6JYbBu3w8t5yoXl3x1MgcEhnz7sv3611zrv3X3Vc4Wty2uaVHHkbSZnEE3bdfTJUUOF/LovPTrx/bozufGbus76RGrXrmqXdK8q9vvvu9fs8kLptqgVit/toUrCQoftpH7p9/kR+39UA6huUsX2mkThlitKmvZ3Tuc4aoZNvUdG/HzeNuuThNbd42adtKm+5dqdCR8SoVPB4uACIiACIiACBQjgbISPogLhAs5Y3zh5vP00093y5t4kxXLoCgsmUKyIIpKksOHZVYImM8++8zlJyFBM5EN/sbVCx+ia4j4YakSQoKEzhxHRBIRHEgGlm4RJcINPTf6vg62BW+EOY5Il2bNmrklUIgdRAdRMMFy+OGHu3xC4derB4UP+yMwWIbDjTjCh7+JzEBkUS+yA2kV1z9ESBxP5ATJpO+6665VpnAy4QOXRYsWOSnGv72oQczQLjjtttturv9sW7x4sZMIiBz4snwOHsggonCIqELS1KhRw23zzL/77js3H+gj24IF4YW8IMLHvyWNyBTyLdEXxhnhs/322yckjj8e9kR+IU6CBb6MM1FocXUiCMnJ5IVdsA6iwBB4RNZEFbYx72kDOaN8QbwgBom2YUldsBDVRPJulu6xD+ISkUhh/tF2Io+YE+EEzEStcR6EFlFhPnKHfD4s5yKq6ZhjjrFNN93ULr74YpeIW8KnGK/m6lO+EDhy3A12VMM9XHLicInbFtf+uONO+3iIbVZzA+uzxYocQsHPLYTPU9PH2ojdLond9sAPo+3dOV/Y/Tud5fa7/4fXbcLc7+yO7U+NxRoWPp/O+96Oe3+QTepwm0tgXaVi5cTx3y+cYZ3e7W9fdrzT/WzR8r9skxdPtEZr1beX215u9ddcu1RDKOFTKnw6WAREQAREQAREoBgJlJXwOffcc51Uueiii5zU4CadCAZu1FnOtP/++xv7sKxq0KBBTqIQ/ZBK+HAjTKQD+UkQGAgJH4mBEGDpFfmDSKTMjS4RIETJEHHBOXyhDm6gkRiIGaQIMoMbYyI8EAMIC6J+aCdigegWlkYRXcIXagQWN9DBN3hxDJEXCCaW5rBEKljCwufVV191N/m0IfhadupHPBClgvigRPWP/eJ4ZiJ8EFXIJ3Iw7b333k7mIKZ4mxjChr4TUQI/uBKxwjIr+g9/8gXRdpaC9ejRwwkfJEOfPn0cM7b9/PPPLsIH4cO4I0p22mknNz+YN8gKlt6xNI72MCaMDePAPCIaxgufYLQWES9IEIQPEWYIIKJbWAaIpGLZWFydiBeWSCFomEP0lyVg8GdcaBPnT1aYG4wl7fESy0ctMY+YDywf9MW/hY3lXUhP2oqQYnkc0V8UL3wQl8wXL3S8+EGOIeeIImMu+J+zP1xJ+s1YwSsoRMMRPYrwKcYrvPqUCwIkK37m53F2/Cbt7K1Zk6zHh4NtSsehbulS3DbfNqJr9qzfwvZdf7tEc+OO+2Tu9/byjI+tb/OuLpJo1zcusEfanOMifMj9w2vQ79nhDFv673Lbb8zldsqmHdwyq7htc5YssK1eOd3lAmpea2NrP+Yy67tVVztgwx3SFj6L/15ix38wyJpUX98GbHu8nT/xfvdWrh6btLPKFSu5ZNJ//bPU7t2xd6LOLu9eY/OWL7Ixe19X6qGS8Ck1QlUgAiIgAiIgAiJQbATKSvgQxUAOlr59+7obe5Z4cRPtoxa48UYgcDNMImFkC1IgmPw32Vu6uBEmcoJIC6JTEDDUTeFnLGNBPLCUCpmEfEBaEJFC1IYv3JT7JLe8dp3/k4wZQcFNN9EdvFkM0cGyHJbIkFeGvCxE93AOhFEwdwx1IzBI0kzkCv1H4hB9gbxgmRE/869lZ3/6zyviueHffPPNV3pLF8ciVpAn7BPVP5Ivx/HMRPggXd5//30nmxAKyBPGlEgi2sxyJaKbEDyIGKQbf+CBHCHShPYiPcgpQ54hjmPpEX/8NnI6+W2MP+NADiYkExFbSAjeoMbSQeQbywGZAywnY2ke7aE+pKEvyA9ED21mP3IKEbnF+F1++eVuXOPqREoRiYTI8vmamBPIFBKOMxbhJNUIL3JJEb1GRJbP/QMfltKR9wjpwjIun/8JHrSH41g6BzOO4xjmFnNo5513dgzIS0T/fT6jsPTx4pK++SVfzHsirpBWLGGDm89d5EVS8Hom4VNsV3f1J1cEfvnzdzvhw1vt64U/W50qNeyeHc+w7dfZzJ0+bptvH0uyjmy4u525eadEk+OOIy8OUT1vzp5klSpUtHO26GwXbHmoO5ZkyOTDGfHzOLftxCbtrX/L7u46EreNY1/45UPr/cndTlKdvtkBdmXLbikREuEza8l8q1KhslWtVMW6bNTGrml5jFWrXNW+Xfira8vbsz+3KhUrWYcNWtsdrU+xtQOJmcntQ3+CfU950ogdJHwyJafjREAEREAEREAEipZAaYRP0UIpZceIJmJ5mk/KyxIy5BURP0idfC3B/DleRvm//bZgAuZk/0ZWBH8ePD5YR5BB+Lz5yicX7YqKugkKHtrB/8mlRAJq3lhHtBtiKbhfsmOSLeXy9eWifzqHCIiACJQVAQmfsiKrekVABERABERABAqWgIRP9odu5syZLiqHqCAiUxAaRKz4xM3ZP2N2aowTPskEUCr5k0wWBevxrZbw+d/4xQkfL2b8PkREEb1EhBdLyEjWnEz4BIWOhE92fldUiwiIQP4RkPDJvzFRi0RABERABERABFYzAQmf1TwAeXT6ZOIlHJUTFekTlDvhfcKyKNxlCZ9o4RMla4LixkueoBAK/yxZPcFx0HKuPPpFVFNEQAQyIiDhkxE2HSQCIiACIiACIlDMBCR8inl0S963TKRPUPYk+3dQ+IT/XfIWlq8jgiImHJ2TTPQEpU+ULAoTlOwpX3NKvRWBYiUg4VOsI6t+iYAIiIAIiIAIZExAwidjdEV5YJzwCcqauMifZPtFiR5F96w6jZIJmFTiJ07uJDs2eFYJn6L8VVanRKDcEZDwKXdDrg6LgAiIgAiIgAikIiDhk4pQ+duervSJE0BhwZOqzvJHOb7H6UqfONET3Bb+tz+7ZI9mngiIQLEQkPAplpFUP0RABERABERABLJGQMInayiLqqKoyJvgz0v677AEKipgZdiZqETOcUInVVRPlAAqw26oahEQAREoUwISPmWKV5WLgAiIgAiI5KpzAQAAIABJREFUgAgUIgEJn0Ictdy0OR3pE5Y4UW/6imuxlnX9j046ETfpCqA4qZPOeXIzy3QWERABEcgOAQmf7HBULSIgAiIgAiIgAkVEQMKniAazDLqSrvQJix/fFMmc7A9KquVe/oxRUkeyJ/tjohpFQARWPwEJn9U/BmqBCIiACIiACIhAnhGQ8MmzAcnD5qSSNnHbUx2bh93N+ybFCZtUMifV9rzvvBooAiIgAhEEJHw0NURABERABERABEQgREDCR1MiXQLpyJt09kn3fNovPQLpSJx09knvbNpLBERABPKTgIRPfo6LWiUCIiACIiACIrAaCUj4rEb4BXrq0kid0hxboLhK3ezSyJrSHFvqhqsCERABEcghAQmfHMLWqURABERABERABAqDgIRPYYxTPrZS8iYfR2VFmyR68nds1DIREIGyISDhUzZcVasIiIAIiIAIiEABE5DwKeDBy6OmS/6s/sGQ5Fn9Y6AWiIAIrD4CEj6rj73OLAIiIAIiIAIikKcEJHzydGDULBEQAREQAREQgbQJSPikjUo7ioAIiIAIiIAIlBcCEj7lZaTVTxEQAREQAREoXgISPsU7tuqZCIiACIiACIhAhgQkfDIEp8NEQAREQAREQATyhoCET94MhRoiAiIgAiIgAiKQLwQkfPJlJNQOERABERABERCBTAlI+GRKTseJgAiIgAiIgAgULQEJn6IdWnVMBERABERABMoNAQmfcjPU6qgIiIAIiIAIiEC6BCR80iWl/URABERABERABPKVgIRPvo6M2iUCIiACIiACIrDaCEj4rDb0OrEIiIAIiIAIiECWCEj4ZAmkqhEBERABERABESgeAhI+xTOW6okIiIAIiIAIlFcCEj7ldeTVbxEQAREQAREQgUgCEj6aHCIgAiIgAiIgAoVOQMKn0EdQ7RcBERABERABEcg6AQmfrCNVhSIgAiIgAiIgAjkmIOGTY+A6nQiIgAiIgAiIQP4TkPDJ/zFSC0VABERABERABOIJSPhohoiACIiACIiACIhAiICEj6aECIiACIiACIhAoROQ8Cn0EVT7RUAEREAEREAEsk5AwifrSFWhCIiACIiACIhAjglI+OQYuE4nAiIgAiIgAiKQ/wQkfPJ/jNRCERABERABERCBeAISPpohIiACIiACIiACIhAiIOGjKSECIiACIiACIlDoBCR8Cn0E1X4REAEREAEREIGsE5DwyTpSVSgCIiACIiACIpBjAhI+OQau04mACIiACIiACOQ/AQmf/B8jtVAEREAEREAERCCegISPZogIiIAIiIAIiIAIhAhI+GhKiIAIiIAIiIAIFDoBCZ9CH0G1XwREQAREQAREIOsEJHyyjlQVioAIiIAIiIAI5JiAhE+Oget0IiACIiACIiAC+U9Awif/x0gtFAEREAEREAERiCcg4aMZIgIiIAIiIAIiIAIhAhI+mhIiIAIiIAIiIAKFTkDCp9BHUO0XAREQAREQARHIOgEJn6wjVYUiIAIiIAIiIAI5JiDhk2PgOp0IiIAIiIAIiED+E5Dwyf8xUgtFQAREQAREQATiCUj4aIaIgAiIgAiIgAiIQIhAeRM+L7zwgnXq1GmVefDLL79Y165d7dlnn7X69eunnCfff/+9HXvssTZ27NiU+0btsHjxYttvv/3s/vvvt8033zzjenSgCIiACIiACJR3AhI+5X0GqP8iIAIiIAIiIAKrEChr4XPvvfdapUqVrEePHmnRv/XWW+2vv/6yCy+8MLE/QmTu3Ll23nnnxdbx+++/22mnnWbfffed1atXz2644QbbeuutE8f8+eeftvvuu9u7775ra6211kp1LV261IYNG2bdunWzypUrp2wrwufEE0+0t956K+W+UTv8999/9uijj9ohhxxi1atXt/fff99xqlOnjrFtp512siuvvNJq165t33zzjXXo0MGxrFChgpNS9PXoo4+2V155xbFhP7ats846dvbZZ9s+++yTcds4cOrUqXbJJZfYlClTHMebb77ZnYMCr4cfftiGDBliDz74YILzjz/+aMccc4yNHj3a1lxzTYP5AQccYM8884y9+OKL9u2331r//v0T7brmmmtsgw02cH/i+kC9/fr1s6+//to22WQTu/baa50ki5sviL0oZnHthF9UefPNN107+Jv+UU4++WQ74ogjbO+99y4V72QHx80J9mdsrrrqKjc/6tata9ddd51tu+227vdll112sS+++MLNGRUREIHiIsA1deDAga5TF1xwgXXu3DmtDsYd9/nnn9uNN95oVapUMT670yn777+/zZs3z31u8vmz8847u88tPmP//fdfGzBggI0aNcr++ecf22GHHeyyyy6zatWquf3efvttq1WrljsN2/l8fu2116xGjRrpnHqVfSR8MsKmg0RABERABERABIqZQFkLn4svvthatWplhx9+eFoYkTW9evVaSaQgYainRYsWsXVcfvnltv7669upp55qTz75pBHN88gjjySOefnll+2MM86wO+64w4mA0pRsCJ/w+bm5f+CBB+yuu+6yJUuWuC/eP/zwg/sZN/RnnXVW4ovzp59+aieddJI9/vjjhrzgS/Itt9ziqpw4caIdd9xxxj4VK1bMuJuHHnqoGwu+0NOGzz77zAYNGuTqu++++2z58uVO5HDTERRrCJEGDRq4cbj99tud9OGGBEGEqOFL/nrrrWe//fabtW3b1s4991wnfKL68Pfff7s2sB/yaOTIkY7Nq6++ar/++mvkfOGmJYpZs2bNnLhJ1s44YIgeRB9yCuFGQfgQ7bXrrrtmzDrqwLg5wRyBBzdQcPzggw9cu9555x13A7bHHnsYN3AqIiACxUUAGX/YYYfZiBEjXMeQPUSnNmzYMLajccfNnDnTfYbwwAExzzU+ncK1eejQoda4cWP3uXXOOefYdttt567LXKv5jHrooYesatWq7u8NN9zQ9t13X/dZ3K5du4So+vDDD+2ee+5xfzItEj6ZktNxIiACIiACIiACRUugNMKH6A6+pHFziYxZtmyZffTRR04AbLPNNu5pHV8iKYgYvpRy4z9u3Di78847XXSLL3w55M+OO+7oljnxxbN58+a2YMEC69Kli4uooPA39c+fP99F8SB5+HJJ4QvkkUceabvttpv99NNP7mb/+eefT5zjzDPPdE8W+VJKZIgvPMnkiyjLuiZPnuyibXwhQuLSSy+1GTNmuC+qV199tW255ZbmhQ9ShGN5SnnFFVe4PlOIUiLC6KWXXnLROgcddJCTVjwFnTRpkp1yyiluvzlz5rjIly222MJF+HjhwzaeeHIjj7SCrZcXvm3UgbhaY401VpIl8EUCEGUTx5oImQMPPNC1v2nTpk4YECHCTQRtbt26tZNHFM5PxBH7cD5fiE6i30HhM3v2bDv44IPtiSeecBFI9I+oGYQP/SMSBqZE9yAniI4JC59gHxA7Tz/99Eo3AsgW5gnniZovQUkWZsZxUe1kX47t27evm7/bb7+9TZ8+3UUm8X8izhh/xpZ+BYVP3PwMCkskFjdASDQKAop6idahXddff721b98+dk4Q6cQ850bLF8YBpjxZl/Ap2su2OlbOCfDZizDnOsrnxGabbbaShI7Ck85xCHmu1ZkIn0WLFrnPKa6vfOY99thj9tVXX7nPzXDhAQyfzzzgoPB5wHWQz9RMi4RPpuR0nAiIgAiIgAiIQNESKK3w4cscAqZly5ZO4iBNiLrwS7KI8uCLXzCixt+MPvXUU+5Gn0gRJACCgptgokjYhyeFzz33nH355ZduaRGFG39CwYnM4GYZycOyKkQK8ummm26ywYMH22233WZ77bWXe5JIYQkS/2f5E08V33vvPXeuYOHL5oQJExLCh8gUlkXxZZW/aZ8XKQggnmwSZUNUBfWxjGrMmDFWs2ZNO//8892SH76Qc3PPjTxigJv0YKFNPB1NJnzYDwZIH9oWFD5EQnXv3t19MUc+cD6ezP7xxx9OzgwfPtxJmFSskTHUgVRCyBF+7+VNx44dDUnG2BFFBAP6ifjyJZnwYRuyi+gfvrwj+Sich6VGiBLG56KLLnLjTvg+8yCqD4wpYqVnz56J8yKOkC9ItKj5EhY+QWY+Z1KydjJXGFvGnagdIsX69OnjnlZzTv7fqFEjJyMRjkHhEzc/feMZEyKCOAdjSGH8+T1hfiHViIRCHoUlYHBOcFMVLPzuIUf5PYCzhE/RXrbVsXJOgOsR1yaifLhmI355mMGy27iSznGZCB8+d1jONWvWLCeq+S5AQUrxGUA7iTr1y7fYxkMR+sASax6ycBzfCfyy4UyGWMInE2o6RgREQAREQAREoKgJlFb4sGSIG16iQUhgzFp9omQQHRRu0snpgtgIFr6k8sWOKBUkCeKBG3sKN+qIBpb4IHSog2VhyQo3zNwkcwNPtAyChAiUadOm2d13350QLNSF7CFyiHPyJdTLIF9vWPjQF+rwYfPsx002EosnqkSW0Fe+aFNYtta7d2+XQ4X8KR9//PEqUinch1TCh6gSJBG5D1i+46OPiG6CO+ekX345FJE5tBuhwtNTljXFsaY9J5xwgouY2mqrrZyY8gVBQvQOQgk2LBHjPMGk1lHCh1w7CCOWGRDtRUH4cGOAmGIceKLL0gFyPQQjfMJ9QLwgFLlp8AURSPQR7YuaL/w8ipmvJ1k7k0VF0QcilrzwoU3coPAEm6ioqCVdwfnpz4mQ5Lw8bfeF+cuND0vd6D9RZIhO5E0w6ov9/ZzwssjXwdxnDBlPCZ+ivmyrc+WcANd+5C7XCq7TfB5xrfXRMlF40jkuE+Hjl3QheJBKXKu9kCYCmHYhzPm8Ov300xNRokRqco3m+sc1lWjT0hQJn9LQ07EiIAIiIAIiIAJFSaC0wofIGpZiIXyITEDcBIUPN6UIknB+k2D0BV8AWfoT3AcZw40xUS1IBp4eUlgOxZdHltgQKcFNMU8FOT9v2SKahCU4HINAQn4gpci7QsQEN9JEJRHNEn4aGhY+JCNGctAOXxA6nItlY4gs5IAv9AMJQLQGX2T9MrS4iZNK+BAphVgioim8pMvXGxQ+/mewoD1EB6ViPX78eJesmi/kcXmSiKxCzgUjo6KED+0mAmvTTTd1eXwoXvgQFUXEFuPDtrDwCfeBZYI8GeY4X0iwzdInxoOSbL4kW9IVHotk7SQyCXkZnB8s1WPeeeGDsCIqiggcIri88Imbn5yb/ZmjRAkFn2Qz95BAvjAORJsx/8LCx8+JYJJo5irCiPwXzHcJn6K8XKtTIuAIIFVYJk1EDRG2PJQg+tLncYvClM5xpRE+nJdrp29TsB08VODhDBGdRDBSuA6yZBdRvfbaa9tRRx1VqhGW8CkVPh0sAiIgAiIgAiJQjATKWvgcf/zxLuLA57YJMuTJHje/RHrwpc9LHfbhZpubY/L4EMVB4QafJ4dERvAFkUIdbGeJDU8UkRe+cE4SRhI1gfhg6RfLrIgyYXkSX0yD+WiSRfhwrmAeIN78hEjhiSpLcIgyIYqGwhNXRAb1EJFDW4hmiStxwoentwgkL0pKInyQI8gYlg15TslYcw5kG+1kiRJ5lYLj4NtOlA/nR+gFSzLhw/IvBBJLtxgTpA7LxHw/iNryJU74+D4gMBA85Ljxhb4gPHz/ks2XVMInqp3MCyQfib8pLPEiwoebqqDwYSkiMo6/ybnDnIian8wH3iIHD27K+H+wpCt8gnOCqCgK85N5jhjyb5+T8CnGq7X6JAIrCHDd5JqHVGcJMZ+hCOTgtTUZq3SOK63wIe8dy5x5EMG10X8+0h6SRvOAiAcylMWLF7vPZh5okDOINw2Wpkj4lIaejhUBERABERABEShKAmUtfFgixBdRIjFef/11t7TLfwEkWTJLj1hiRRRQsBCFg8zhRrZNmzZuExFEfLFlOQ8SgBtyBAtLbRAKRKDw5NDn6OGtTkTgcANP1AZv5/IFEUVOgeBSs6gcPuSa4Uad87I86o033nBJnIkq4Yutfz07S3v4IotEQkhwg097iYihr+wXFkBRwoc8PEgHzsMX+zh5EY7wQTSRTwjh4r9AR7FGpHA8ESJELLEMCwHkRQJ5YFhGxhjRVvYJlmTCh3OTSBu+LDOAPSKpJMIn2AfmD+1COJFkmm3k7kES+mijZPMllfCJaieCxyeWZi4xDkTOhIUPHPyb34j2Idotan4SddajRw/HhX74QsJVXpuejvAJzwl/fm6UGD9u/ChIIb2lqygv1+qUCDgCCHiuvUSwUohY5XOwSZMmCUJEUPLZSTSqL+kcVxrhQ947crHxtjAiEflMJOcbIpzrI//npQkIcl/4bOFhA+0vbZHwKS1BHS8CIiACIiACIlB0BMpa+BBFQd4Awrl5AxdCxiduJGKHp3ssRUn2ZI9lSXwJ5IaYws0xr9JG/PAzJADLkEi8S8QEEUFE+/AUkYgf/s0XXuQLX3qJyPEF0fHJJ5+4Y/liTJQESW/5corw8K/cZskYb2v6+eefbeONN3Y39P4tXciqdddd1yWS5nx8iSUiicKXWuQQkoC2suSHvES+L74dtJslabxpifYT1eITWbPEDdmEcEklfMjfwg0/9W+00UZORPFWLV+SsSbfAlINFuQJIu8RORaQNHAgPw1RI3yJJ3Ez7MPRP2HhM2XKFPcEF7mH+GLZHdwZAxKLEl0VFeET1wfGFMnDePh8Dz7xsu9jeL7EMYtrJ5KLpVmcj4geckghdngVfDDCx58XBshF5lrU/EQiMQeQV8hKCmKGuYdcihM+UXOCOjiOqDUfqQZv5iO/Y8wtotuCBUnK/FARAREobAJct/1yY5Zqcf0LFq7lCHLEe7CkOi4T4cNnCUKH6xBRqXz+cF3i85/cPOQiYzuf9zwECiZv5rOX7wfhdmYyOhI+mVDTMSIgAiIgAiIgAkVNoDTCp6jBlFHnEB5ILKQIkUdIDiJW+DKskpoAT4qJ6opK4p26hsz2QIwhfLzQy6wWHSUCIiACIlBWBCR8yoqs6hUBERABERABEShYAhI+uR26hQsXuigQEmzylNO/+ju3rSjcs5EIm8gtIpaI7gpH+ZRVzyR8yoqs6hUBERCB7BCQ8MkOR9UiAiIgAiIgAiJQRAQkfIpoMNUVERABERABESinBCR8yunAq9siIAIiIAIiIALRBCR8NDtEQAREQAREQAQKnYCET6GPoNovAiIgAiIgAiKQdQISPllHqgpFQAREQAREQARyTEDCJ8fAdToREAEREAEREIH8JyDhk/9jpBaKgAiIgAiIgAjEE5Dw0QwRAREQAREQAREQgRABCR9NCREQAREQAREQgUInIOFT6COo9ouACIiACIiACGSdgIRP1pGqQhEQAREQAREQgRwTkPDJMXCdTgREQAREQAREIP8JSPjk/xiphSIgAiIgAiIgAvEEJHw0Q0RABERABERABEQgREDCR1NCBERABERABESg0AlI+BT6CKr9IiACIiACIiACWScg4ZN1pKpQBERABERABEQgxwQkfHIMXKcTAREQAREQARHIfwISPvk/RmqhCIiACIiACIhAPAEJH80QERABERABERABEQgRkPDRlBABERABERABESh0AhI+hT6Car8IiIAIiIAIiEDWCUj4ZB2pKhQBERABERABEcgxAQmfHAPX6URABERABERABPKfgIRP/o+RWigCIiACIiACIhBPQMJHM0QEREAEREAEREAEQgQkfDQlREAEREAEREAECp2AhE+hj6DaLwIiIAIiIAIikHUCEj5ZR6oKRUAEREAEREAEckxAwifHwHU6ERABERABERCB/Ccg4ZP/Y6QWioAIiIAIiIAIxBOQ8NEMEQEREAEREAEREIEQAQkfTQkREAEREAEREIFCJyDhU+gjqPaLgAiIgAiIgAhknYCET9aRqkIREAEREAEREIEcE5DwyTFwnU4EREAEREAERCD/CUj45P8YqYUiIAIiIAIiIALxBCR8NENEQAREQAREQAREIERAwkdTQgREQAREQAREoNAJSPgU+giq/SIgAiIgAiIgAlknIOGTdaSqUAREQAREQAREIMcEJHxyDFynEwEREAEREAERyH8CEj75P0ZqoQiIgAiIgAiIQDwBCR/NEBEQAREQAREQAREIEZDw0ZQQAREQAREQAREodAISPoU+gmq/CIiACIiACIhA1glI+GQdqSoUAREQAREQARHIMQEJnxwD1+lEQAREQAREQATyn4CET/6PkVooAiIgAiIgAiIQT0DCRzNEBERABERABERABEIEJHw0JURABERABERABAqdgIRPoY+g2i8CIiACIiACIpB1AhI+WUeqCkVABERABERABHJMQMInx8B1OhEQAREQAREQgfwnIOGT/2OkFoqACIiACIiACMQTkPDRDBEBERABERABERCBEAEJH00JERABERABERCBQicg4VPoI6j2i4AIiIAIiIAIZJ2AhE/WkapCERABERABERCBHBOQ8MkxcJ1OBERABERABEQg/wlI+OT/GKmFIiACIiACIiAC8QQkfDRDREAEREAEREAERCBEQMJHU0IEREAEREAERKDQCUj4FPoIqv0iIAIiIAIiIAJZJyDhk3WkqlAEREAEREAERCDHBCR8cgxcpxMBERABERABEch/AhI++T9GaqEIiIAIiIAIiEA8AQkfzRAREAEREAEREAERCBGQ8NGUEAEREAEREAERKHQCEj6FPoJqvwiIgAiIgAiIQNYJSPhkD+ny5cutSpUqJa7QH/f999/bsccea2PHji1xHVEHlEWdWWtciooy5Zmr9uk8IiACIiAC+UNAwid/xkItEQEREAEREAERyBMC+Sh8rrnmGnv00UetUqVKjlLdunVtzJgx7t+TJk2yK664wmbPnm21atWy008/3Q444AC37ccff7R+/frZ119/bZtssolde+21tvnmm9s333xjBx54oK211lorUX/mmWds0003jR2JKVOm2FVXXeXqoB3XXXedbbvttvbYY4/ZuHHj7I477nDHf/jhh9a3b18bPny4XXTRRXbaaae5/aZOnWqNGjWyP/74w0455RTX1qjj5s2bZyeeeKK99dZbSdu044472t9//20VKlRIbH/hhRdsww03jOwDwieuzkym4aeffmqHHnqoGx/+bLTRRnbOOedYx44dU1a3++6728yZMxP70ZfJkyfb008/HcllnXXWiRxbKlqwYIFdfvnl9u6777o5cdxxx9nxxx+fsi1RY8tYd+jQwfWN9tWvX9+N59FHH52yzqgd5s6da7vssot98cUXiXmdTmWZsr711lvtr7/+sgsvvDBxmvvvv99ox3nnnZfOqbWPCIhADgjcfffd9vDDD7sznX/++XbwwQcnzhq3La5ppa3zq6++skMOOcT4O1XZf//9jc+uypUru+vlzjvvbFdeeaX7vP33339twIABNmrUKPvnn39shx12sMsuu8yqVavm9nv77bfdNZvCdj4fXnvtNatRo0aq0ybdLuGTETYdJAIiIAIiIAIiUMwE8lH4cJOKGNljjz1WQb/PPvs4qbPXXnvZrFmzbODAgXb99dc7EcIXz3PPPdcdO3LkSLvxxhvt1VdftenTpztJ9MQTT5RoKJcsWeLq4gtq27Zt7YMPPnA3y++88449/vjj9vHHH9stt9ziZESPHj3s3nvvdQKJL7hNmza1ww47zE444QQnhb777jsbNmyYbbnllpHHpZIzCB++OCNA0i2p6ky3nuB+SIj+/fvbiBEjjCgceJx11llOyiHF0i3PP/+8G6f77rvPCbQonsuWLYscW24cunbt6mQT0VGINcb67LPPdtIvqsSNLSKI/vibFPp70kknuTFv1qxZut1baT9EC/P5888/L9HxmbJmvvXq1WsleditWze7+OKLrUWLFiVqg3YWAREoGwJcO2+//XZ3DeQz7PDDD7ehQ4e6z5G4bXGtKW2diBeEPnL622+/TdlxPndpc+PGjY3rKvJ/u+22c9cfru9cNx966CGrWrWq+5sHFPvuu6+dccYZ1q5dO+vcubM7Bw9N7rnnHvcn0yLhkyk5HScCIiACIiACIlC0BEojfIYMGeK+pPF0j5tIbsw/+ugjJ2FatWrlliYREcNTPr7M9uzZ04488kjHMnjTyTa+DH722Wdu26mnnuq+LFJHuCA9XnrpJatXr95KmxA7RIkEvywSlbHffvu5m/Q44cN2oh+I5CFyCIHUvn17V/9PP/3kvsj6svXWW7sv4rQBQYF8OuKII9wTzV133dXt9tRTTzkJhHQgyoenrQsXLrQZM2a4fkYd5+UMX7b5YsyTT9rNU09KnPD55ZdfXJTLr7/+6p6eEiVFv+Lq9Nt4ooysYZwQZsit+fPnu6go2oG8QnYxlkgexskLH8+lU6dOrq2tW7e2qLaExxIZxlNkpJoXPsl4xo1tgwYN7KabbnIyLVyQNGeeeaa1bNnSzUueLk+cONGJOW6yosYWkeiFj6+T6CyifngqzQ0KUVq+bLPNNu7/jC99gqWPwuKcr7zyilWsWDFS+MT9HlFPHOu43yPmPkKyefPmLgqqS5cu9uabbxbttUwdE4FCIzB48GAXzcJ1g8J1ietw7969LW5bXD9LWyefoVwbn3zyyRILn0WLFrlrJ58pBx10kLuuEyV09dVXr9Lkl19+2ZD+d911l9vmP7P4/Mu0SPhkSk7HiYAIiIAIiIAIFC2B0gofvswheLipvvPOO93NPtLBR+lccsklToT89ttv7kab5U7BwpdbIjN4Sti9e3e3iaUzf/75pztms802cxE2PlqDcyAALr30Utt+++0TVXHTT+QLUsmXBx54wC0fQirECZ8tttjCfTnlPIgNloIluzGmb9w0I7n4IovQQhBRf3C5zyeffOK+xNIW6qL/a6+9tusLbKKOQ8DAAVFBJNF7773npBECoWbNmk74/PfffwmZgJjae++93c/UTUP5AAAQ5ElEQVRo18knn+ykBPsTZcQX6h9++CGyTtqO1GEZAW1FWBCVxJdwInVefPFFt9TgkUcecZKDOhFewagTzs3/kWuvv/66u3mJaktwKRqSkGgtRMmaa64ZyzNubNdff303BsGlS378Bw0aZAghbiCQh4wpETbjx49fZf/g2LKkKyh8iJZhbsKidu3arn/JhE/16tWd/ONmjTFH+sEF4RMX4YPwifo9Qjx64RNmzZzwJdnvEf3n5zxxf+655+zLL780fh9VREAE8oMAn2U8bOChAKKe6wefdTfffLP7nIvaFtf60tTJEmSWABMNi9xON8KHyEqu78hyrll8TlP4DOf6y+cKS2398i22seSU6yRLcbl2chwPS7jGZlokfDIlp+NEQAREQAREQASKlkBphQ+RC4gGIjsQGSyDIScLQoYvre+//74TCsiZ4A2/B8rTSHLucNPrCwKJJVuEhRO1Q7g78oJzUbhx9/sTEUKEBdEtSCe+WPrCTS4RHUcdddQqOXw4jvB5Cnl++NK53nrrOXnCsitujv35fH3cOG+11VbuaSzCh6ge/k9YOrmEfOHLL19yiVyhbbfddpvbjy/SSJyo4xA+RGXAjy//FNqIQCDKJyrChy/lhMfzRd+X3XbbzT2h5Ut1VJ2E1tNGzueTTRNZRbQOAoxCX4n2of1EQFEQPCyjIkcDUV2INqJ/WLIU15ZgriFuKIh0YqwpcTzjxhYx5Z+I01eik4gYY6zYhpzjJoo5gPRbunSp287/gyU4tggfuHATQiGajDnOWHiBGCV8kGXkYEK28KQccYk8SiV8on6PEHJRrIPtT/Z7RD+IcCInBvMDqZcsaq5oL27qmAgUAAGW/CI6+HxEUJPzjWgXSty2uK5lWidim+vETjvt5KJT0xU+fkkXgqdPnz7uc9jnIkLu8wCE5V1cQ/msXGONNVzzEeJca/kMJgqIiNLSFAmf0tDTsSIgAiIgAiIgAkVJoLTCh0SNSAKED9ExRIV44QOw0aNHuwiRadOmuagVn2CZbcigCy64wEg8HPdUj0gQpE9waRXHc2NNZAfJl0mWzNNDomN8YZkP0R8Ij1RLupBOvrBMZsKECW75lS8PPvigk0LcxHNz7pM288WcPvGEFiniCwl6iRyi3QgU2kYiatqELEh2HMLnmGOOWSl6hC/HPPnky3OU8KFd3NCTPNkXJA1tInomqk76GX4rGCKMJ8x+iQHRMOR+4cu6Xz4UjPDx+SKQS5S4tgT5cGNBYmVkGSWOJxE+UWNL5BQ3JUTB+IIMZOyom/kBO4QLETdEBPFUuU2bNpFjG47wCf7ipxI+CCVkJeKTGyefzymV8In6PUL4+AifMGvfrrjfI3JlIIOQToifZNK1KC9s6pQIFCABPiP4zEJAh0vctriuplsn13CiQ4nOWbx4cUbCh3bw4AeRz/LfYOEziShaokCJfKXw2c+DCj4buJaHRXxJh1DCp6TEtL8IiIAIiIAIiEDREyhL4cPNr5cmLFkhf49/k9Lvv//ubsTJMUKek2AJLlvi5wgfnliSkyb8qm6+GLOdCBVkCiHwviCTWPKEwCiN8CFqg8STLBHzb/oKJhnm5p5+IEV8f+krX2B58sm5uSlnv7jjED5E1hCV5CNuWD7EMhwYRQkfBAX7IL7CJa5OInM4HwLHP3El+TQRMSwtYxxYqlanTh2XA4YbB4RBUPhwPsYR1oiUuLb4tvHEd88993TRN55XHBdERdTYEjXEsrc33ngjITO88KEvRB0R7USyYsaEZXWwIpqLkmxs44QPN0KMAwlNKUTwIMKQnD4iiCfVRGghaKifkg3hE2bN/+N+j9juo+zI48M8VBEBEchfAkRz8oAAURsucdviepRuncgWlhzz2cO1H0HepEkTd+2NS8YfTNpMO7g28nCHpazhz2uWjPGAiGs6hespUZlENvFwpCRJ/5P1WcInf+e2WiYCIiACIiACIrCaCJSV8EHEEOHAUh++NPJFD3nBa1h5wsfNOEu2iDzwhbeDIBSIKCF5MMvAkCg8LWQZF6KAL688JSR6hmVXLJMiumeDDTZwb2qiPqIiiEzhJp+nhySgzFT4sJSML6JE+PicKXwZDr6li/azdAaJQIQMhVe0IxeIYkH0cOOPiAiKjfBxyBm+6PNl2b9KHX58OUbIRAkfljTBlqgcBA6iDV7k84mrk7eXcT7GitB6nswibnwuHr7o86WdvhMlBF8EUFj4wBgZxv5xbfHjjJiCSTDBdhwXbhqixhZhxI0Kc4kxYA4R1UPEGfOP5VCIGNpHHxGP/rX3UWMbfEtXsl9L/zY42LF0CxmJpPPCh7xJRBeRr8pHnGVL+ARZMw+jfo94pTyF/hKBxnwNRjWtpsuNTisCIhAgQJJjroUsgeIzi+sv8prrfdw2XwXRj/xeI7V9KW2dXsRksqQLAc4S7oYNG7rrMJ9fSHn6RxQj/+dNXuSf84WE+DxQKOlbNCV89KskAiIgAiIgAiIgAmkQKCvhg/hgKRd/EDXIEr+kizw2LCViGZfPk8PNK19eichhOyHfJNJFFvEl0b8Omwge1vnPmTPHPRVEDHEDTkEqIXkQQT4nAH8TscFT02CSW/YnnJwvo9QdtaSLbSyL8hEwCA3yCiFH/GvEqYtIC9px6623umSXtJOIF8QUoewkrKb/YbERPK5+/fou38+6667rzkEuB74YE51BSfWWLkQYy5u42UfQIDwQPlF1sg0hRYQO7WK5E0vNyPNCLgZEARKHCCmW5JF/4dlnn3WJOYNvjmLskEtINW4+GLdkbfHTkbewseSNNvoSxwWeUWPL8X6pANFjzClEDPKHZWDk/2H8mBdEKDHmCEJK1NgizMJv6Qr+KvHGL27M6DfzGCHG8oXg02nGihxSPm8RwocoLR9Z5OtjGQVtSmdJF8cEWZOLKO73yJ8D6cXNlJdAaVwWtIsIiEAOCLBEFDHMtZhrF597JManxG3zTeOazAMOEiL7Uto6qaekS7r4vOAaxuckS5D5rOO6S5QQEY9Ec7KdaB5ywQWTN/MwhGt4sA+ZoleET6bkdJwIiIAIiIAIiEDREiiN8MlXKDxNZNmOEtTGj5AXPoiSQin5PLYshyDBM6+tR7KVNgFpoYyJ2ikCIiAC+UBAwicfRkFtEAEREAEREAERyCsCxSh8WM5EtAnJL1kSRpSPyqoEClH45PPYEg2F6OHp9e23325NmzbVtBMBERABEcgRAQmfHIHWaURABERABERABAqHQDEKn8Khr5aKgAiIgAiIgAhkg4CETzYoqg4REAEREAEREIGiIiDhU1TDqc6IgAiIgAiIQLkkIOFTLoddnRYBERABERABEYgjIOGj+SECIiACIiACIlDoBCR8Cn0E1X4REAEREAEREIGsE5DwyTpSVSgCIiACIiACIpBjAhI+OQau04mACIiACIiACOQ/AQmf/B8jtVAEREAEREAERCCegISPZogIiIAIiIAIiIAIhAhI+GhKiIAIiIAIiIAIFDoBCZ9CH0G1XwREQAREQAREIOsEJHyyjlQVioAIiIAIiIAI5JiAhE+Oget0IiACIiACIiAC+U9Awif/x0gtFAEREAEREAERiCcg4aMZIgIiIAIiIAIiIAIhAhI+mhIiIAIiIAIiIAKFTkDCp9BHUO0XAREQAREQARHIOgEJn6wjVYUiIAIiIAIiIAI5JiDhk2PgOp0IiIAIiIAIiED+E5Dwyf8xUgtFQAREQAREQATiCUj4aIaIgAiIgAiIgAiIQIiAhI+mhAiIgAiIgAiIQKETkPAp9BFU+0VABERABERABLJOQMIn60hVoQiIgAiIgAiIQI4JSPjkGLhOJwIiIAIiIAIikP8EJHzyf4zUQhEQAREQAREQgXgCEj6aISIgAiIgAiIgAiIQIiDhoykhAiIgAiIgAiJQ6AQkfAp9BNV+ERABERABERCBrBOQ8Mk6UlUoAiIgAiIgAiKQYwISPjkGrtOJgAiIgAiIgAjkPwEJn/wfI7VQBERABERABEQgnoCEj2aICIiACIiACIiACIQISPhoSoiACIiACIiACBQ6AQmfQh9BtV8EREAEREAERCDrBCR8so5UFYqACIiACIiACOSYgIRPjoHrdCIgAiIgAiIgAvlPQMIn/8dILRQBERABERABEYgnIOGjGSICIiACIiACIiACIQISPpoSIiACIiACIiAChU5AwqfQR1DtFwEREAEREAERyDoBCZ+sI1WFIiACIiACIiACOSYg4ZNj4DqdCIiACIiACIhA/hOQ8Mn/MVILRUAEREAEREAE4glI+GiGiIAIiIAIiIAIiECIgISPpoQIiIAIiIAIiEChE5DwKfQRVPtFQAREQAREQASyTkDCJ+tIVaEIiIAIiIAIiECOCUj45Bi4TicCIiACIiACIpD/BCR88n+M1EIREAEREAEREIF4AhI+miEiIAIiIAIiIAIiECIg4aMpIQIiIAIiIAIiUOgEJHwKfQTVfhEQAREQAREQgawTkPDJOlJVKAIiIAIiIAIikGMCEj45Bq7TiYAIiIAIiIAI5D8BCZ/8HyO1UAREQAREQAREIJ6AhI9miAiIgAiIgAiIgAiECEj4aEqIgAiIgAiIgAgUOgEJn0IfQbVfBERABERABEQg6wQkfLKOVBWKgAiIgAiIgAjkmICET46B63QiIAIiIAIiIAL5T0DCJ//HSC0UAREQAREQARGIJyDhoxkiAiIgAiIgAiIgAiECEj6aEiIgAiIgAiIgAoVOQMKn0EdQ7RcBERABERABEcg6AQmfrCNVhSIgAiIgAiIgAjkmIOGTY+A6nQiIgAiIgAiIQP4TkPDJ/zFSC0VABERABERABOIJSPhohoiACIiACIiACIhAiICEj6aECIiACIiACIhAoROQ8Cn0EVT7RUAEREAEREAEsk5AwifrSFWhCIiACIiACIhAjglI+OQYuE4nAiIgAiIgAiKQ/wQkfPJ/jNRCERABERABERCBeAISPpohIiACIiACIiACIhAiIOGjKSECIiACIiACIlDoBCR8Cn0E1X4REAEREAEREIGsE5DwyTpSVSgCIiACIiACIpBjAhI+OQau04mACIiACIiACOQ/AQmf/B8jtVAEREAEREAERCCegISPZogIiIAIiIAIiIAIhAhI+GhKiIAIiIAIiIAIFDoBCZ9CH0G1XwREQAREQAREIOsEJHyyjlQVioAIiIAIiIAI5JiAhE+Oget0IiACIiACIiAC+U9Awif/x0gtFAEREAEREAERiCcg4aMZIgIiIAIiIAIiIAIhAhI+mhIiIAIiIAIiIAKFTkDCp9BHUO0XAREQAREQARHIOgEJn6wjVYUiIAIiIAIiIAI5JiDhk2PgOp0IiIAIiIAIiED+E5Dwyf8xUgtFQAREQAREQATiCUj4aIaIgAiIgAiIgAiIQIiAhI+mhAiIgAiIgAiIQKETkPAp9BFU+0VABERABERABLJOQMIn60hVoQiIgAiIgAiIQI4JSPjkGLhOJwIiIAIiIAIikP8EJHzyf4zUQhEQAREQAREQgXgCEj6aISIgAiIgAiIgAiIQIiDhoykhAiIgAiIgAiJQ6AQkfAp9BNV+ERABERABERCBrBOQ8Mk6UlUoAiIgAiIgAiKQYwISPjkGrtOJgAiIgAiIgAjkPwEJn/wfI7VQBERABERABEQgnoCEj2aICIiACIiACIiACIQISPhoSoiACIiACIiACBQ6AQmfQh9BtV8EREAEREAERCDrBCR8so5UFYqACIiACIiACOSYQJzw+T+TaKzSQKj2lAAAAABJRU5ErkJggg==;" parent="1" vertex="1">
          <mxGeometry x="85" y="1880" width="666" height="234.38" as="geometry" />
        </mxCell>
        <mxCell id="0ypiinrUx9c20DkoJLy9-45" value="&lt;b&gt;Name of proxy provider&lt;/b&gt;" style="text;html=1;strokeColor=none;fillColor=none;align=center;verticalAlign=middle;whiteSpace=wrap;rounded=0;" parent="1" vertex="1">
          <mxGeometry x="94" y="1720" width="154" height="20" as="geometry" />
        </mxCell>
        <mxCell id="0ypiinrUx9c20DkoJLy9-46" value="&lt;b&gt;Name being Registered&lt;/b&gt;" style="text;html=1;strokeColor=none;fillColor=none;align=center;verticalAlign=middle;whiteSpace=wrap;rounded=0;" parent="1" vertex="1">
          <mxGeometry x="98.5" y="1754" width="145" height="20" as="geometry" />
        </mxCell>
        <mxCell id="0ypiinrUx9c20DkoJLy9-47" value="&lt;b&gt;Total fees&lt;/b&gt;" style="text;html=1;strokeColor=none;fillColor=none;align=center;verticalAlign=middle;whiteSpace=wrap;rounded=0;" parent="1" vertex="1">
          <mxGeometry x="85" y="1790" width="90" height="20" as="geometry" />
        </mxCell>
        <mxCell id="0ypiinrUx9c20DkoJLy9-48" value="" style="rounded=0;whiteSpace=wrap;html=1;" parent="1" vertex="1">
          <mxGeometry x="15" y="2250" width="740" height="490" as="geometry" />
        </mxCell>
        <mxCell id="0ypiinrUx9c20DkoJLy9-49" value="" style="endArrow=none;html=1;" parent="1" edge="1">
          <mxGeometry width="50" height="50" relative="1" as="geometry">
            <mxPoint x="15" y="2310" as="sourcePoint" />
            <mxPoint x="755" y="2310" as="targetPoint" />
          </mxGeometry>
        </mxCell>
        <mxCell id="0ypiinrUx9c20DkoJLy9-50" value="" style="shape=image;html=1;verticalAlign=top;verticalLabelPosition=bottom;labelBackgroundColor=#ffffff;imageAspect=0;aspect=fixed;image=https://cdn4.iconfinder.com/data/icons/fugue/icon_shadowless/ui-button-navigation-back.png" parent="1" vertex="1">
          <mxGeometry x="35" y="2260" width="50" height="50" as="geometry" />
        </mxCell>
        <mxCell id="0ypiinrUx9c20DkoJLy9-51" value="&lt;div style=&quot;text-align: left&quot;&gt;&lt;font face=&quot;lato, helvetica neue, arial, helvetica, sans-serif&quot;&gt;&lt;span style=&quot;font-size: 20px ; background-color: rgb(255 , 255 , 255)&quot;&gt;&lt;b&gt;Successfully registered!&lt;/b&gt;&lt;/span&gt;&lt;/font&gt;&lt;/div&gt;" style="text;html=1;strokeColor=none;fillColor=none;align=center;verticalAlign=middle;whiteSpace=wrap;rounded=0;" parent="1" vertex="1">
          <mxGeometry x="95" y="2275" width="239" height="20" as="geometry" />
        </mxCell>
        <mxCell id="0ypiinrUx9c20DkoJLy9-52" value="" style="shape=image;html=1;verticalAlign=top;verticalLabelPosition=bottom;labelBackgroundColor=#ffffff;imageAspect=0;aspect=fixed;image=https://cdn4.iconfinder.com/data/icons/fugue/icon_shadowless/cross-button.png" parent="1" vertex="1">
          <mxGeometry x="705" y="2265" width="30" height="30" as="geometry" />
        </mxCell>
        <mxCell id="0ypiinrUx9c20DkoJLy9-53" value="" style="ellipse;whiteSpace=wrap;html=1;aspect=fixed;fillColor=#FFFFFF;" parent="1" vertex="1">
          <mxGeometry x="50" y="2360" width="20" height="20" as="geometry" />
        </mxCell>
        <mxCell id="0ypiinrUx9c20DkoJLy9-54" value="" style="ellipse;whiteSpace=wrap;html=1;aspect=fixed;" parent="1" vertex="1">
          <mxGeometry x="50" y="2320" width="20" height="20" as="geometry" />
        </mxCell>
        <mxCell id="0ypiinrUx9c20DkoJLy9-55" value="" style="ellipse;whiteSpace=wrap;html=1;aspect=fixed;" parent="1" vertex="1">
          <mxGeometry x="50" y="2400" width="20" height="20" as="geometry" />
        </mxCell>
        <mxCell id="0ypiinrUx9c20DkoJLy9-57" value="Close" style="rounded=1;whiteSpace=wrap;html=1;fillColor=#FFFF00;fontStyle=1" parent="1" vertex="1">
          <mxGeometry x="313" y="2670" width="133" height="30" as="geometry" />
        </mxCell>
        <mxCell id="0ypiinrUx9c20DkoJLy9-62" value="&lt;b&gt;The name &quot;i&quot; was successfully registered with proxy provider &quot;Proxy provider 1&quot;&lt;/b&gt;" style="text;html=1;strokeColor=none;fillColor=none;align=center;verticalAlign=middle;whiteSpace=wrap;rounded=0;" parent="1" vertex="1">
          <mxGeometry x="110" y="2380" width="521.5" height="20" as="geometry" />
        </mxCell>
        <mxCell id="0ypiinrUx9c20DkoJLy9-65" value="" style="ellipse;whiteSpace=wrap;html=1;aspect=fixed;" parent="1" vertex="1">
          <mxGeometry x="76" y="-930" width="20" height="20" as="geometry" />
        </mxCell>
        <mxCell id="0ypiinrUx9c20DkoJLy9-66" value="" style="ellipse;whiteSpace=wrap;html=1;aspect=fixed;" parent="1" vertex="1">
          <mxGeometry x="76" y="-890" width="20" height="20" as="geometry" />
        </mxCell>
        <mxCell id="0ypiinrUx9c20DkoJLy9-67" value="" style="ellipse;whiteSpace=wrap;html=1;aspect=fixed;" parent="1" vertex="1">
          <mxGeometry x="76" y="-850" width="20" height="20" as="geometry" />
        </mxCell>
        <mxCell id="0ypiinrUx9c20DkoJLy9-68" value="" style="ellipse;whiteSpace=wrap;html=1;aspect=fixed;" parent="1" vertex="1">
          <mxGeometry x="76" y="-810" width="20" height="20" as="geometry" />
        </mxCell>
        <mxCell id="0ypiinrUx9c20DkoJLy9-69" value="" style="ellipse;whiteSpace=wrap;html=1;aspect=fixed;" parent="1" vertex="1">
          <mxGeometry x="70" y="-440" width="20" height="20" as="geometry" />
        </mxCell>
        <mxCell id="0ypiinrUx9c20DkoJLy9-70" value="" style="ellipse;whiteSpace=wrap;html=1;aspect=fixed;" parent="1" vertex="1">
          <mxGeometry x="70" y="-400" width="20" height="20" as="geometry" />
        </mxCell>
        <mxCell id="0ypiinrUx9c20DkoJLy9-71" value="" style="ellipse;whiteSpace=wrap;html=1;aspect=fixed;" parent="1" vertex="1">
          <mxGeometry x="70" y="-360" width="20" height="20" as="geometry" />
        </mxCell>
        <mxCell id="0ypiinrUx9c20DkoJLy9-72" value="" style="ellipse;whiteSpace=wrap;html=1;aspect=fixed;" parent="1" vertex="1">
          <mxGeometry x="70" y="-320" width="20" height="20" as="geometry" />
        </mxCell>
        <mxCell id="0ypiinrUx9c20DkoJLy9-73" value="" style="ellipse;whiteSpace=wrap;html=1;aspect=fixed;" parent="1" vertex="1">
          <mxGeometry x="54" y="342.5" width="20" height="20" as="geometry" />
        </mxCell>
        <mxCell id="0ypiinrUx9c20DkoJLy9-74" value="" style="ellipse;whiteSpace=wrap;html=1;aspect=fixed;" parent="1" vertex="1">
          <mxGeometry x="54" y="382.5" width="20" height="20" as="geometry" />
        </mxCell>
        <mxCell id="0ypiinrUx9c20DkoJLy9-75" value="" style="ellipse;whiteSpace=wrap;html=1;aspect=fixed;" parent="1" vertex="1">
          <mxGeometry x="54" y="422.5" width="20" height="20" as="geometry" />
        </mxCell>
        <mxCell id="0ypiinrUx9c20DkoJLy9-76" value="" style="ellipse;whiteSpace=wrap;html=1;aspect=fixed;" parent="1" vertex="1">
          <mxGeometry x="54" y="462.5" width="20" height="20" as="geometry" />
        </mxCell>
        <mxCell id="0ypiinrUx9c20DkoJLy9-77" value="" style="ellipse;whiteSpace=wrap;html=1;aspect=fixed;fillColor=#CCCC00;" parent="1" vertex="1">
          <mxGeometry x="63" y="820" width="20" height="20" as="geometry" />
        </mxCell>
        <mxCell id="0ypiinrUx9c20DkoJLy9-78" value="" style="ellipse;whiteSpace=wrap;html=1;aspect=fixed;" parent="1" vertex="1">
          <mxGeometry x="63" y="860" width="20" height="20" as="geometry" />
        </mxCell>
        <mxCell id="0ypiinrUx9c20DkoJLy9-79" value="" style="ellipse;whiteSpace=wrap;html=1;aspect=fixed;" parent="1" vertex="1">
          <mxGeometry x="63" y="900" width="20" height="20" as="geometry" />
        </mxCell>
        <mxCell id="0ypiinrUx9c20DkoJLy9-80" value="" style="ellipse;whiteSpace=wrap;html=1;aspect=fixed;" parent="1" vertex="1">
          <mxGeometry x="63" y="940" width="20" height="20" as="geometry" />
        </mxCell>
        <mxCell id="0ypiinrUx9c20DkoJLy9-81" value="" style="ellipse;whiteSpace=wrap;html=1;aspect=fixed;" parent="1" vertex="1">
          <mxGeometry x="60" y="1350" width="20" height="20" as="geometry" />
        </mxCell>
        <mxCell id="0ypiinrUx9c20DkoJLy9-82" value="" style="ellipse;whiteSpace=wrap;html=1;aspect=fixed;fillColor=#CCCC00;" parent="1" vertex="1">
          <mxGeometry x="60" y="1390" width="20" height="20" as="geometry" />
        </mxCell>
        <mxCell id="0ypiinrUx9c20DkoJLy9-83" value="" style="ellipse;whiteSpace=wrap;html=1;aspect=fixed;" parent="1" vertex="1">
          <mxGeometry x="60" y="1430" width="20" height="20" as="geometry" />
        </mxCell>
        <mxCell id="0ypiinrUx9c20DkoJLy9-84" value="" style="ellipse;whiteSpace=wrap;html=1;aspect=fixed;" parent="1" vertex="1">
          <mxGeometry x="60" y="1470" width="20" height="20" as="geometry" />
        </mxCell>
        <mxCell id="0ypiinrUx9c20DkoJLy9-85" value="" style="ellipse;whiteSpace=wrap;html=1;aspect=fixed;" parent="1" vertex="1">
          <mxGeometry x="50" y="1820" width="20" height="20" as="geometry" />
        </mxCell>
        <mxCell id="0ypiinrUx9c20DkoJLy9-86" value="" style="ellipse;whiteSpace=wrap;html=1;aspect=fixed;" parent="1" vertex="1">
          <mxGeometry x="50" y="1860" width="20" height="20" as="geometry" />
        </mxCell>
        <mxCell id="0ypiinrUx9c20DkoJLy9-87" value="" style="ellipse;whiteSpace=wrap;html=1;aspect=fixed;fillColor=#CCCC00;" parent="1" vertex="1">
          <mxGeometry x="50" y="1895" width="20" height="20" as="geometry" />
        </mxCell>
        <mxCell id="0ypiinrUx9c20DkoJLy9-88" value="" style="ellipse;whiteSpace=wrap;html=1;aspect=fixed;" parent="1" vertex="1">
          <mxGeometry x="50" y="1935" width="20" height="20" as="geometry" />
        </mxCell>
        <mxCell id="0ypiinrUx9c20DkoJLy9-89" value="" style="ellipse;whiteSpace=wrap;html=1;aspect=fixed;" parent="1" vertex="1">
          <mxGeometry x="50" y="2440" width="20" height="20" as="geometry" />
        </mxCell>
        <mxCell id="0ypiinrUx9c20DkoJLy9-90" value="" style="ellipse;whiteSpace=wrap;html=1;aspect=fixed;" parent="1" vertex="1">
          <mxGeometry x="50" y="2480" width="20" height="20" as="geometry" />
        </mxCell>
        <mxCell id="0ypiinrUx9c20DkoJLy9-91" value="" style="ellipse;whiteSpace=wrap;html=1;aspect=fixed;" parent="1" vertex="1">
          <mxGeometry x="50" y="2520" width="20" height="20" as="geometry" />
        </mxCell>
        <mxCell id="0ypiinrUx9c20DkoJLy9-92" value="" style="ellipse;whiteSpace=wrap;html=1;aspect=fixed;fillColor=#CCCC00;" parent="1" vertex="1">
          <mxGeometry x="50" y="2555" width="20" height="20" as="geometry" />
        </mxCell>
      </root>
    </mxGraphModel>
  </diagram>
</mxfile>
